<svg id="Layer_1" data-name="Layer 1" xmlns="http://www.w3.org/2000/svg" xmlns:xlink="http://www.w3.org/1999/xlink" viewBox="0 0 1558.23 815.49"><defs><style>.cls-1,.cls-2{font-size:420px;font-family:Montserrat-ExtraBold, Montserrat;font-weight:800;}.cls-1{fill:#097263;}.cls-2{fill:#2fb29f;}.cls-3{fill:#162b86;}.cls-3,.cls-4,.cls-5,.cls-6,.cls-7{fill-rule:evenodd;}.cls-4{fill:url(#GradientFill_2);}.cls-5{fill:#185edd;}.cls-6{fill:#1cf5d2;}.cls-7{fill:url(#GradientFill_2-2);}</style><linearGradient id="GradientFill_2" x1="657.44" y1="588.55" x2="488.37" y2="627.58" gradientUnits="userSpaceOnUse"><stop offset="0" stop-color="#40e2a2"/><stop offset="1" stop-color="#3f33b0"/></linearGradient><linearGradient id="GradientFill_2-2" x1="833.84" y1="749.78" x2="909.98" y2="551.43" xlink:href="#GradientFill_2"/></defs><text class="cls-1" transform="translate(406.94 416.78)">404</text><text class="cls-2" transform="translate(393.66 404.9)">404</text><path class="cls-3" d="M161.87,611.17c41.15,0,75.19-13.21,103.19-39.85,33.49-31.86,52.87-77.16,71.62-121,21.19-49.51,41.2-96.28,77.75-108,16.1-5.15,30.75-3.42,44.78,5.31,61.67,38.38,85,191.16,85.27,192.7l20.84-3.1c-1-6.68-25.13-164-95-207.49-19.32-12-40.29-14.54-62.33-7.48C362.29,337,340.44,388,317.31,442.07c-35.95,84-73.11,170.88-202.49,142.48L52.24,564.31a10.53,10.53,0,1,0-6.48,20l64,20.67A241.94,241.94,0,0,0,161.87,611.17Z"/><path class="cls-4" d="M517.91,715.22,495.49,606.51a74.86,74.86,0,0,1,145.75-34l27.52,105.44Z"/><path class="cls-5" d="M518,718.1c2.41,10,38.56,9.87,80.74-.29s74.43-26.51,72-36.51-38.56-9.87-80.74.29S515.55,708.1,518,718.1Z"/><path class="cls-3" d="M609,688.6c-.6,3.38,5.43,7.29,13.48,8.73s15.07-.12,15.67-3.49-5.42-7.29-13.47-8.73S609.65,685.23,609,688.6Z"/><path class="cls-3" d="M555.88,704.9c-.6,3.38,5.43,7.29,13.48,8.73s15.07-.12,15.68-3.49-5.43-7.29-13.48-8.73S556.49,701.53,555.88,704.9Z"/><path class="cls-6" d="M585.47,532.79s32.52,11.82,42.87,45.83,19.22,77.62,19.22,77.62L618,657Z"/><polygon class="cls-3" points="556.82 494.25 541.11 521.7 561.81 516.89 556.82 494.25"/><path class="cls-3" d="M1506,465.54l-8.38,18.63c-1.46-.66-36.05-16.7-67.8-73.22-9.18-16.34-23.26-35.45-38.2-33.69-10.72,1.26-39.13,16.48-71.45,130.22-35.23,124-110.6,205.06-224,240.86-73.39,23.17-164.16-26.28-168-28.4l9.88-17.87c1.14.63,87.09,47.27,152,26.8,106.44-33.6,177.27-110,210.51-227,26.6-93.6,55.61-141,88.7-144.91,21-2.48,40.61,12.32,58.39,44,28.5,50.73,58.08,64.47,58.38,64.6ZM938.08,702.07h0L933.14,711l4.94-8.94Z"/><path class="cls-3" d="M748.58,627.76l53.79,39A10.05,10.05,0,1,1,790.57,683l-53.79-39a10.05,10.05,0,0,1,11.8-16.28Z"/><path class="cls-3" d="M790.07,568.05l53.8,39a10.05,10.05,0,0,1-11.8,16.28l-53.79-39a10.05,10.05,0,1,1,11.79-16.28Z"/><polygon class="cls-3" points="978.29 723.17 944.9 728.15 954.14 709.53 985.71 721.97 978.29 723.17"/><path class="cls-7" d="M752.67,683.54,845.73,744a74.86,74.86,0,0,0,84.8-123.33l-88.16-64.05Z"/><path class="cls-6" d="M783.87,688l21.43-29,109.91,79.17s-26.34,13.13-56.67-1.62S783.87,688,783.87,688Z"/></svg>