<svg id="Layer_1" data-name="Layer 1" xmlns="http://www.w3.org/2000/svg" xmlns:xlink="http://www.w3.org/1999/xlink" viewBox="0 0 1529.37 815.49"><defs><style>.cls-1,.cls-2{font-size:420px;font-family:Montserrat-ExtraBold, Montserrat;font-weight:800;}.cls-1{fill:#2d72c4;}.cls-2{fill:#669ff2;}.cls-3{fill:#162b86;}.cls-3,.cls-4,.cls-5,.cls-6,.cls-7{fill-rule:evenodd;}.cls-4{fill:url(#GradientFill_2);}.cls-5{fill:#185edd;}.cls-6{fill:#1cf5d2;}.cls-7{fill:url(#GradientFill_2-2);}</style><linearGradient id="GradientFill_2" x1="649.88" y1="572.97" x2="480.8" y2="612.01" gradientUnits="userSpaceOnUse"><stop offset="0" stop-color="#40e2a2"/><stop offset="1" stop-color="#3f33b0"/></linearGradient><linearGradient id="GradientFill_2-2" x1="826.28" y1="734.2" x2="902.42" y2="535.85" xlink:href="#GradientFill_2"/></defs><text class="cls-1" transform="translate(444.86 401.2)">500</text><text class="cls-2" transform="translate(431.57 389.32)">500</text><path class="cls-3" d="M154.31,595.59c41.15,0,75.19-13.21,103.19-39.84,33.49-31.87,52.87-77.16,71.62-121,21.19-49.51,41.2-96.28,77.75-108,16.1-5.15,30.75-3.42,44.78,5.31,61.67,38.38,85,191.16,85.27,192.7l20.84-3.1c-1-6.67-25.13-164-95-207.49-19.32-12-40.29-14.54-62.34-7.48-45.71,14.63-67.56,65.69-90.69,119.75C273.8,510.5,236.64,597.37,107.26,569L44.68,548.73a10.53,10.53,0,1,0-6.48,20l64,20.67A241.94,241.94,0,0,0,154.31,595.59Z"/><path class="cls-4" d="M510.35,699.64,487.93,590.93a74.86,74.86,0,0,1,145.75-34L661.2,662.35Z"/><path class="cls-5" d="M510.4,702.52c2.41,10,38.56,9.88,80.74-.29s74.43-26.5,72-36.51-38.56-9.87-80.74.29S508,692.52,510.4,702.52Z"/><path class="cls-3" d="M601.48,673c-.6,3.37,5.43,7.28,13.48,8.73s15.07-.12,15.67-3.5-5.42-7.28-13.47-8.73S602.09,669.65,601.48,673Z"/><path class="cls-3" d="M548.32,689.33c-.6,3.37,5.43,7.28,13.48,8.73s15.07-.12,15.67-3.5-5.42-7.28-13.47-8.73S548.93,686,548.32,689.33Z"/><path class="cls-6" d="M577.91,517.21S610.43,529,620.78,563,640,640.66,640,640.66l-29.57.74Z"/><polygon class="cls-3" points="549.26 478.68 533.55 506.12 554.25 501.31 549.26 478.68"/><path class="cls-3" d="M1498.47,450l-8.38,18.62c-1.46-.65-36-16.7-67.8-73.22-9.18-16.34-23.26-35.45-38.2-33.69-10.72,1.27-39.13,16.49-71.45,130.22-35.23,124-110.6,205.07-224,240.86-73.39,23.17-164.16-26.28-168-28.4l9.88-17.87c1.14.63,87.09,47.28,152,26.8,106.45-33.6,177.28-110,210.52-227,26.6-93.61,55.61-141,88.7-144.92,21-2.48,40.61,12.32,58.39,44,28.5,50.72,58.08,64.46,58.38,64.6ZM930.52,686.49h0l-4.94,8.94,4.94-8.94Z"/><path class="cls-3" d="M741,612.19l53.79,39A10.05,10.05,0,0,1,783,667.45l-53.79-39A10.05,10.05,0,0,1,741,612.19Z"/><path class="cls-3" d="M782.51,552.47l53.8,39a10.05,10.05,0,1,1-11.8,16.28l-53.79-39a10.05,10.05,0,1,1,11.79-16.28Z"/><polygon class="cls-3" points="970.73 707.6 937.34 712.57 946.58 693.96 978.14 706.39 970.73 707.6"/><path class="cls-7" d="M745.11,668l93.06,60.5A74.86,74.86,0,0,0,923,605.13l-88.16-64Z"/><path class="cls-6" d="M776.31,672.4l21.43-29,109.91,79.18S881.31,735.7,851,721,776.31,672.4,776.31,672.4Z"/></svg>