<svg xmlns="http://www.w3.org/2000/svg" width="44.507" height="37" viewBox="0 0 44.507 37">
  <path id="blockqoute2" d="M972.225,806.618a12.366,12.366,0,0,0-2.949-8.4,10.6,10.6,0,0,0-15.553,0,12.113,12.113,0,0,0-2.949,8.221,14.228,14.228,0,0,0,2.324,8.223,7.636,7.636,0,0,0,6.791,4.112,11.617,11.617,0,0,0,4.112-.894q-.174,7.508-8.937,10.545l.894,3.4q2.507,0,5.363-2.682a35.823,35.823,0,0,0,4.2-4.648,31.168,31.168,0,0,0,3.484-5.719,40.473,40.473,0,0,0,2.324-6.166A21.728,21.728,0,0,0,972.225,806.618Zm-23.057,0a12.357,12.357,0,0,0-2.951-8.4,10.6,10.6,0,0,0-15.55,0,12.112,12.112,0,0,0-2.949,8.221,14.213,14.213,0,0,0,2.324,8.223,7.639,7.639,0,0,0,6.791,4.112,11.617,11.617,0,0,0,4.111-.894q-.174,7.508-8.937,10.545l.894,3.4q2.5,0,5.361-2.682a35.656,35.656,0,0,0,4.2-4.648,31.049,31.049,0,0,0,3.487-5.719,40.485,40.485,0,0,0,2.324-6.166A21.722,21.722,0,0,0,949.167,806.618Z" transform="translate(-927.718 -794.821)" fill="#e6e6e6"/>
</svg>
