<svg xmlns="http://www.w3.org/2000/svg" width="16" height="11.874" viewBox="0 0 16 11.874">
  <path id="bullet-point" d="M10.2,12.373a1.58,1.58,0,0,1-.605-.121,1.56,1.56,0,0,1-.969-1.444V9.464a.625.625,0,1,1,1.25,0v1.345a.3.3,0,0,0,.2.289.31.31,0,0,0,.349-.067L14.568,6.88a.628.628,0,0,0,0-.887L10.422,1.842a.31.31,0,0,0-.349-.067.3.3,0,0,0-.2.289V5.843a1.252,1.252,0,0,1-1.25,1.25h-8a.625.625,0,0,1,0-1.25h8V2.064A1.571,1.571,0,0,1,11.306.959L15.452,5.11a1.88,1.88,0,0,1,0,2.654l-4.146,4.151a1.562,1.562,0,0,1-1.106.459Zm0,0" transform="translate(0 -0.5)" fill="#3dae59"/>
</svg>
