<svg width="38" height="46" viewBox="0 0 38 46" fill="none" xmlns="http://www.w3.org/2000/svg">
<path d="M19.0001 21.1816C24.5862 21.1816 29.1146 16.6638 29.1146 11.0908C29.1146 5.51781 24.5862 1 19.0001 1C13.4141 1 8.88568 5.51781 8.88568 11.0908C8.88568 16.6638 13.4141 21.1816 19.0001 21.1816Z" stroke="#33E773" stroke-width="2" stroke-miterlimit="10" stroke-linecap="round" stroke-linejoin="round"/>
<path d="M16.53 11.4401L18.9999 13.311L22.0991 9.56909" stroke="#33E773" stroke-width="2" stroke-miterlimit="10" stroke-linecap="round" stroke-linejoin="round"/>
<path d="M25.8092 39.4814C26.4968 37.105 28.6876 35.3676 31.284 35.3676H31.3012C34.4487 35.3676 37.0002 37.9208 37.0002 41.0704V41.2941H26.6396" stroke="#33E773" stroke-width="2" stroke-miterlimit="10" stroke-linecap="round" stroke-linejoin="round"/>
<path d="M31.2926 35.3678C33.501 35.3678 35.2913 33.5361 35.2913 31.2765C35.2913 29.0169 33.501 27.1852 31.2926 27.1852C29.0841 27.1852 27.2939 29.0169 27.2939 31.2765C27.2939 33.5361 29.0841 35.3678 31.2926 35.3678Z" stroke="#33E773" stroke-width="2" stroke-miterlimit="10" stroke-linecap="round" stroke-linejoin="round"/>
<path d="M11.3717 41.2941H1V41.0704C1 37.9208 3.5515 35.3676 6.69902 35.3676H6.71625C9.32754 35.3676 11.5286 37.125 12.2027 39.5224" stroke="#33E773" stroke-width="2" stroke-miterlimit="10" stroke-linecap="round" stroke-linejoin="round"/>
<path d="M6.70761 35.3678C8.91604 35.3678 10.7063 33.5361 10.7063 31.2765C10.7063 29.0169 8.91604 27.1852 6.70761 27.1852C4.49918 27.1852 2.70889 29.0169 2.70889 31.2765C2.70889 33.5361 4.49918 35.3678 6.70761 35.3678Z" stroke="#33E773" stroke-width="2" stroke-miterlimit="10" stroke-linecap="round" stroke-linejoin="round"/>
<path d="M26.968 44.0882H11.032V43.7731C11.032 39.3776 14.5952 35.8145 18.9907 35.8145H19.0093C23.4048 35.8145 26.968 39.3776 26.968 43.7731V44.0882Z" stroke="#33E773" stroke-width="2" stroke-miterlimit="10" stroke-linecap="round" stroke-linejoin="round"/>
<path d="M18.9999 35.8142C22.0829 35.8142 24.5821 33.257 24.5821 30.1026C24.5821 26.9482 22.0829 24.391 18.9999 24.391C15.9169 24.391 13.4177 26.9482 13.4177 30.1026C13.4177 33.257 15.9169 35.8142 18.9999 35.8142Z" stroke="#33E773" stroke-width="2" stroke-miterlimit="10" stroke-linecap="round" stroke-linejoin="round"/>
</svg>
