<svg id="company-name" xmlns="http://www.w3.org/2000/svg" width="12" height="13.357" viewBox="0 0 12 13.357">
  <path id="Path_117" data-name="Path 117" d="M37.739,3.131H32.783V.261A.261.261,0,0,0,32.522,0H26.261A.261.261,0,0,0,26,.261V13.1a.261.261,0,0,0,.261.261H37.739A.261.261,0,0,0,38,13.1v-9.7A.261.261,0,0,0,37.739,3.131Zm-4.957.522h4.7v6.574h-4.7Zm-4.174,9.182V10.748h1.565v2.087Zm1.826-2.609H28.348a.261.261,0,0,0-.261.261v2.348H26.522V.522h5.739V12.835H30.7V10.487A.261.261,0,0,0,30.435,10.226Zm2.348,2.609V10.748h4.7v2.087Z" transform="translate(-26)" fill="#e74c3c"/>
  <path id="Path_118" data-name="Path 118" d="M136.26,41.044h.522a.261.261,0,0,0,.261-.261v-.522a.261.261,0,0,0-.261-.261h-.522a.261.261,0,0,0-.261.261v.522A.261.261,0,0,0,136.26,41.044Z" transform="translate(-133.13 -38.958)" fill="#e74c3c"/>
  <path id="Path_119" data-name="Path 119" d="M136.26,111.045h.522a.261.261,0,0,0,.261-.261v-.522a.261.261,0,0,0-.261-.261h-.522a.261.261,0,0,0-.261.261v.522A.261.261,0,0,0,136.26,111.045Z" transform="translate(-133.13 -107.131)" fill="#e74c3c"/>
  <path id="Path_120" data-name="Path 120" d="M136.26,181.045h.522a.261.261,0,0,0,.261-.261v-.522a.261.261,0,0,0-.261-.261h-.522a.261.261,0,0,0-.261.261v.522A.261.261,0,0,0,136.26,181.045Z" transform="translate(-133.13 -175.305)" fill="#e74c3c"/>
  <path id="Path_121" data-name="Path 121" d="M136.26,251.043h.522a.261.261,0,0,0,.261-.261v-.522a.261.261,0,0,0-.261-.261h-.522a.261.261,0,0,0-.261.261v.522A.261.261,0,0,0,136.26,251.043Z" transform="translate(-133.13 -243.478)" fill="#e74c3c"/>
  <path id="Path_122" data-name="Path 122" d="M136.26,321.043h.522a.261.261,0,0,0,.261-.261v-.522a.261.261,0,0,0-.261-.261h-.522a.261.261,0,0,0-.261.261v.522A.261.261,0,0,0,136.26,321.043Z" transform="translate(-133.13 -311.652)" fill="#e74c3c"/>
  <path id="Path_123" data-name="Path 123" d="M66.262,41.044h.522a.261.261,0,0,0,.261-.261v-.522A.261.261,0,0,0,66.784,40h-.522a.261.261,0,0,0-.261.261v.522A.261.261,0,0,0,66.262,41.044Z" transform="translate(-64.958 -38.958)" fill="#e74c3c"/>
  <path id="Path_124" data-name="Path 124" d="M66.262,111.045h.522a.261.261,0,0,0,.261-.261v-.522a.261.261,0,0,0-.261-.261h-.522a.261.261,0,0,0-.261.261v.522A.261.261,0,0,0,66.262,111.045Z" transform="translate(-64.958 -107.131)" fill="#e74c3c"/>
  <path id="Path_125" data-name="Path 125" d="M66.262,181.045h.522a.261.261,0,0,0,.261-.261v-.522a.261.261,0,0,0-.261-.261h-.522a.261.261,0,0,0-.261.261v.522A.261.261,0,0,0,66.262,181.045Z" transform="translate(-64.958 -175.305)" fill="#e74c3c"/>
  <path id="Path_126" data-name="Path 126" d="M66.262,251.043h.522a.261.261,0,0,0,.261-.261v-.522a.261.261,0,0,0-.261-.261h-.522a.261.261,0,0,0-.261.261v.522A.261.261,0,0,0,66.262,251.043Z" transform="translate(-64.958 -243.478)" fill="#e74c3c"/>
  <path id="Path_127" data-name="Path 127" d="M66.262,321.043h.522a.261.261,0,0,0,.261-.261v-.522a.261.261,0,0,0-.261-.261h-.522a.261.261,0,0,0-.261.261v.522A.261.261,0,0,0,66.262,321.043Z" transform="translate(-64.958 -311.652)" fill="#e74c3c"/>
  <path id="Path_128" data-name="Path 128" d="M206.784,40h-.522a.261.261,0,0,0-.261.261v.522a.261.261,0,0,0,.261.261h.522a.261.261,0,0,0,.261-.261v-.522A.261.261,0,0,0,206.784,40Z" transform="translate(-201.305 -38.958)" fill="#e74c3c"/>
  <path id="Path_129" data-name="Path 129" d="M206.784,110h-.522a.261.261,0,0,0-.261.261v.522a.261.261,0,0,0,.261.261h.522a.261.261,0,0,0,.261-.261v-.522A.261.261,0,0,0,206.784,110Z" transform="translate(-201.305 -107.13)" fill="#e74c3c"/>
  <path id="Path_130" data-name="Path 130" d="M206.784,180h-.522a.261.261,0,0,0-.261.261v.522a.261.261,0,0,0,.261.261h.522a.261.261,0,0,0,.261-.261v-.522A.261.261,0,0,0,206.784,180Z" transform="translate(-201.305 -175.304)" fill="#e74c3c"/>
  <path id="Path_131" data-name="Path 131" d="M206.784,250h-.522a.261.261,0,0,0-.261.261v.522a.261.261,0,0,0,.261.261h.522a.261.261,0,0,0,.261-.261v-.522A.261.261,0,0,0,206.784,250Z" transform="translate(-201.305 -243.478)" fill="#e74c3c"/>
  <path id="Path_132" data-name="Path 132" d="M206.784,320h-.522a.261.261,0,0,0-.261.261v.522a.261.261,0,0,0,.261.261h.522a.261.261,0,0,0,.261-.261v-.522A.261.261,0,0,0,206.784,320Z" transform="translate(-201.305 -311.652)" fill="#e74c3c"/>
  <path id="Path_133" data-name="Path 133" d="M391.783,180h-.522a.261.261,0,0,0-.261.261v.522a.261.261,0,0,0,.261.261h.522a.261.261,0,0,0,.261-.261v-.522A.261.261,0,0,0,391.783,180Z" transform="translate(-381.478 -175.304)" fill="#e74c3c"/>
  <path id="Path_134" data-name="Path 134" d="M391.783,250h-.522a.261.261,0,0,0-.261.261v.522a.261.261,0,0,0,.261.261h.522a.261.261,0,0,0,.261-.261v-.522A.261.261,0,0,0,391.783,250Z" transform="translate(-381.478 -243.478)" fill="#e74c3c"/>
  <path id="Path_135" data-name="Path 135" d="M391.783,320h-.522a.261.261,0,0,0-.261.261v.522a.261.261,0,0,0,.261.261h.522a.261.261,0,0,0,.261-.261v-.522A.261.261,0,0,0,391.783,320Z" transform="translate(-381.478 -311.652)" fill="#e74c3c"/>
  <path id="Path_136" data-name="Path 136" d="M321.785,180h-.522a.261.261,0,0,0-.261.261v.522a.261.261,0,0,0,.261.261h.522a.261.261,0,0,0,.261-.261v-.522A.261.261,0,0,0,321.785,180Z" transform="translate(-313.306 -175.304)" fill="#e74c3c"/>
  <path id="Path_137" data-name="Path 137" d="M321.785,250h-.522a.261.261,0,0,0-.261.261v.522a.261.261,0,0,0,.261.261h.522a.261.261,0,0,0,.261-.261v-.522A.261.261,0,0,0,321.785,250Z" transform="translate(-313.306 -243.478)" fill="#e74c3c"/>
  <path id="Path_138" data-name="Path 138" d="M321.785,320h-.522a.261.261,0,0,0-.261.261v.522a.261.261,0,0,0,.261.261h.522a.261.261,0,0,0,.261-.261v-.522A.261.261,0,0,0,321.785,320Z" transform="translate(-313.306 -311.652)" fill="#e74c3c"/>
</svg>
