<svg id="company" xmlns="http://www.w3.org/2000/svg" width="42" height="42" viewBox="0 0 42 42">
  <g id="Group_119" data-name="Group 119" transform="translate(20.19)">
    <g id="Group_118" data-name="Group 118">
      <path id="Path_164" data-name="Path 164" d="M247.53.24a.82.82,0,0,0-1.4.58.82.82,0,1,0,1.4-.58Z" transform="translate(-246.13)" fill="#3dae59"/>
    </g>
  </g>
  <g id="Group_121" data-name="Group 121">
    <g id="Group_120" data-name="Group 120">
      <path id="Path_165" data-name="Path 165" d="M41.76,19.6,33.3,11.14V6.07A1.642,1.642,0,0,0,31.664,4.43H30.023V.82A.82.82,0,0,0,29.2,0H24.09a.82.82,0,0,0,0,1.641h4.293V4.43H13.617V1.641h4.32a.82.82,0,0,0,0-1.641H12.8a.82.82,0,0,0-.82.82V4.43H10.336A1.642,1.642,0,0,0,8.7,6.07V35.93h-1.8a.82.82,0,0,0-.82.82v3.609H1.641V21.82h5.25a.82.82,0,0,0,0-1.641H.82A.82.82,0,0,0,0,21V41.18A.82.82,0,0,0,.82,42H41.18a.82.82,0,0,0,.82-.82v-21A.82.82,0,0,0,41.76,19.6ZM25.648,6.07h6.016V12.3H25.648Zm0,7.875h6.016V20.18H25.648Zm0,7.875h6.016v6.234H25.648Zm0,7.875h6.016V35.93H25.648ZM17.992,6.07h6.016V12.3H17.992Zm0,7.875h6.016V20.18H17.992Zm0,7.875h6.016v6.234H17.992Zm0,7.875h6.016V35.93H17.992ZM10.336,6.07h6.016V12.3H10.336Zm0,7.875h6.016V20.18H10.336Zm0,7.875h6.016v6.234H10.336Zm0,7.875h6.016V35.93H10.336ZM34.289,40.359H7.711V37.57H34.289Zm6.07,0H35.93V36.75a.82.82,0,0,0-.82-.82H33.3V33.622h2.612a.82.82,0,0,0,0-1.641H33.3V29.688h2.612a.82.82,0,0,0,0-1.641H33.3V25.754h2.612a.82.82,0,0,0,0-1.641H33.3V21.82h2.612a.82.82,0,0,0,0-1.641H33.3V13.461l7.055,7.058Z" fill="#3dae59"/>
    </g>
  </g>
  <g id="Group_123" data-name="Group 123" transform="translate(4.348 32.621)">
    <g id="Group_122" data-name="Group 122">
      <path id="Path_166" data-name="Path 166" d="M54.4,397.91a.82.82,0,1,0,.24.58A.822.822,0,0,0,54.4,397.91Z" transform="translate(-53 -397.67)" fill="#3dae59"/>
    </g>
  </g>
  <g id="Group_125" data-name="Group 125" transform="translate(4.348 23.684)">
    <g id="Group_124" data-name="Group 124">
      <path id="Path_167" data-name="Path 167" d="M53.82,288.724a.82.82,0,0,0-.82.82v5.847a.82.82,0,0,0,1.641,0v-5.847A.82.82,0,0,0,53.82,288.724Z" transform="translate(-53 -288.724)" fill="#3dae59"/>
    </g>
  </g>
</svg>
