<svg width="97" height="56" viewBox="0 0 97 56" fill="none" xmlns="http://www.w3.org/2000/svg">
<g filter="url(#filter0_d_435_222)">
<path d="M7.34972 33.7156C7.34972 34.7598 7.34972 35.657 7.29309 36.1338C7.25871 36.4629 7.19076 36.7129 6.96346 36.7585C6.82913 36.7887 6.69185 36.8039 6.55415 36.8037C6.41785 36.8037 6.37215 36.8376 6.37215 36.8946C6.37215 36.9753 6.45304 37.008 6.59945 37.008C7.05446 37.008 7.77237 36.9741 8.03244 36.9741C8.35074 36.9741 9.06743 37.008 9.8177 37.008C9.94267 37.008 10.0337 36.9741 10.0337 36.8946C10.0337 36.8376 9.97705 36.8037 9.85167 36.8037C9.6576 36.8004 9.46392 36.7853 9.27168 36.7585C8.93032 36.7129 8.86238 36.4633 8.82678 36.1456C8.77016 35.6574 8.77016 34.7602 8.77016 33.716V29.0603L10.2031 29.0942C11.2143 29.1168 11.5225 29.435 11.5451 29.7302L11.5564 29.855C11.5678 30.025 11.5904 30.0819 11.6814 30.0819C11.7498 30.0819 11.7724 30.0136 11.7838 29.9002C11.7838 29.605 11.8177 28.8213 11.8177 28.583C11.8177 28.4126 11.8064 28.3444 11.7267 28.3444C11.6234 28.3575 11.5209 28.3765 11.4197 28.4013C11.1599 28.4392 10.8977 28.4582 10.6351 28.4583H6.13311C5.75778 28.4583 5.32421 28.4357 4.99579 28.4013C4.82877 28.3719 4.66501 28.3263 4.5068 28.2653C4.43845 28.2653 4.40448 28.3335 4.3701 28.4809C4.34745 28.5717 4.13147 29.605 4.13147 29.7863C4.13147 29.9111 4.15412 29.968 4.2338 29.968C4.30215 29.968 4.33613 29.9228 4.35877 29.832C4.40082 29.6898 4.46614 29.5555 4.5521 29.4346C4.72238 29.1847 4.997 29.1281 5.65505 29.1055L7.34931 29.0603L7.34972 33.7156Z" fill="white"/>
<path d="M15.4012 32.0355C15.3672 32.0355 15.3328 32.0129 15.3328 31.9547V31.7161C15.3328 29.9903 15.3328 29.6725 15.3555 29.3091C15.3781 28.9118 15.4691 28.7188 15.7761 28.663C15.8849 28.6427 15.9951 28.6314 16.1057 28.6291C16.2424 28.6291 16.3104 28.6065 16.3104 28.527C16.3104 28.4474 16.2295 28.4248 16.0718 28.4248C15.6269 28.4248 14.9118 28.4591 14.6388 28.4591C14.3318 28.4591 13.6151 28.4248 13.0011 28.4248C12.8418 28.4248 12.7625 28.4474 12.7625 28.527C12.7625 28.6065 12.8309 28.6291 12.9558 28.6291C13.1049 28.6262 13.2539 28.6376 13.4007 28.663C13.7761 28.7438 13.8671 28.9243 13.8897 29.3091C13.9124 29.6725 13.9124 29.9903 13.9124 31.7161V33.7144C13.9124 34.759 13.9124 35.6558 13.8553 36.1327C13.81 36.4618 13.753 36.7117 13.5257 36.7574C13.3914 36.7875 13.2541 36.8027 13.1164 36.8026C12.9801 36.8026 12.9344 36.8365 12.9344 36.8934C12.9344 36.9742 13.0153 37.0069 13.1617 37.0069C13.6167 37.0069 14.3346 36.973 14.5947 36.973C14.913 36.973 15.6297 37.0069 16.3686 37.0069C16.5049 37.0069 16.5959 36.973 16.5959 36.8934C16.5959 36.8365 16.5389 36.8026 16.4139 36.8026C16.2199 36.7992 16.0262 36.7841 15.8339 36.7574C15.493 36.7117 15.4246 36.4622 15.389 36.1444C15.332 35.6562 15.332 34.759 15.332 33.7148V32.7159C15.3306 32.7066 15.3313 32.6971 15.3343 32.6881C15.3372 32.6792 15.3422 32.6711 15.3488 32.6644C15.3555 32.6578 15.3636 32.6528 15.3726 32.6499C15.3815 32.6469 15.3911 32.6462 15.4004 32.6476H19.7446C19.7537 32.6472 19.7628 32.6487 19.7712 32.652C19.7797 32.6553 19.7874 32.6603 19.7938 32.6667C19.8003 32.6731 19.8053 32.6808 19.8086 32.6893C19.8119 32.6977 19.8134 32.7068 19.813 32.7159V33.7148C19.813 34.7594 19.813 35.6562 19.7559 36.1331C19.7102 36.4622 19.6536 36.7121 19.4263 36.7577C19.292 36.7879 19.1547 36.8031 19.017 36.803C18.8807 36.803 18.835 36.8369 18.835 36.8938C18.835 36.9746 18.9159 37.0073 19.0736 37.0073C19.5185 37.0073 20.2336 36.9734 20.4953 36.9734C20.8136 36.9734 21.5303 37.0073 22.2692 37.0073C22.4055 37.0073 22.4965 36.9734 22.4965 36.8938C22.4965 36.8369 22.4395 36.803 22.3145 36.803C22.1204 36.7996 21.9268 36.7845 21.7345 36.7577C21.3936 36.7121 21.3252 36.4626 21.2896 36.1448C21.233 35.6566 21.233 34.7594 21.233 33.7152V31.7169C21.233 29.9911 21.233 29.6733 21.2557 29.3099C21.2783 28.9126 21.3693 28.7196 21.6763 28.6639C21.7851 28.6436 21.8953 28.6322 22.0059 28.6299C22.1426 28.6299 22.2106 28.6073 22.2106 28.5278C22.2106 28.4482 22.1297 28.4256 21.9715 28.4256C21.5266 28.4256 20.8116 28.4599 20.5386 28.4599C20.2316 28.4599 19.5149 28.4256 18.9009 28.4256C18.742 28.4256 18.6623 28.4482 18.6623 28.5278C18.6623 28.6073 18.7306 28.6299 18.8556 28.6299C19.0047 28.6271 19.1536 28.6384 19.3005 28.6639C19.6759 28.7446 19.7669 28.9251 19.7895 29.3099C19.8122 29.6733 19.8122 29.9911 19.8122 31.7169V31.9547C19.8122 32.0112 19.7778 32.0355 19.7438 32.0355H15.4012Z" fill="white"/>
<path d="M24.9654 33.7156C24.9654 34.7602 24.9653 35.657 24.9083 36.1338C24.8626 36.4629 24.806 36.7129 24.5787 36.7585C24.4444 36.7887 24.3071 36.8038 24.1694 36.8037C24.0327 36.8037 23.9874 36.8376 23.9874 36.8946C23.9874 36.9753 24.0683 37.008 24.2147 37.008C24.442 37.008 24.7376 36.9854 24.9993 36.9854C25.2723 36.9741 25.5223 36.9741 25.6464 36.9741C25.9878 36.9741 26.3401 36.9854 26.8291 37.008C27.3181 37.0193 27.9438 37.0424 28.7967 37.0424C29.2287 37.0424 29.331 37.0424 29.4111 36.7472C29.4902 36.3311 29.5395 35.91 29.5587 35.487C29.5587 35.3735 29.5587 35.2827 29.4677 35.2827C29.3868 35.2827 29.3654 35.3279 29.3428 35.4531C29.2619 35.9186 29.1268 36.1569 28.8307 36.2933C28.4861 36.4053 28.1235 36.4515 27.7618 36.4294C26.6018 36.4294 26.4198 36.259 26.3971 35.4757C26.3858 35.1466 26.3971 34.1028 26.3971 33.716V32.8192C26.3971 32.7509 26.4084 32.7057 26.4655 32.7057C26.7385 32.7057 27.8641 32.717 28.0805 32.74C28.5011 32.7852 28.6605 32.9556 28.7175 33.1842C28.742 33.3192 28.7573 33.4557 28.7632 33.5928C28.7611 33.6067 28.7624 33.6209 28.7668 33.6342C28.7712 33.6475 28.7787 33.6596 28.7886 33.6695C28.7986 33.6795 28.8107 33.6869 28.824 33.6914C28.8374 33.6958 28.8516 33.697 28.8655 33.695C28.9678 33.695 28.9678 33.5702 28.9678 33.4793C28.9678 33.3986 29.0018 32.9459 29.0131 32.7186C29.0588 32.1396 29.1041 31.9579 29.1041 31.8896C29.1041 31.8214 29.0702 31.7988 29.0232 31.7988C28.9666 31.7988 28.9209 31.8557 28.8412 31.9466C28.6868 32.0691 28.4921 32.1299 28.2952 32.117C28.0335 32.1396 26.7259 32.1396 26.4752 32.1396C26.4068 32.1396 26.3943 32.0939 26.3943 32.0148V29.1386C26.3943 29.0579 26.4169 29.0252 26.4752 29.0252C26.7025 29.0252 27.8964 29.0478 28.0902 29.0704C28.6588 29.1386 28.7725 29.2747 28.8522 29.479C28.8981 29.6103 28.9212 29.7486 28.9205 29.8877C28.9205 29.9898 28.9432 30.0463 29.0228 30.0463C29.1025 30.0463 29.1252 29.9785 29.1365 29.9216C29.1591 29.7855 29.1822 29.286 29.1935 29.1722C29.2112 28.9249 29.2416 28.6786 29.2845 28.4344C29.2845 28.3775 29.2732 28.3323 29.2162 28.3323C29.1543 28.3421 29.0934 28.3574 29.0342 28.3779C28.8725 28.4093 28.7093 28.4319 28.5452 28.4457C28.3292 28.457 26.0659 28.457 25.7023 28.457C25.5429 28.457 25.2816 28.4457 24.9856 28.4344C24.7025 28.4344 24.3716 28.4231 24.0646 28.4231C23.8939 28.4231 23.8143 28.4457 23.8143 28.5253C23.8143 28.6048 23.8826 28.6275 24.0076 28.6275C24.1566 28.6246 24.3056 28.6359 24.4525 28.6614C24.8278 28.7421 24.9188 28.9226 24.9415 29.3074C24.9641 29.6708 24.9641 29.9886 24.9641 31.7144L24.9654 33.7156Z" fill="white"/>
<path d="M37.905 37.277C39.7289 37.342 41.5325 36.8777 43.0974 35.9404C44.0543 35.338 44.8395 34.4995 45.3772 33.5058C45.9149 32.5121 46.187 31.3969 46.1672 30.2676C46.1672 27.1702 44.763 24.9207 40.8115 21.9537L39.897 21.2672C37.1871 19.2132 36.4353 18.0721 36.4353 16.5724C36.4353 14.6161 37.905 13.2141 40.3217 13.2141C42.4442 13.2141 43.3915 14.1925 43.8809 14.8119C44.3729 15.4284 44.6687 16.1778 44.7302 16.9637C44.7302 17.3549 44.8281 17.5504 45.0566 17.5504C45.3179 17.5504 45.4158 17.2895 45.4158 16.5724C45.4158 14.0286 45.5464 13.0837 45.5464 12.6601C45.5464 12.432 45.3846 12.3343 45.089 12.2689C43.6739 11.8839 42.2121 11.6975 40.7455 11.7149C36.2063 11.7149 33.2016 14.2906 33.2016 17.8766C33.2016 20.5174 34.4425 22.7996 38.0349 25.6035L39.537 26.7773C42.2469 28.8964 42.7375 30.3965 42.7375 31.9938C42.7375 33.7216 41.3005 35.7087 38.3613 35.7087C36.3366 35.7087 34.4098 34.8284 33.691 32.4158C33.5251 31.8757 33.4264 31.3172 33.397 30.753C33.397 30.4921 33.3642 30.1986 33.0706 30.1986C32.8093 30.1986 32.7114 30.5572 32.6787 31.0465C32.6459 31.5682 32.5169 33.5246 32.5169 35.3174C32.5169 36.0345 32.6148 36.1977 33.1373 36.4258C34.6468 37.0487 36.2734 37.338 37.9055 37.2737" fill="white"/>
<path d="M55.8988 26.8767C55.7682 26.8767 55.737 26.779 55.7682 26.6485L58.7729 18.6608C58.8052 18.5304 58.8708 18.3673 58.9686 18.3673C59.0665 18.3673 59.0993 18.5288 59.1304 18.6608L62.0696 26.6813C62.1023 26.779 62.0696 26.8771 61.9078 26.8771L55.8988 26.8767ZM62.5282 28.5068C62.6007 28.5013 62.6728 28.521 62.7323 28.5626C62.7918 28.6042 62.835 28.6651 62.8546 28.7349L65.467 35.4511C65.5028 35.5187 65.5236 35.5931 65.5279 35.6695C65.5323 35.7458 65.5201 35.8221 65.4922 35.8933C65.4642 35.9645 65.4213 36.0288 65.3662 36.0819C65.3111 36.135 65.2452 36.1756 65.173 36.2009C64.8466 36.2336 64.7155 36.2986 64.7155 36.4945C64.7155 36.7226 65.1074 36.7226 65.6951 36.7553C68.3079 36.8207 70.6917 36.8207 71.8671 36.8207C73.0756 36.8207 73.3692 36.7553 73.3692 36.4949C73.3692 36.2667 73.2075 36.234 72.9446 36.234C72.4843 36.2347 72.025 36.191 71.573 36.1036C70.8855 35.9421 69.9403 35.4842 68.6994 32.5503C66.6092 27.5946 61.384 14.5535 60.6006 12.7603C60.2742 12.0105 60.078 11.7169 59.7844 11.7169C59.4576 11.7169 59.2619 12.0755 58.8699 13.0212L50.6737 33.2339C50.0205 34.864 49.4 35.9724 47.8979 36.1682C47.5622 36.2073 47.2247 36.2291 46.8868 36.2336C46.6255 36.2336 46.4948 36.299 46.4948 36.4945C46.4948 36.7553 46.6906 36.8203 47.1153 36.8203C48.814 36.8203 50.6098 36.7226 50.9689 36.7226C51.98 36.7226 53.3855 36.8203 54.4306 36.8203C54.7898 36.8203 54.986 36.7549 54.986 36.4945C54.986 36.299 54.8881 36.2336 54.4962 36.2336H54.0064C52.9952 36.2336 52.7 35.8097 52.7 35.2242C52.754 34.539 52.9194 33.8672 53.1898 33.2351L54.9532 28.7684C55.0187 28.573 55.0838 28.5076 55.2472 28.5076L62.5282 28.5068Z" fill="white"/>
<path d="M78.1944 31.0498C78.1944 31.5715 78.1944 32.9408 78.0965 34.31C78.0314 35.2557 77.7374 35.9728 77.0854 36.1032C76.7103 36.1884 76.327 36.2321 75.9424 36.2336C75.5832 36.2336 75.4198 36.3314 75.4198 36.4945C75.4198 36.7553 75.6811 36.8203 76.1381 36.8203C77.3466 36.8203 79.4041 36.7226 80.2203 36.7226C81.102 36.7226 83.1595 36.8203 85.2169 36.8203C85.6416 36.8203 85.9045 36.7226 85.9045 36.4945C85.9045 36.333 85.7427 36.2336 85.382 36.2336C84.8356 36.2226 84.2903 36.1791 83.7492 36.1032C82.7696 35.9728 82.4755 35.2553 82.4104 34.31C82.3125 32.9408 82.3125 31.5715 82.3125 31.0498V28.3764C82.2412 27.2672 82.4083 26.1556 82.8024 25.1162C83.39 23.7142 87.9624 16.0524 89.0399 14.7486C89.7582 13.8683 90.1177 13.477 90.8033 13.1512C91.2488 12.9203 91.7386 12.7869 92.2399 12.7599C92.599 12.7599 92.8603 12.6622 92.8603 12.4341C92.8603 12.2382 92.6318 12.1732 92.2722 12.1732C91.6518 12.1732 89.4965 12.2709 88.7782 12.2709C87.8309 12.2709 86.7858 12.1732 85.7084 12.1732C85.3164 12.1732 85.153 12.2382 85.153 12.4668C85.153 12.6622 85.4471 12.7276 85.7407 12.7926C85.9375 12.8158 86.1182 12.913 86.2459 13.0643C86.3736 13.2157 86.4388 13.4098 86.4283 13.6075C86.3959 14.1984 86.2403 14.776 85.9712 15.3034C85.5142 16.3128 81.4009 23.4869 81.0725 24.2674C80.5499 23.3545 75.9764 15.4972 75.5209 14.5192C75.3187 14.179 75.1856 13.8024 75.129 13.4108C75.1262 13.2755 75.17 13.1433 75.2533 13.0365C75.3365 12.9297 75.454 12.8547 75.5861 12.8241C76.0759 12.6937 76.3044 12.6626 76.3044 12.4655C76.3044 12.2685 76.1426 12.172 75.8146 12.172C74.3448 12.172 73.006 12.2697 72.3201 12.2697C71.2422 12.2697 68.7933 12.172 68.2052 12.172C67.8133 12.172 67.5847 12.2697 67.5847 12.4655C67.5847 12.6937 67.8133 12.7591 68.0745 12.7591C68.5572 12.7989 69.0253 12.9436 69.446 13.1831C70.3541 13.8121 71.1213 14.6225 71.6993 15.563C72.8422 17.2589 77.2184 24.431 77.447 24.9526C77.9875 26.0105 78.2462 27.1894 78.198 28.3759L78.1944 31.0498Z" fill="white"/>
<path d="M6.71265 43.6205C6.71265 43.5397 6.7353 43.5183 6.79354 43.5183C6.98687 43.5183 8.19255 43.5183 8.47648 43.5527C8.60183 43.5595 8.72271 43.6015 8.82528 43.6738C8.92786 43.746 9.00797 43.8457 9.05647 43.9613C9.09606 44.0748 9.11908 44.1934 9.12482 44.3134C9.12482 44.3941 9.14747 44.4725 9.21582 44.4725C9.32947 44.4725 9.32947 44.359 9.32947 44.2569C9.32947 44.1761 9.35213 43.6552 9.37477 43.4279C9.40915 43.0758 9.46578 42.7923 9.46578 42.7241C9.46578 42.6558 9.44313 42.6219 9.39742 42.6219C9.32948 42.6219 9.30642 42.6676 9.2498 42.7354C9.1896 42.8048 9.11413 42.8593 9.0293 42.8948C8.94447 42.9302 8.85258 42.9456 8.76081 42.9397C8.60146 42.951 8.44251 42.951 8.24918 42.951L6.79314 42.9623C6.72479 42.9623 6.71225 42.9284 6.71225 42.8602V40.0219C6.71225 39.8972 6.74663 39.8628 6.81458 39.8628L8.56587 39.8968C8.70998 39.8824 8.85533 39.9064 8.98716 39.9663C9.119 40.0261 9.23263 40.1197 9.31653 40.2376C9.36763 40.3754 9.39086 40.522 9.38488 40.6688C9.39621 40.7936 9.41886 40.8505 9.49854 40.8505C9.57822 40.8505 9.60086 40.7823 9.61219 40.6918C9.63484 40.5553 9.65789 39.8842 9.66881 39.772C9.70319 39.4768 9.75981 39.3408 9.75981 39.2612C9.75981 39.2043 9.72584 39.1591 9.67892 39.1591C9.6223 39.1591 9.56527 39.2047 9.49692 39.2273C9.34356 39.2591 9.18722 39.2744 9.03058 39.2729C8.7689 39.2842 6.46068 39.2842 6.02832 39.2842C5.86896 39.2842 5.60768 39.2729 5.31203 39.2616C5.01637 39.2616 4.68674 39.2503 4.39068 39.2503C4.22 39.2503 4.129 39.2729 4.129 39.3638C4.129 39.432 4.20989 39.4546 4.32233 39.4546C4.47138 39.4519 4.62036 39.4634 4.76723 39.4889C5.14256 39.5697 5.23356 39.7498 5.25621 40.135C5.27886 40.4984 5.27886 40.8162 5.27886 42.542V44.5419C5.27886 45.6322 5.27886 46.4833 5.22224 46.9602C5.17653 47.2893 5.11991 47.5392 4.89261 47.5845C4.75829 47.6148 4.62101 47.6301 4.4833 47.6301C4.35832 47.6301 4.31262 47.664 4.31262 47.7209C4.31262 47.8118 4.39351 47.8344 4.55125 47.8344C4.98321 47.8344 5.6999 47.8001 5.99556 47.8001C6.29121 47.8001 7.00669 47.8344 7.7242 47.8344C7.89488 47.8344 7.97455 47.8001 7.97455 47.7209C7.97455 47.664 7.92885 47.6301 7.78122 47.6301C7.59093 47.6262 7.40104 47.611 7.21256 47.5845C6.8712 47.5388 6.80325 47.2893 6.76766 46.9602C6.71063 46.4833 6.71063 45.6318 6.71063 44.5419L6.71265 43.6205Z" fill="white"/>
<path d="M16.1745 47.4242C13.9905 47.4242 12.6833 45.551 12.6833 43.1893C12.6833 40.3627 14.1733 39.6359 15.4809 39.6359C17.3458 39.6359 18.8128 41.2139 18.8128 43.757C18.8128 47.0381 16.9705 47.4242 16.1745 47.4242ZM15.6969 47.9919C18.5855 47.9919 20.4051 45.937 20.4051 43.337C20.4051 40.7371 18.6425 39.0908 15.8109 39.0908C12.3993 39.0908 11.1144 41.6 11.1144 43.5414C11.114 45.551 12.4329 47.9919 15.6969 47.9919Z" fill="white"/>
<path d="M22.4047 44.1995C22.4047 45.8458 22.8367 46.686 23.4159 47.2081C24.1302 47.7743 25.0305 48.0537 25.9405 47.9915C26.8044 48.0299 27.6504 47.7375 28.3057 47.1742C29.261 46.3566 29.386 45.0168 29.386 43.7566V42.5416C29.386 40.8158 29.386 40.498 29.4087 40.1346C29.4313 39.7373 29.5223 39.5443 29.8293 39.4885C29.9378 39.4665 30.0482 39.455 30.1589 39.4542C30.2956 39.4542 30.3636 39.4316 30.3636 39.3521C30.3636 39.2725 30.2827 39.2499 30.1249 39.2499C29.68 39.2499 28.965 39.2838 28.8283 39.2838C28.8169 39.2838 28.1002 39.2499 27.5207 39.2499C27.3613 39.2499 27.2816 39.2725 27.2816 39.3521C27.2816 39.4316 27.35 39.4542 27.475 39.4542C27.6122 39.4529 27.7492 39.4644 27.8843 39.4885C28.2596 39.5693 28.3506 39.7498 28.3733 40.1346C28.3959 40.498 28.3959 40.8158 28.3959 42.5416V43.9609C28.3959 45.1319 28.3615 46.1522 27.7362 46.7765C27.3137 47.1781 26.7503 47.3982 26.167 47.3894C25.652 47.4132 25.1461 47.2476 24.7453 46.9239C24.188 46.4696 23.8583 45.7771 23.8583 44.1309V42.5412C23.8583 40.8154 23.8583 40.4976 23.881 40.1342C23.9036 39.7369 23.9946 39.5439 24.3016 39.4881C24.4101 39.4661 24.5205 39.4546 24.6312 39.4538C24.7449 39.4538 24.8132 39.4312 24.8132 39.3517C24.8132 39.2721 24.7324 39.2495 24.5629 39.2495C24.1536 39.2495 23.4369 39.2834 23.1639 39.2834C22.8229 39.2834 22.1062 39.2495 21.5036 39.2495C21.3329 39.2495 21.2532 39.2721 21.2532 39.3517C21.2532 39.4312 21.3216 39.4538 21.4466 39.4538C21.5956 39.4511 21.7446 39.4626 21.8915 39.4881C22.2668 39.5689 22.3578 39.7494 22.3805 40.1342C22.4031 40.4976 22.4031 40.8154 22.4031 42.5412L22.4047 44.1995Z" fill="white"/>
<path d="M33.1001 41.5544H33.1345C33.3392 41.77 34.6015 43.1554 35.8391 44.3809C37.0217 45.5518 38.4773 47.0374 39.192 47.7186C39.317 47.8433 39.4537 47.9685 39.5787 47.9685C39.681 47.9685 39.7267 47.8663 39.7267 47.6164L39.8517 40.4524C39.863 39.8169 39.954 39.5782 40.2723 39.4874C40.3839 39.4601 40.4988 39.4486 40.6137 39.453C40.7501 39.453 40.8183 39.419 40.8183 39.3509C40.8183 39.26 40.7047 39.2487 40.5566 39.2487C39.9993 39.2487 39.5674 39.2826 39.4424 39.2826C39.2033 39.2826 38.6577 39.2487 38.0672 39.2487C37.8966 39.2487 37.7716 39.26 37.7716 39.3509C37.7716 39.4191 37.8169 39.453 37.9536 39.453C38.1562 39.4425 38.3591 39.4656 38.5542 39.5213C38.8272 39.6348 38.9295 39.8504 38.9409 40.5433L39.0553 45.6403H38.9983C38.805 45.4586 37.2717 43.8232 36.4984 43.0516C34.8401 41.4053 33.1114 39.5887 32.9747 39.4413C32.7794 39.237 32.6771 39.0892 32.5521 39.0892C32.4384 39.0892 32.4041 39.2483 32.4041 39.4753L32.3017 46.1624C32.2904 47.15 32.2447 47.4795 31.949 47.5704C31.7816 47.6111 31.6097 47.6302 31.4374 47.6273C31.3238 47.6273 31.2554 47.6499 31.2554 47.7182C31.2554 47.8203 31.3577 47.8316 31.5058 47.8316C32.0971 47.8316 32.6318 47.7973 32.7341 47.7973C32.9521 47.7973 33.4071 47.8316 34.146 47.8316C34.305 47.8316 34.4077 47.809 34.4077 47.7182C34.4077 47.6499 34.3398 47.6273 34.2144 47.6273C34.0142 47.6333 33.8143 47.606 33.6231 47.5465C33.3958 47.4658 33.2477 47.1718 33.2251 46.2863L33.1001 41.5544Z" fill="white"/>
<path d="M44.7759 42.3602C44.7759 41.4634 44.7759 40.4757 44.7873 40.0897C44.7796 40.0419 44.789 39.993 44.814 39.9514C44.8389 39.9099 44.8777 39.8785 44.9236 39.8628C45.1658 39.8057 45.4141 39.7786 45.6629 39.782C46.8471 39.7217 48.0074 40.1297 48.8925 40.9175C49.2575 41.2921 49.5425 41.7368 49.7303 42.2247C49.918 42.7126 50.0045 43.2334 49.9845 43.7557C49.9845 44.9267 49.7572 45.9583 49.0292 46.5822C48.3469 47.1725 47.5731 47.3999 46.4136 47.3999C45.5153 47.3999 45.0716 47.1612 44.9236 46.9456C44.8312 46.6676 44.7889 46.3755 44.7986 46.0827C44.7873 45.8671 44.7759 44.9925 44.7759 43.7892V42.3602ZM43.3543 44.5407C43.3543 45.5852 43.3543 46.4821 43.2973 46.9589C43.2515 47.288 43.1949 47.538 42.9672 47.5832C42.8329 47.6135 42.6956 47.6288 42.5579 47.6288C42.4216 47.6288 42.3759 47.6627 42.3759 47.7197C42.3759 47.8004 42.4568 47.8331 42.6032 47.8331C42.8305 47.8331 43.1262 47.8105 43.3878 47.8105C43.6609 47.7992 43.9108 47.7992 44.035 47.7992C44.3181 47.7992 44.7173 47.8335 45.1492 47.8675C45.5812 47.9014 46.0475 47.9357 46.4573 47.9357C48.5604 47.9357 49.7439 47.1281 50.2668 46.5959C51.0783 45.742 51.5232 44.6052 51.5065 43.4282C51.5339 42.3594 51.1375 41.323 50.4035 40.5444C49.1639 39.2503 47.2649 39.2502 45.8433 39.2502C45.161 39.2502 44.4447 39.2842 44.092 39.2842C43.7737 39.2842 43.057 39.2502 42.4544 39.2502C42.2837 39.2502 42.204 39.2729 42.204 39.3524C42.204 39.4319 42.2724 39.4546 42.3973 39.4546C42.5464 39.4518 42.6954 39.4633 42.8422 39.4889C43.2176 39.5696 43.3086 39.7501 43.3312 40.1349C43.3539 40.4984 43.3539 40.8161 43.3539 42.5419L43.3543 44.5407Z" fill="white"/>
<path d="M54.681 44.3703C54.6357 44.3703 54.624 44.336 54.6357 44.2896L55.6821 41.5079C55.6934 41.4623 55.7165 41.4057 55.7504 41.4057C55.7844 41.4057 55.7961 41.4623 55.8075 41.5079L56.8311 44.3009C56.8425 44.3348 56.8311 44.3691 56.7741 44.3691L54.681 44.3703ZM56.9897 44.9381C57.0151 44.9363 57.0403 44.9433 57.061 44.9581C57.0818 44.9728 57.0967 44.9943 57.1033 45.0188L58.0129 47.3576C58.0255 47.3811 58.0327 47.407 58.0343 47.4336C58.0358 47.4602 58.0316 47.4868 58.0219 47.5116C58.0121 47.5364 57.9972 47.5589 57.978 47.5774C57.9588 47.5959 57.9358 47.61 57.9106 47.6188C57.797 47.6301 57.7513 47.6527 57.7513 47.721C57.7513 47.8017 57.8876 47.8017 58.0926 47.8118C59.0022 47.8344 59.8318 47.8344 60.2419 47.8344C60.6625 47.8344 60.7649 47.8118 60.7649 47.721C60.7649 47.6402 60.7078 47.6301 60.6168 47.6301C60.4565 47.6302 60.2966 47.615 60.1392 47.5845C59.9001 47.5276 59.5705 47.3689 59.1385 46.3469C58.4105 44.6211 56.5905 40.0797 56.3183 39.4555C56.2046 39.1946 56.1363 39.092 56.0352 39.092C55.9215 39.092 55.8532 39.2168 55.7169 39.5463L52.863 46.5839C52.6357 47.1516 52.4181 47.5377 51.8964 47.6059C51.7793 47.6194 51.6616 47.627 51.5437 47.6285C51.4527 47.6285 51.407 47.6511 51.407 47.7193C51.407 47.8102 51.4753 47.8328 51.623 47.8328C52.2143 47.8328 52.8396 47.7985 52.9649 47.7985C53.3176 47.7985 53.8066 47.8328 54.1702 47.8328C54.2952 47.8328 54.3635 47.8102 54.3635 47.7193C54.3635 47.6511 54.3292 47.6285 54.1929 47.6285H54.0222C53.6695 47.6285 53.5672 47.4807 53.5672 47.2764C53.5861 47.0378 53.6437 46.804 53.7379 46.5839L54.3518 45.0285C54.3745 44.9603 54.3971 44.9377 54.4542 44.9377L56.9897 44.9381Z" fill="white"/>
<path d="M62.7321 44.5402C62.7321 45.5848 62.7321 46.4817 62.675 46.9585C62.6411 47.2876 62.5727 47.5376 62.3454 47.5832C62.2111 47.6135 62.0738 47.6288 61.9361 47.6288C61.7994 47.6288 61.7541 47.6627 61.7541 47.7197C61.7541 47.8004 61.835 47.8331 61.9814 47.8331C62.4364 47.8331 63.1543 47.7988 63.4144 47.7988C63.7327 47.7988 64.4494 47.8331 65.1997 47.8331C65.3246 47.8331 65.4156 47.7988 65.4156 47.7197C65.4156 47.6627 65.3586 47.6288 65.2336 47.6288C65.0396 47.6253 64.8459 47.6101 64.6536 47.5832C64.3127 47.5376 64.2443 47.288 64.2087 46.9702C64.1521 46.4821 64.1521 45.5852 64.1521 44.5407V39.8854L65.5851 39.9193C66.5962 39.9419 66.9044 40.2597 66.9271 40.5549L66.9384 40.6796C66.9497 40.85 66.9728 40.9066 67.0634 40.9066C67.1317 40.9066 67.1544 40.8387 67.1657 40.7249C67.1657 40.4297 67.2001 39.6464 67.2001 39.4077C67.2001 39.2373 67.1888 39.1695 67.1091 39.1695C67.0057 39.1826 66.9033 39.2016 66.8021 39.2264C66.5423 39.2642 66.28 39.2833 66.0175 39.2833H61.5155C61.1401 39.2833 60.7066 39.2607 60.3782 39.2264C60.2112 39.1969 60.0474 39.1513 59.8892 39.0903C59.8208 39.0903 59.7868 39.1582 59.7529 39.306C59.7302 39.3968 59.5138 40.4301 59.5138 40.6118C59.5138 40.7366 59.5365 40.7935 59.6162 40.7935C59.6845 40.7935 59.7185 40.7479 59.7411 40.657C59.7832 40.5149 59.8485 40.3806 59.9345 40.2597C60.1051 40.0102 60.3794 39.9532 61.0374 39.9306L62.7321 39.8854V44.5402Z" fill="white"/>
<path d="M69.294 44.5403C69.294 45.6414 69.294 46.5386 69.237 47.0155C69.2026 47.3446 69.1346 47.5376 68.9073 47.5832C68.7729 47.6135 68.6355 47.6288 68.4976 47.6288C68.3613 47.6288 68.3156 47.6627 68.3156 47.7197C68.3156 47.8004 68.3965 47.8331 68.5429 47.8331C68.9979 47.8331 69.7158 47.7988 69.9759 47.7988C70.2833 47.7988 70.9996 47.8331 71.7498 47.8331C71.8748 47.8331 71.9658 47.7988 71.9658 47.7197C71.9658 47.6627 71.9088 47.6288 71.7838 47.6288C71.5897 47.6254 71.396 47.6101 71.2038 47.5832C70.8628 47.538 70.7832 47.3332 70.7488 47.0268C70.7031 46.5386 70.7031 45.6414 70.7031 44.5403V42.5419C70.7031 40.8161 70.7031 40.4984 70.7257 40.1349C70.7484 39.7376 70.8394 39.5446 71.1464 39.4889C71.2589 39.4673 71.3732 39.4558 71.4877 39.4546C71.6014 39.4546 71.6698 39.432 71.6698 39.3411C71.6698 39.2729 71.5787 39.2502 71.4307 39.2502C70.9988 39.2502 70.3277 39.2842 70.0434 39.2842C69.7138 39.2842 68.9971 39.2502 68.5651 39.2502C68.3831 39.2502 68.2921 39.2729 68.2921 39.3411C68.2921 39.432 68.3605 39.4546 68.4742 39.4546C68.612 39.4523 68.7495 39.4676 68.8834 39.5002C69.1338 39.5571 69.2475 39.7501 69.2701 40.1357C69.2928 40.4992 69.2928 40.8169 69.2928 42.5427L69.294 44.5403Z" fill="white"/>
<path d="M78.1414 47.4242C75.9573 47.4242 74.6501 45.551 74.6501 43.1893C74.6501 40.3627 76.1401 39.6359 77.4477 39.6359C79.3127 39.6359 80.7796 41.2139 80.7796 43.757C80.7796 47.0381 78.9374 47.4242 78.1414 47.4242ZM77.6637 47.9919C80.5523 47.9919 82.3716 45.937 82.3716 43.337C82.3716 40.7371 80.609 39.0908 77.7774 39.0908C74.3658 39.0908 73.0808 41.6 73.0808 43.5414C73.0808 45.551 74.4002 47.9919 77.6637 47.9919Z" fill="white"/>
<path d="M85.2647 41.5544H85.2986C85.5033 41.77 86.7656 43.1554 88.0032 44.3809C89.1858 45.5518 90.6415 47.0374 91.3562 47.7186C91.4811 47.8433 91.6178 47.9685 91.7428 47.9685C91.8451 47.9685 91.8908 47.8663 91.8908 47.6164L92.0158 40.4524C92.0271 39.8169 92.1181 39.5782 92.4364 39.4874C92.5481 39.4601 92.663 39.4486 92.7778 39.453C92.9142 39.453 92.9825 39.419 92.9825 39.3509C92.9825 39.26 92.8688 39.2487 92.7208 39.2487C92.1634 39.2487 91.7315 39.2826 91.6061 39.2826C91.3675 39.2826 90.8215 39.2487 90.231 39.2487C90.0603 39.2487 89.9353 39.26 89.9353 39.3509C89.9353 39.4191 89.981 39.453 90.1173 39.453C90.3199 39.4425 90.5229 39.4656 90.7179 39.5213C90.9909 39.6348 91.0933 39.8504 91.1046 40.5433L91.2199 45.6403H91.1628C90.9695 45.4586 89.4358 43.8232 88.6625 43.0516C87.0042 41.4053 85.2756 39.5887 85.1393 39.4413C84.9439 39.237 84.8416 39.0892 84.7166 39.0892C84.603 39.0892 84.569 39.2483 84.569 39.4753L84.4667 46.1624C84.4554 47.15 84.4097 47.4795 84.114 47.5704C83.9466 47.6111 83.7746 47.6302 83.6024 47.6273C83.4887 47.6273 83.4203 47.6499 83.4203 47.7182C83.4203 47.8203 83.5227 47.8316 83.6707 47.8316C84.262 47.8316 84.7967 47.7973 84.899 47.7973C85.117 47.7973 85.5717 47.8316 86.311 47.8316C86.4704 47.8316 86.5727 47.809 86.5727 47.7182C86.5727 47.6499 86.5043 47.6273 86.3794 47.6273C86.1791 47.6333 85.9793 47.606 85.788 47.5465C85.5607 47.4658 85.4127 47.1718 85.39 46.2863L85.2647 41.5544Z" fill="white"/>
<mask id="mask0_435_222" style="mask-type:luminance" maskUnits="userSpaceOnUse" x="4" y="6" width="27" height="19">
<path fill-rule="evenodd" clip-rule="evenodd" d="M30.3413 24.7769C30.3296 24.4882 30.948 17.579 23.5299 16.7513C19.2775 16.1928 18.0835 16.7513 12.3613 13.3817C12.7577 18.4694 19.7026 19.8144 19.7026 19.8144C19.7026 19.8144 10.9886 23.9673 7.69713 18.5279C4.67303 12.3678 8.1845 8.02261 4.50194 6.45874C4.97192 9.10354 0.985614 19.8568 9.78655 23.8555C13.548 25.188 18.2077 25.1577 21.5639 24.6542C24.4734 24.174 27.4454 24.215 30.3405 24.7753" fill="white"/>
</mask>
<g mask="url(#mask0_435_222)">
<path d="M30.9501 6.45911H0.987671V25.1892H30.9501V6.45911Z" fill="white"/>
</g>
<mask id="mask1_435_222" style="mask-type:luminance" maskUnits="userSpaceOnUse" x="6" y="7" width="12" height="14">
<path fill-rule="evenodd" clip-rule="evenodd" d="M6.83442 7.59985C7.34969 10.8419 5.68657 16.8756 9.76631 19.7215C12.4762 21.5103 16.7027 20.4322 17.4465 20.1035C17.4465 20.1972 10.4033 20.7742 9.19239 17.2403C7.04514 12.3141 10.7556 8.94083 6.83401 7.60025" fill="white"/>
</mask>
<g mask="url(#mask1_435_222)">
<path d="M17.4469 7.59985H5.68658V21.5103H17.4469V7.59985Z" fill="white"/>
</g>
<mask id="mask2_435_222" style="mask-type:luminance" maskUnits="userSpaceOnUse" x="4" y="0" width="27" height="19">
<path fill-rule="evenodd" clip-rule="evenodd" d="M4.30535 0.197665C4.31708 0.486373 3.69866 7.39597 11.1168 8.22333C15.3692 8.78136 16.5627 8.22333 22.2854 11.5929C21.889 6.50522 14.9441 5.1602 14.9441 5.1602C14.9441 5.1602 23.6581 1.00726 26.9491 6.44667C29.9733 12.6068 26.4638 16.952 30.1443 18.5159C29.6744 15.871 33.6607 5.1178 24.8597 1.11911C21.0983 -0.213391 16.4386 -0.183105 13.0824 0.320417C10.1729 0.800692 7.20089 0.759672 4.30575 0.199279" fill="white"/>
</mask>
<g mask="url(#mask2_435_222)">
<path d="M33.6578 -0.214233H3.6958V18.5158H33.6578V-0.214233Z" fill="white"/>
</g>
<mask id="mask3_435_222" style="mask-type:luminance" maskUnits="userSpaceOnUse" x="17" y="4" width="11" height="14">
<path fill-rule="evenodd" clip-rule="evenodd" d="M27.8115 17.3752C27.2962 14.1331 28.9593 8.09936 24.8796 5.25347C22.1697 3.4647 17.9428 4.54281 17.1994 4.87149C17.1994 4.77781 24.2426 4.2008 25.4535 7.73515C27.6004 12.6613 23.8903 16.0346 27.8119 17.3752" fill="white"/>
</mask>
<g mask="url(#mask3_435_222)">
<path d="M28.9597 3.46472H17.1994V17.3752H28.9597V3.46472Z" fill="white"/>
</g>
</g>
<defs>
<filter id="filter0_d_435_222" x="0" y="0" width="96.9825" height="56" filterUnits="userSpaceOnUse" color-interpolation-filters="sRGB">
<feFlood flood-opacity="0" result="BackgroundImageFix"/>
<feColorMatrix in="SourceAlpha" type="matrix" values="0 0 0 0 0 0 0 0 0 0 0 0 0 0 0 0 0 0 127 0" result="hardAlpha"/>
<feOffset dy="4"/>
<feGaussianBlur stdDeviation="2"/>
<feComposite in2="hardAlpha" operator="out"/>
<feColorMatrix type="matrix" values="0 0 0 0 0 0 0 0 0 0 0 0 0 0 0 0 0 0 0.25 0"/>
<feBlend mode="normal" in2="BackgroundImageFix" result="effect1_dropShadow_435_222"/>
<feBlend mode="normal" in="SourceGraphic" in2="effect1_dropShadow_435_222" result="shape"/>
</filter>
</defs>
</svg>
