<svg xmlns="http://www.w3.org/2000/svg" width="45.559" height="42" viewBox="0 0 45.559 42">
  <g id="job-available" transform="translate(0 -20)">
    <g id="XMLID_138_" transform="translate(0 20)">
      <path id="XMLID_141_" d="M40.4,28.55H34.7V25.161A5.167,5.167,0,0,0,29.542,20H16.017a5.167,5.167,0,0,0-5.161,5.161V28.55H5.161A5.167,5.167,0,0,0,0,33.711V56.839A5.167,5.167,0,0,0,5.161,62H40.4a5.167,5.167,0,0,0,5.161-5.161V33.711A5.167,5.167,0,0,0,40.4,28.55ZM16.017,21.78H29.542A3.387,3.387,0,0,1,32.8,24.271H12.755A3.387,3.387,0,0,1,16.017,21.78ZM1.78,33.711a3.385,3.385,0,0,1,3.381-3.381H18.787a.89.89,0,1,0,0-1.78H12.636v-2.5H32.924v2.5H26.8a.89.89,0,0,0,0,1.78H40.4a3.385,3.385,0,0,1,3.381,3.381v2.838a7.636,7.636,0,0,1-7.628,7.628h-9.09V42.285a2.028,2.028,0,0,0-2.026-2.026h-4.49a2.028,2.028,0,0,0-2.026,2.026v1.892H9.408A7.637,7.637,0,0,1,1.78,36.548ZM20.3,45.956h4.983v1.273a2.492,2.492,0,0,1-4.983,0Zm0-1.78V42.285a.247.247,0,0,1,.246-.246h4.49a.247.247,0,0,1,.246.246v1.892ZM43.78,56.839A3.385,3.385,0,0,1,40.4,60.22H5.161A3.385,3.385,0,0,1,1.78,56.839V42.048a9.4,9.4,0,0,0,7.628,3.908H18.52v1.273a4.271,4.271,0,1,0,8.542,0V45.956h9.09a9.4,9.4,0,0,0,7.628-3.908Z" transform="translate(0 -20)" fill="#3dae59"/>
      <path id="XMLID_148_" d="M247.02,117.86a.889.889,0,1,0-.63-.261A.893.893,0,0,0,247.02,117.86Z" transform="translate(-224.229 -107.531)" fill="#3dae59"/>
    </g>
  </g>
</svg>
