<svg xmlns="http://www.w3.org/2000/svg" width="81.221" height="72.575" viewBox="0 0 81.221 72.575">
  <g id="job-seeker" transform="translate(0 -27.251)">
    <path id="Path_182" data-name="Path 182" d="M80.031,27.251H1.19A1.19,1.19,0,0,0,0,28.441v55.12a1.19,1.19,0,0,0,1.19,1.19H31.41a1.19,1.19,0,1,0,0-2.38H2.38V35.791H78.841V55.678A21.393,21.393,0,0,0,38.882,69.764H31.965V40.576H53.019v.172a1.19,1.19,0,0,0,2.38,0V39.386a1.19,1.19,0,0,0-1.19-1.19H30.775a1.19,1.19,0,0,0-1.19,1.19V70.953a1.19,1.19,0,0,0,1.19,1.19h8.732a21.106,21.106,0,0,0,1.818,4.065l-1.857,3.473L25.862,93.287a1.19,1.19,0,0,0,0,1.683l4.508,4.508a1.19,1.19,0,0,0,1.682,0L45.658,85.872l2.1-1.122h2.758a21.593,21.593,0,0,0,18.651,0H80.031a1.19,1.19,0,0,0,1.19-1.19V28.441A1.19,1.19,0,0,0,80.031,27.251ZM44.721,80.618a17.336,17.336,0,0,0,2.167,1.9l-1.731.926L41.9,80.183l.926-1.733A21.711,21.711,0,0,0,44.721,80.618ZM31.212,96.954l-2.825-2.825L40.432,82.082l2.825,2.825ZM51.4,82.534C45.116,78.86,40.839,73.019,40.839,65.5A19,19,0,1,1,73.276,78.936,19.2,19.2,0,0,1,51.4,82.534Zm27.441-.163H72.979a21.639,21.639,0,0,0,5.862-7.049ZM2.38,29.631H71.306v3.781H2.38Zm71.306,3.781V29.631h5.156v3.781Z" fill="#001a2d"/>
    <path id="Path_183" data-name="Path 183" d="M306.605,248.032a2.429,2.429,0,0,0,1.193-.317,2.623,2.623,0,0,0,1.34-2.3v-5.6a1.223,1.223,0,0,0-1.153-1.239,1.19,1.19,0,0,0-1.226,1.189v5.652a.246.246,0,0,1-.115.216c-.033.018-.162-.048-.321-.145a1.181,1.181,0,1,0-1.177,2.046A3.453,3.453,0,0,0,306.605,248.032Z" transform="translate(-256.222 -177.802)" fill="#001a2d"/>
    <path id="Path_184" data-name="Path 184" d="M412.6,238.577h-2.054a1.19,1.19,0,0,0-1.19,1.19v7.071a1.19,1.19,0,0,0,1.19,1.19h.005s1.887-.008,2.407-.008A3.089,3.089,0,0,0,415.1,242.7a2.813,2.813,0,0,0-2.5-4.118Zm0,2.38a.437.437,0,1,1,0,.875l-.729,0h-.135v-.876h.864Zm.359,4.683-1.223,0v-1.43h1.223a.714.714,0,0,1,0,1.427Z" transform="translate(-344.422 -177.802)" fill="#001a2d"/>
    <path id="Path_185" data-name="Path 185" d="M341.68,243.3a4.725,4.725,0,1,0,4.725-4.725A4.731,4.731,0,0,0,341.68,243.3Zm7.071,0a2.346,2.346,0,1,1-2.346-2.346A2.348,2.348,0,0,1,348.751,243.3Z" transform="translate(-287.478 -177.802)" fill="#001a2d"/>
    <path id="Path_186" data-name="Path 186" d="M304.328,178.536a16.807,16.807,0,0,0-1.467-6.9,1.19,1.19,0,0,0-2.173.971,14.575,14.575,0,1,1-2.741-4.09,1.19,1.19,0,0,0,1.725-1.639,16.786,16.786,0,0,0-12.281-5.274,16.936,16.936,0,1,0,16.936,16.936Z" transform="translate(-227.552 -113.037)" fill="#001a2d"/>
    <path id="Path_187" data-name="Path 187" d="M53.618,97.438a1.19,1.19,0,0,0-1.19-1.19H34.344a1.19,1.19,0,0,0-1.19,1.19v18.084a1.19,1.19,0,0,0,1.19,1.19H52.428a1.19,1.19,0,0,0,1.19-1.19Zm-2.38,16.894h-15.7v-15.7h15.7Z" transform="translate(-27.895 -58.052)" fill="#001a2d"/>
    <path id="Path_188" data-name="Path 188" d="M60.69,129.429h3.966a1.19,1.19,0,0,0,1.19-1.19v-3.966a1.19,1.19,0,0,0-1.19-1.19H60.69a1.19,1.19,0,0,0-1.19,1.19v3.966A1.19,1.19,0,0,0,60.69,129.429Zm1.19-3.966h1.586v1.586H61.88Z" transform="translate(-50.061 -80.631)" fill="#001a2d"/>
    <path id="Path_189" data-name="Path 189" d="M213.161,123.084a1.19,1.19,0,0,0-1.19,1.19v3.966a1.19,1.19,0,0,0,1.19,1.19h3.966a1.19,1.19,0,0,0,1.19-1.19v-3.966a1.19,1.19,0,0,0-1.19-1.19Zm2.776,3.966h-1.586v-1.586h1.586Z" transform="translate(-178.345 -80.631)" fill="#001a2d"/>
    <path id="Path_190" data-name="Path 190" d="M52.428,238.577H34.344a1.19,1.19,0,0,0,0,2.38H52.428a1.19,1.19,0,0,0,0-2.38Z" transform="translate(-27.895 -177.802)" fill="#001a2d"/>
    <path id="Path_191" data-name="Path 191" d="M52.428,266.909H34.344a1.19,1.19,0,0,0,0,2.38H52.428a1.19,1.19,0,0,0,0-2.38Z" transform="translate(-27.895 -201.64)" fill="#001a2d"/>
    <path id="Path_192" data-name="Path 192" d="M53.618,296.431a1.19,1.19,0,0,0-1.19-1.19H34.344a1.19,1.19,0,1,0,0,2.38H52.428A1.19,1.19,0,0,0,53.618,296.431Z" transform="translate(-27.895 -225.478)" fill="#001a2d"/>
    <path id="Path_193" data-name="Path 193" d="M34.344,323.573a1.19,1.19,0,1,0,0,2.38h9.042a1.19,1.19,0,0,0,0-2.38Z" transform="translate(-27.895 -249.315)" fill="#001a2d"/>
  </g>
</svg>
