<svg xmlns="http://www.w3.org/2000/svg" width="22.454" height="22.454" viewBox="0 0 22.454 22.454">
  <g id="language" transform="translate(0 0)">
    <path id="Path_303" data-name="Path 303" d="M318.239,301.533c-.063-.211-.324-.31-.592-.31a.572.572,0,0,0-.585.31l-1.36,4.432a.408.408,0,0,0-.014.07c0,.226.331.38.578.38.155,0,.275-.049.31-.183l.268-.937h1.614l.268.937c.035.134.155.183.31.183.247,0,.578-.162.578-.38a.309.309,0,0,0-.014-.07Zm-1.2,3.044.613-2.163.613,2.163Zm0,0" transform="translate(-301.844 -288.013)" fill="#3dae59"/>
    <path id="Path_304" data-name="Path 304" d="M20.034,9.16H13.294V6.281l2.191-1.565a.658.658,0,0,0,0-1.071L13.267,2.062A2.423,2.423,0,0,0,10.874,0H2.419A2.422,2.422,0,0,0,0,2.419v8.455a2.422,2.422,0,0,0,2.419,2.419H9.16v2.879L6.969,17.737a.658.658,0,0,0,0,1.07l2.217,1.584a2.423,2.423,0,0,0,2.393,2.062h8.455a2.422,2.422,0,0,0,2.419-2.419V11.579A2.422,2.422,0,0,0,20.034,9.16ZM2.419,11.978a1.1,1.1,0,0,1-1.1-1.1V2.419a1.1,1.1,0,0,1,1.1-1.1h8.455a1.1,1.1,0,0,1,1.1,1.1.658.658,0,0,0,.275.535L13.97,4.181,12.253,5.407a.658.658,0,0,0-.275.535V9.16h-.4A2.422,2.422,0,0,0,9.16,11.579v.4Zm18.719,8.056a1.1,1.1,0,0,1-1.1,1.1H11.579a1.1,1.1,0,0,1-1.1-1.1A.657.657,0,0,0,10.2,19.5L8.483,18.273,10.2,17.047a.658.658,0,0,0,.275-.535V11.579a1.1,1.1,0,0,1,1.1-1.1h8.455a1.1,1.1,0,0,1,1.1,1.1Zm0,0" transform="translate(0 0)" fill="#3dae59"/>
    <path id="Path_305" data-name="Path 305" d="M244.095,286.884a.885.885,0,0,1,.884.884h-3.537a.442.442,0,0,0-.442.457,2.432,2.432,0,0,0,4.826.427h.48v1.562a.442.442,0,1,0,.884,0v-3.773a.442.442,0,0,0-.884,0v1.326h-.442A1.771,1.771,0,0,0,244.095,286a.442.442,0,1,0,0,.884Zm-.663,2.889a1.55,1.55,0,0,1-1.487-1.12h2.975A1.55,1.55,0,0,1,243.432,289.773Z" transform="translate(-238.366 -282.117)" fill="#3dae59"/>
  </g>
</svg>
