<svg id="location" xmlns="http://www.w3.org/2000/svg" width="12" height="13.653" viewBox="0 0 12 13.653">
  <g id="Group_88" data-name="Group 88" transform="translate(0)">
    <g id="Group_87" data-name="Group 87">
      <path id="Path_139" data-name="Path 139" d="M39.279,9.021c1.453-2.28,1.27-2,1.312-2.055A4.367,4.367,0,0,0,41.4,4.427,4.4,4.4,0,1,0,33.432,7l1.289,2.022C33.343,9.233,31,9.864,31,11.253c0,.507.331,1.228,1.906,1.791A12.625,12.625,0,0,0,37,13.653c2.881,0,6-.813,6-2.4C43,9.864,40.66,9.233,39.279,9.021ZM34.1,6.559l-.014-.02a3.6,3.6,0,1,1,5.857-.04c-.039.051.163-.261-2.943,4.611ZM37,12.853c-3.146,0-5.2-.925-5.2-1.6,0-.454,1.055-1.2,3.393-1.491l1.469,2.306a.4.4,0,0,0,.675,0l1.469-2.306c2.338.291,3.393,1.037,3.393,1.491C42.2,11.923,40.165,12.853,37,12.853Z" transform="translate(-31)" fill="#3498db"/>
    </g>
  </g>
  <g id="Group_90" data-name="Group 90" transform="translate(4 2.427)">
    <g id="Group_89" data-name="Group 89">
      <path id="Path_140" data-name="Path 140" d="M183,91a2,2,0,1,0,2,2A2,2,0,0,0,183,91Zm0,3.2a1.2,1.2,0,1,1,1.2-1.2A1.2,1.2,0,0,1,183,94.2Z" transform="translate(-181 -91)" fill="#3498db"/>
    </g>
  </g>
</svg>
