<svg id="login" xmlns="http://www.w3.org/2000/svg" width="18.456" height="18.456" viewBox="0 0 18.456 18.456">
  <path id="Path_306" data-name="Path 306" d="M7.882,209.153H.577a.577.577,0,1,1,0-1.153H7.882a.577.577,0,1,1,0,1.153Zm0,0" transform="translate(0 -200.502)" fill="#fff"/>
  <path id="Path_307" data-name="Path 307" d="M123.248,134.906a.577.577,0,0,1-.408-.985l2.476-2.476-2.476-2.475a.577.577,0,1,1,.816-.816l2.884,2.884a.577.577,0,0,1,0,.816l-2.884,2.884A.576.576,0,0,1,123.248,134.906Zm0,0" transform="translate(-118.25 -123.371)" fill="#fff"/>
  <path id="Path_308" data-name="Path 308" d="M300.206,18.536A1.539,1.539,0,0,1,298.668,17V3.156a1.548,1.548,0,0,1,1.041-1.46l4.62-1.54a1.554,1.554,0,0,1,2.029,1.463V15.46a1.548,1.548,0,0,1-1.04,1.459L300.7,18.46a1.608,1.608,0,0,1-.49.075Zm4.614-17.3a.452.452,0,0,0-.138.02l-4.6,1.534a.4.4,0,0,0-.26.368V17a.405.405,0,0,0,.522.365l4.6-1.534a.4.4,0,0,0,.26-.368V1.618A.385.385,0,0,0,304.82,1.233Zm0,0" transform="translate(-287.902 -0.08)" fill="#fff"/>
  <path id="Path_309" data-name="Path 309" d="M171.245,3.845a.577.577,0,0,1-.577-.577V2.115A2.116,2.116,0,0,1,172.783,0h8.651a.577.577,0,1,1,0,1.153h-8.651a.963.963,0,0,0-.961.961V3.268A.577.577,0,0,1,171.245,3.845Zm0,0" transform="translate(-164.516)" fill="#fff"/>
  <path id="Path_310" data-name="Path 310" d="M175.859,345.177h-3.076a2.116,2.116,0,0,1-2.115-2.115v-1.154a.577.577,0,1,1,1.153,0v1.154a.963.963,0,0,0,.961.961h3.076a.577.577,0,1,1,0,1.153Zm0,0" transform="translate(-164.516 -329.028)" fill="#fff"/>
</svg>
