<svg xmlns="http://www.w3.org/2000/svg" xmlns:xlink="http://www.w3.org/1999/xlink" width="220.001" height="132.219" viewBox="0 0 220.001 132.219">
  <defs>
    <clipPath id="clip-path">
      <path id="Path_242" data-name="Path 242" d="M167.393,198.036c-.029-.715,1.5-17.826-16.841-19.876-10.514-1.383-13.466,0-27.614-8.345.98,12.6,18.151,15.931,18.151,15.931s-21.545,10.285-29.683-3.186c-7.477-15.256,1.205-26.017-7.9-29.89,1.162,6.55-8.694,33.181,13.066,43.084,9.3,3.3,20.821,3.225,29.119,1.978a61.4,61.4,0,0,1,21.7.3" transform="translate(-102.27 -152.671)" fill="none" clip-rule="evenodd"/>
    </clipPath>
    <linearGradient id="linear-gradient" x1="0.101" y1="0.5" x2="0.98" y2="0.5" gradientUnits="objectBoundingBox">
      <stop offset="0" stop-color="#40b459"/>
      <stop offset="0.136" stop-color="#339a59"/>
      <stop offset="0.416" stop-color="#1d6b59"/>
      <stop offset="0.663" stop-color="#0d4859"/>
      <stop offset="0.866" stop-color="#033359"/>
      <stop offset="1" stop-color="#002c5a"/>
    </linearGradient>
    <clipPath id="clip-path-2">
      <path id="Path_243" data-name="Path 243" d="M122.556,160.854c1.274,8.029-2.838,22.972,7.249,30.02,6.7,4.43,17.15,1.76,18.989.946,0,.232-17.414,1.661-20.408-7.091-5.309-12.2,3.865-20.554-5.831-23.874" transform="translate(-122.556 -160.854)" fill="none" clip-rule="evenodd"/>
    </clipPath>
    <linearGradient id="linear-gradient-2" x1="0.098" x2="1" xlink:href="#linear-gradient"/>
    <clipPath id="clip-path-3">
      <path id="Path_244" data-name="Path 244" d="M104.4,106.818c.029.715-1.5,17.827,16.841,19.876,10.514,1.382,13.465,0,27.614,8.345-.98-12.6-18.151-15.931-18.151-15.931s21.545-10.285,29.682,3.186c7.477,15.256-1.2,26.017,7.9,29.89-1.162-6.55,8.694-33.181-13.066-43.084-9.3-3.3-20.821-3.225-29.119-1.978a61.392,61.392,0,0,1-21.7-.3" transform="translate(-104.377 -106.328)" fill="none" clip-rule="evenodd"/>
    </clipPath>
    <linearGradient id="linear-gradient-3" x1="0.899" x2="0.02" xlink:href="#linear-gradient"/>
    <clipPath id="clip-path-4">
      <path id="Path_245" data-name="Path 245" d="M223.034,169.32c-1.274-8.029,2.838-22.972-7.249-30.02-6.7-4.43-17.151-1.76-18.989-.946,0-.232,17.414-1.661,20.408,7.092,5.308,12.2-3.865,20.554,5.831,23.874" transform="translate(-196.796 -136.811)" fill="none" clip-rule="evenodd"/>
    </clipPath>
    <linearGradient id="linear-gradient-4" x1="0.902" x2="0" xlink:href="#linear-gradient"/>
  </defs>
  <g id="Logo" transform="translate(-102.27 -106.328)">
    <path id="Path_194" data-name="Path 194" d="M114.532,475.66a3.547,3.547,0,0,1-1.185.205,2.067,2.067,0,0,1-.009-4.133,3.067,3.067,0,0,1,1.194.233l.289-1.129a3.747,3.747,0,0,0-1.549-.271,3.2,3.2,0,0,0-3.434,3.331,3,3,0,0,0,3.294,3.154,4.016,4.016,0,0,0,1.614-.28Z" transform="translate(-4.956 -238.504)" fill="#545454"/>
    <path id="Path_195" data-name="Path 195" d="M130.269,474.448l.373-1.334c.1-.364.2-.84.289-1.213h.019c.093.373.205.84.317,1.213l.392,1.334Zm1.6,1.064.485,1.614h1.53l-1.95-6.289h-1.866l-1.922,6.289h1.474l.448-1.614Z" transform="translate(-16.941 -238.682)" fill="#545454"/>
    <path id="Path_196" data-name="Path 196" d="M148.66,470.837v3.527c0,2.006.933,2.864,2.519,2.864,1.642,0,2.622-.905,2.622-2.846v-3.546h-1.418v3.639c0,1.1-.41,1.614-1.157,1.614-.728,0-1.138-.541-1.138-1.614v-3.639Z" transform="translate(-30.376 -238.682)" fill="#545454"/>
    <path id="Path_197" data-name="Path 197" d="M168.855,476.659a4.1,4.1,0,0,0,1.782.392c1.726,0,2.538-.905,2.538-1.959,0-.886-.522-1.465-1.633-1.875-.812-.308-1.166-.485-1.166-.886,0-.327.3-.606.914-.606a2.988,2.988,0,0,1,1.316.3l.317-1.147a3.869,3.869,0,0,0-1.6-.308c-1.484,0-2.379.812-2.379,1.885,0,.914.681,1.493,1.726,1.857.756.271,1.054.495,1.054.886,0,.41-.345.681-1,.681a3.626,3.626,0,0,1-1.577-.392Z" transform="translate(-43.6 -238.504)" fill="#545454"/>
    <path id="Path_198" data-name="Path 198" d="M190.331,473.309h-2.314V472h2.454v-1.166h-3.882v6.289H190.6v-1.166h-2.585v-1.493h2.314Z" transform="translate(-55.213 -238.682)" fill="#545454"/>
    <path id="Path_199" data-name="Path 199" d="M231.048,471.8a3.557,3.557,0,0,1,.644-.047c.653.009,1.045.3,1.045.877,0,.55-.42.9-1.129.9h-.56Zm-1.409,5.235h1.409v-2.473h.429c.579.009.849.224,1.017,1.008a7.867,7.867,0,0,0,.439,1.465h1.455c-.121-.243-.317-1.064-.513-1.773a1.587,1.587,0,0,0-.84-1.176v-.028a1.668,1.668,0,0,0,1.11-1.549,1.6,1.6,0,0,0-.578-1.316,3.211,3.211,0,0,0-2.034-.494,12.518,12.518,0,0,0-1.894.13Z" transform="translate(-83.402 -238.594)" fill="#545454"/>
    <path id="Path_200" data-name="Path 200" d="M251.845,473.309h-2.314V472h2.454v-1.166H248.1v6.289h4.012v-1.166h-2.585v-1.493h2.314Z" transform="translate(-95.492 -238.682)" fill="#545454"/>
    <path id="Path_201" data-name="Path 201" d="M265.776,474.448l.373-1.334c.1-.364.2-.84.289-1.213h.019c.093.373.205.84.317,1.213l.392,1.334Zm1.6,1.064.485,1.614h1.53l-1.95-6.289h-1.866l-1.922,6.289h1.474l.448-1.614Z" transform="translate(-105.671 -238.682)" fill="#545454"/>
    <path id="Path_202" data-name="Path 202" d="M283.208,477.125h1.428v-5.094h1.717v-1.194h-4.833v1.194h1.689Z" transform="translate(-117.373 -238.682)" fill="#545454"/>
    <path id="Path_203" data-name="Path 203" d="M303.887,473.309h-2.314V472h2.454v-1.166h-3.882v6.289h4.012v-1.166h-2.585v-1.493h2.314Z" transform="translate(-129.57 -238.682)" fill="#545454"/>
    <path id="Path_204" data-name="Path 204" d="M316.313,476.659a4.1,4.1,0,0,0,1.782.392c1.726,0,2.538-.905,2.538-1.959,0-.886-.523-1.465-1.633-1.875-.812-.308-1.166-.485-1.166-.886,0-.327.3-.606.914-.606a2.987,2.987,0,0,1,1.316.3l.317-1.147a3.868,3.868,0,0,0-1.6-.308c-1.484,0-2.379.812-2.379,1.885,0,.914.681,1.493,1.726,1.857.756.271,1.054.495,1.054.886,0,.41-.345.681-1,.681a3.626,3.626,0,0,1-1.577-.392Z" transform="translate(-140.156 -238.504)" fill="#545454"/>
    <path id="Path_205" data-name="Path 205" d="M362.422,471.669c1.045,0,1.512,1.064,1.512,2.127,0,1.138-.513,2.108-1.521,2.108-.98,0-1.521-.933-1.521-2.108s.532-2.127,1.53-2.127m.056-1.129a3.036,3.036,0,0,0-3.089,3.293,2.921,2.921,0,0,0,2.967,3.2,3,3,0,0,0,3.079-3.256A2.919,2.919,0,0,0,362.479,470.54Z" transform="translate(-168.363 -238.487)" fill="#545454"/>
    <path id="Path_206" data-name="Path 206" d="M387.19,477.126h1.39l-.345-6.289h-1.857l-.672,2.09c-.214.7-.42,1.558-.6,2.286h-.028c-.14-.737-.327-1.558-.532-2.277l-.616-2.1H382.04l-.4,6.289h1.315l.112-2.389c.047-.784.075-1.754.112-2.6h.019c.149.821.364,1.717.569,2.463l.662,2.426h1.12l.765-2.445c.233-.728.5-1.642.7-2.444h.028c0,.914.028,1.829.056,2.584Z" transform="translate(-182.932 -238.682)" fill="#545454"/>
    <path id="Path_207" data-name="Path 207" d="M408.756,471.821a3.127,3.127,0,0,1,.569-.047c.737,0,1.129.345,1.129.933,0,.634-.467,1.017-1.222,1.017a3.008,3.008,0,0,1-.476-.028Zm-1.409,5.216h1.409V474.8c.131.009.3.028.495.028a2.91,2.91,0,0,0,2.034-.672,1.979,1.979,0,0,0,.579-1.493,1.839,1.839,0,0,0-.672-1.456,3.016,3.016,0,0,0-1.922-.5,11.828,11.828,0,0,0-1.922.13Z" transform="translate(-199.765 -238.594)" fill="#545454"/>
    <path id="Path_208" data-name="Path 208" d="M429.229,473.309h-2.314V472h2.454v-1.166h-3.882v6.289H429.5v-1.166h-2.585v-1.493h2.314Z" transform="translate(-211.644 -238.682)" fill="#545454"/>
    <path id="Path_209" data-name="Path 209" d="M442.8,477.125h1.428v-5.094h1.717v-1.194h-4.833v1.194H442.8Z" transform="translate(-221.876 -238.682)" fill="#545454"/>
    <path id="Path_210" data-name="Path 210" d="M463.482,473.309h-2.314V472h2.454v-1.166H459.74v6.289h4.012v-1.166h-2.585v-1.493h2.314Z" transform="translate(-234.073 -238.682)" fill="#545454"/>
    <path id="Path_211" data-name="Path 211" d="M477.917,477.126v-1.894c0-1.027-.019-1.913-.056-2.743l.028-.009a23.443,23.443,0,0,0,1.092,2.221l1.344,2.426h1.493v-6.289H480.51v1.829a23.427,23.427,0,0,0,.121,2.631H480.6a18.242,18.242,0,0,0-1.026-2.155l-1.306-2.3H476.61v6.289Z" transform="translate(-245.119 -238.682)" fill="#545454"/>
    <path id="Path_212" data-name="Path 212" d="M501.552,475.66a3.545,3.545,0,0,1-1.185.205,2.067,2.067,0,0,1-.009-4.133,3.065,3.065,0,0,1,1.194.233l.289-1.129a3.745,3.745,0,0,0-1.549-.271,3.2,3.2,0,0,0-3.434,3.331,3,3,0,0,0,3.294,3.154,4.014,4.014,0,0,0,1.614-.28Z" transform="translate(-258.378 -238.504)" fill="#545454"/>
    <path id="Path_213" data-name="Path 213" d="M519.957,473.309h-2.314V472H520.1v-1.166h-3.882v6.289h4.012v-1.166h-2.584v-1.493h2.314Z" transform="translate(-271.053 -238.682)" fill="#545454"/>
    <path id="Path_214" data-name="Path 214" d="M542.356,471.426a.574.574,0,0,1,.551.625c0,.364-.233.607-.69.924a1.341,1.341,0,0,1-.429-.905.6.6,0,0,1,.569-.644m-.168,4.581a.986.986,0,0,1-1.045-.989,1.046,1.046,0,0,1,.494-.868c.513.578,1.027,1.148,1.418,1.54A1.269,1.269,0,0,1,542.189,476.007Zm3.592.924c-.392-.42-.756-.831-1.11-1.232a4.707,4.707,0,0,0,1.045-2.389h-1.269a4.116,4.116,0,0,1-.532,1.53c-.308-.317-.69-.775-1.054-1.176l.009-.037c.868-.438,1.241-.98,1.241-1.614a1.531,1.531,0,0,0-1.707-1.474,1.725,1.725,0,0,0-1.885,1.661,1.9,1.9,0,0,0,.476,1.213v.037a1.987,1.987,0,0,0-1.194,1.8c0,.877.672,1.782,2.193,1.782a2.76,2.76,0,0,0,1.726-.551c.149.168.28.308.41.448Z" transform="translate(-286.496 -238.487)" fill="#545454"/>
    <path id="Path_215" data-name="Path 215" d="M587.688,470.837v6.289h1.428v-2.631h2.342v2.631h1.418v-6.289h-1.418v2.417h-2.342v-2.417Z" transform="translate(-317.854 -238.682)" fill="#545454"/>
    <path id="Path_216" data-name="Path 216" d="M609.551,474.448l.373-1.334c.1-.364.2-.84.289-1.213h.019c.093.373.205.84.317,1.213l.391,1.334Zm1.6,1.064.485,1.614h1.53l-1.95-6.289h-1.866l-1.922,6.289H608.9l.448-1.614Z" transform="translate(-330.777 -238.682)" fill="#545454"/>
    <path id="Path_217" data-name="Path 217" d="M630.324,471.8a3.557,3.557,0,0,1,.644-.047c.653.009,1.045.3,1.045.877,0,.55-.42.9-1.129.9h-.56Zm-1.409,5.235h1.409v-2.473h.429c.578.009.849.224,1.017,1.008a7.855,7.855,0,0,0,.439,1.465h1.455c-.121-.243-.317-1.064-.513-1.773a1.587,1.587,0,0,0-.84-1.176v-.028a1.668,1.668,0,0,0,1.11-1.549,1.6,1.6,0,0,0-.578-1.316,3.211,3.211,0,0,0-2.034-.494,12.52,12.52,0,0,0-1.894.13Z" transform="translate(-344.849 -238.594)" fill="#545454"/>
    <path id="Path_218" data-name="Path 218" d="M648.426,474.448l.374-1.334c.1-.364.2-.84.289-1.213h.019c.093.373.2.84.317,1.213l.392,1.334Zm1.6,1.064.485,1.614h1.53l-1.95-6.289h-1.866l-1.922,6.289h1.474l.448-1.614Z" transform="translate(-356.232 -238.682)" fill="#545454"/>
    <path id="Path_219" data-name="Path 219" d="M670.97,475.66a3.546,3.546,0,0,1-1.185.205,2.067,2.067,0,0,1-.009-4.133,3.065,3.065,0,0,1,1.194.233l.289-1.129a3.744,3.744,0,0,0-1.548-.271,3.2,3.2,0,0,0-3.434,3.331,3,3,0,0,0,3.294,3.154,4.016,4.016,0,0,0,1.614-.28Z" transform="translate(-369.314 -238.504)" fill="#545454"/>
    <path id="Path_220" data-name="Path 220" d="M686.322,477.125h1.428v-5.094h1.717v-1.194h-4.833v1.194h1.689Z" transform="translate(-381.334 -238.682)" fill="#545454"/>
    <path id="Path_221" data-name="Path 221" d="M707,473.309h-2.314V472h2.454v-1.166H703.26v6.289h4.012v-1.166h-2.584v-1.493H707Z" transform="translate(-393.53 -238.682)" fill="#545454"/>
    <path id="Path_222" data-name="Path 222" d="M721.539,471.8a3.56,3.56,0,0,1,.644-.047c.653.009,1.045.3,1.045.877,0,.55-.42.9-1.129.9h-.56Zm-1.409,5.235h1.409v-2.473h.429c.578.009.849.224,1.017,1.008a7.906,7.906,0,0,0,.438,1.465h1.456c-.121-.243-.317-1.064-.513-1.773a1.586,1.586,0,0,0-.839-1.176v-.028a1.669,1.669,0,0,0,1.11-1.549,1.6,1.6,0,0,0-.579-1.316,3.209,3.209,0,0,0-2.034-.494,12.518,12.518,0,0,0-1.894.13Z" transform="translate(-404.577 -238.594)" fill="#545454"/>
    <path id="Path_223" data-name="Path 223" d="M214.976,475.66a3.545,3.545,0,0,1-1.185.205,2.067,2.067,0,0,1-.009-4.133,3.066,3.066,0,0,1,1.194.233l.289-1.129a3.745,3.745,0,0,0-1.549-.271,3.2,3.2,0,0,0-3.434,3.331,3,3,0,0,0,3.294,3.154,4.016,4.016,0,0,0,1.614-.28Z" transform="translate(-70.727 -238.504)" fill="#545454"/>
    <path id="Path_224" data-name="Path 224" d="M345.564,475.66a3.548,3.548,0,0,1-1.185.205,2.067,2.067,0,0,1-.009-4.133,3.067,3.067,0,0,1,1.194.233l.289-1.129a3.748,3.748,0,0,0-1.549-.271,3.2,3.2,0,0,0-3.434,3.331,3,3,0,0,0,3.294,3.154,4.016,4.016,0,0,0,1.614-.28Z" transform="translate(-156.237 -238.504)" fill="#545454"/>
    <path id="Path_225" data-name="Path 225" d="M573.025,475.66a3.545,3.545,0,0,1-1.185.205,2.067,2.067,0,0,1-.009-4.133,3.064,3.064,0,0,1,1.194.233l.289-1.129a3.745,3.745,0,0,0-1.549-.271,3.2,3.2,0,0,0-3.434,3.331,3,3,0,0,0,3.294,3.154,4.014,4.014,0,0,0,1.614-.28Z" transform="translate(-305.179 -238.504)" fill="#545454"/>
    <path id="Path_226" data-name="Path 226" d="M111.153,322.615c0,2.586,0,4.808-.14,5.989-.085.815-.253,1.434-.815,1.547a4.588,4.588,0,0,1-1.012.112c-.337,0-.45.084-.45.225,0,.2.2.281.562.281,1.125,0,2.9-.084,3.543-.084.787,0,2.559.084,4.414.084.309,0,.534-.084.534-.281,0-.141-.14-.225-.45-.225a11.834,11.834,0,0,1-1.434-.112c-.844-.113-1.012-.731-1.1-1.518-.14-1.209-.14-3.431-.14-6.017V311.086l3.543.084c2.5.056,3.262.844,3.318,1.575l.028.309c.028.421.084.562.309.562.169,0,.225-.169.253-.45,0-.731.084-2.672.084-3.262,0-.422-.028-.591-.225-.591a6.743,6.743,0,0,0-.759.141,13.466,13.466,0,0,1-1.94.141H108.145c-.928,0-2-.056-2.812-.141a6.483,6.483,0,0,1-1.209-.337c-.169,0-.253.169-.338.534-.056.225-.59,2.784-.59,3.233,0,.309.056.45.253.45.169,0,.253-.112.309-.337a3.327,3.327,0,0,1,.478-.984c.421-.619,1.1-.759,2.727-.815l4.189-.112Z" transform="translate(-0.606 -132.788)" fill="#00365f"/>
    <path id="Path_227" data-name="Path 227" d="M171.542,319.2c-.084,0-.169-.056-.169-.2v-.591c0-4.274,0-5.061.056-5.961.056-.984.281-1.462,1.04-1.6a4.992,4.992,0,0,1,.815-.084c.338,0,.506-.056.506-.253s-.2-.253-.59-.253c-1.1,0-2.868.085-3.543.085-.759,0-2.531-.085-4.049-.085-.394,0-.59.056-.59.253s.169.253.478.253a5.779,5.779,0,0,1,1.1.084c.928.2,1.153.647,1.209,1.6.056.9.056,1.687.056,5.961v4.949c0,2.587,0,4.808-.141,5.989-.112.815-.253,1.434-.815,1.547a4.59,4.59,0,0,1-1.012.112c-.337,0-.45.084-.45.225,0,.2.2.281.562.281,1.125,0,2.9-.084,3.543-.084.787,0,2.559.084,4.386.084.337,0,.562-.084.562-.281,0-.141-.141-.225-.45-.225a11.865,11.865,0,0,1-1.434-.112c-.843-.113-1.012-.731-1.1-1.518-.141-1.209-.141-3.431-.141-6.017v-2.474a.148.148,0,0,1,.169-.169h10.741a.162.162,0,0,1,.169.169v2.474c0,2.587,0,4.808-.141,5.989-.113.815-.253,1.434-.815,1.547a4.6,4.6,0,0,1-1.012.112c-.337,0-.45.084-.45.225,0,.2.2.281.59.281,1.1,0,2.868-.084,3.515-.084.787,0,2.559.084,4.386.084.337,0,.562-.084.562-.281,0-.141-.141-.225-.45-.225a11.864,11.864,0,0,1-1.434-.112c-.843-.113-1.012-.731-1.1-1.518-.14-1.209-.14-3.431-.14-6.017v-4.949c0-4.274,0-5.061.056-5.961.056-.984.281-1.462,1.04-1.6a5,5,0,0,1,.815-.084c.338,0,.506-.056.506-.253s-.2-.253-.591-.253c-1.1,0-2.868.085-3.543.085-.759,0-2.531-.085-4.049-.085-.393,0-.59.056-.59.253s.169.253.478.253a5.784,5.784,0,0,1,1.1.084c.928.2,1.153.647,1.209,1.6.056.9.056,1.687.056,5.961V319c0,.14-.085.2-.169.2Z" transform="translate(-41.088 -133.534)" fill="#00365f"/>
    <path id="Path_228" data-name="Path 228" d="M247.031,322.935c0,2.587,0,4.808-.141,5.989-.113.815-.253,1.434-.815,1.547a4.591,4.591,0,0,1-1.012.112c-.338,0-.45.084-.45.225,0,.2.2.281.562.281.562,0,1.293-.056,1.94-.056.675-.028,1.293-.028,1.6-.028.844,0,1.715.028,2.924.084,1.209.028,2.756.085,4.865.085,1.068,0,1.321,0,1.519-.731a22.122,22.122,0,0,0,.365-3.121c0-.281,0-.506-.225-.506-.2,0-.253.112-.309.422-.2,1.153-.534,1.743-1.266,2.081a7.134,7.134,0,0,1-2.643.337c-2.868,0-3.318-.422-3.374-2.362-.028-.815,0-3.4,0-4.358v-2.221c0-.169.028-.281.169-.281.675,0,3.458.028,3.993.085,1.04.112,1.434.534,1.575,1.1a7.458,7.458,0,0,1,.113,1.012.223.223,0,0,0,.253.253c.253,0,.253-.309.253-.534,0-.2.084-1.321.112-1.884.113-1.434.225-1.884.225-2.053s-.084-.225-.2-.225c-.14,0-.253.141-.45.366a1.963,1.963,0,0,1-1.35.422c-.647.056-3.88.056-4.5.056-.169,0-.2-.113-.2-.309V311.6c0-.2.056-.281.2-.281.562,0,3.514.056,3.993.112,1.406.169,1.687.506,1.884,1.012a3.02,3.02,0,0,1,.169,1.012c0,.253.056.393.253.393s.253-.168.281-.309c.056-.337.113-1.574.141-1.856a17.958,17.958,0,0,1,.225-1.827c0-.141-.028-.253-.169-.253a2.622,2.622,0,0,0-.45.113,11.3,11.3,0,0,1-1.209.168c-.534.028-6.13.028-7.029.028-.394,0-1.04-.028-1.772-.056-.7,0-1.518-.028-2.277-.028-.422,0-.619.056-.619.253s.169.253.478.253a5.777,5.777,0,0,1,1.1.084c.928.2,1.153.647,1.209,1.6.056.9.056,1.687.056,5.961Z" transform="translate(-92.93 -133.108)" fill="#00365f"/>
    <path id="Path_229" data-name="Path 229" d="M319.826,253.688a23.338,23.338,0,0,0,12.838-3.31,16.273,16.273,0,0,0,7.59-14.049c0-7.671-3.472-13.242-13.242-20.59l-2.261-1.7c-6.7-5.087-8.559-7.913-8.559-11.627,0-4.845,3.634-8.317,9.609-8.317,5.248,0,7.59,2.423,8.8,3.957a9.774,9.774,0,0,1,2.1,5.329c0,.969.242,1.453.807,1.453.646,0,.888-.646.888-2.422,0-6.3.323-8.64.323-9.689,0-.565-.4-.807-1.131-.969a39.082,39.082,0,0,0-10.739-1.372c-11.223,0-18.652,6.379-18.652,15.26,0,6.54,3.068,12.192,11.95,19.136l3.714,2.907c6.7,5.248,7.913,8.963,7.913,12.919,0,4.279-3.553,9.2-10.82,9.2-5.006,0-9.77-2.18-11.547-8.155a17.065,17.065,0,0,1-.727-4.118c0-.646-.081-1.373-.807-1.373-.646,0-.888.888-.969,2.1-.081,1.292-.4,6.137-.4,10.577,0,1.776.242,2.18,1.534,2.745a27.975,27.975,0,0,0,11.789,2.1" transform="translate(-133.732 -55.041)" fill="#00365f"/>
    <path id="Path_230" data-name="Path 230" d="M429.869,227.931c-.323,0-.4-.242-.323-.565l7.429-19.782c.08-.323.242-.727.484-.727s.323.4.4.727l7.267,19.863c.081.242,0,.485-.4.485Zm16.391,4.037a.777.777,0,0,1,.807.565l6.459,16.633a1.316,1.316,0,0,1-.727,1.857c-.807.081-1.131.242-1.131.727,0,.565.969.565,2.422.646,6.46.162,12.354.162,15.26.162,2.988,0,3.714-.162,3.714-.807,0-.565-.4-.646-1.05-.646a17.707,17.707,0,0,1-3.391-.323c-1.7-.4-4.037-1.534-7.105-8.8-5.168-12.273-18.087-44.57-20.024-49.011-.807-1.857-1.292-2.584-2.018-2.584-.808,0-1.292.888-2.261,3.23L416.95,243.675c-1.615,4.037-3.149,6.782-6.863,7.267a24.439,24.439,0,0,1-2.5.162c-.646,0-.969.162-.969.646,0,.646.484.807,1.534.807,4.2,0,8.64-.242,9.528-.242,2.5,0,5.975.242,8.559.242.888,0,1.373-.162,1.373-.807,0-.484-.242-.646-1.211-.646h-1.211c-2.5,0-3.23-1.05-3.23-2.5a15.676,15.676,0,0,1,1.211-4.926l4.36-11.062c.162-.484.323-.646.727-.646Z" transform="translate(-199.286 -55.041)" fill="#00365f"/>
    <path id="Path_231" data-name="Path 231" d="M583.9,240.41c0,1.292,0,4.683-.242,8.074-.161,2.342-.888,4.118-2.5,4.441a12.975,12.975,0,0,1-2.826.323c-.888,0-1.292.242-1.292.646,0,.646.646.807,1.776.807,2.988,0,8.075-.242,10.093-.242,2.18,0,7.267.242,12.354.242,1.05,0,1.7-.242,1.7-.807,0-.4-.4-.646-1.292-.646a33.976,33.976,0,0,1-4.037-.323c-2.422-.323-3.149-2.1-3.31-4.441-.242-3.391-.242-6.782-.242-8.074v-6.621a19.314,19.314,0,0,1,1.211-8.074c1.453-3.472,12.758-22.447,15.422-25.676,1.776-2.18,2.665-3.149,4.36-3.956a8.731,8.731,0,0,1,3.552-.969c.888,0,1.534-.242,1.534-.807,0-.485-.565-.646-1.454-.646-1.534,0-6.863.242-8.639.242-2.342,0-4.926-.242-7.59-.242-.969,0-1.373.161-1.373.727,0,.484.727.646,1.453.807a1.929,1.929,0,0,1,1.7,2.018,10.52,10.52,0,0,1-1.13,4.2c-1.13,2.5-11.3,20.267-12.112,22.2-1.292-2.261-12.6-21.72-13.726-24.142a7.468,7.468,0,0,1-.969-2.745,1.46,1.46,0,0,1,1.13-1.453c1.211-.323,1.776-.4,1.776-.888s-.4-.727-1.211-.727c-3.634,0-6.944.242-8.64.242-2.665,0-8.72-.242-10.174-.242-.969,0-1.534.242-1.534.727,0,.565.565.727,1.211.727a8.213,8.213,0,0,1,3.391,1.05,19.734,19.734,0,0,1,5.571,5.894c2.826,4.2,13.646,21.962,14.211,23.254a17.129,17.129,0,0,1,1.857,8.478Z" transform="translate(-298.192 -57.185)" fill="#00365f"/>
    <path id="Path_232" data-name="Path 232" d="M109.578,398.318c0-.2.056-.253.2-.253.478,0,3.459,0,4.161.085a1.653,1.653,0,0,1,1.434,1.012,3.1,3.1,0,0,1,.169.872c0,.2.056.394.225.394.281,0,.281-.281.281-.534,0-.2.056-1.49.112-2.053.085-.872.225-1.574.225-1.743s-.056-.253-.169-.253c-.168,0-.225.113-.365.281a1.474,1.474,0,0,1-1.209.506c-.394.028-.787.028-1.265.028l-3.6.028c-.169,0-.2-.084-.2-.253v-7.029c0-.309.085-.394.253-.394l4.33.084a2.03,2.03,0,0,1,1.856.844,2.755,2.755,0,0,1,.169,1.068c.028.309.084.45.281.45s.253-.169.281-.393c.056-.338.113-2,.14-2.278.085-.731.225-1.068.225-1.265,0-.141-.084-.253-.2-.253-.14,0-.281.113-.45.169a5.4,5.4,0,0,1-1.153.113c-.647.028-6.354.028-7.423.028-.394,0-1.04-.028-1.771-.056-.731,0-1.546-.028-2.278-.028-.422,0-.647.056-.647.281,0,.169.2.225.478.225a5.773,5.773,0,0,1,1.1.085c.928.2,1.153.646,1.209,1.6.056.9.056,1.687.056,5.961V400.6c0,2.7,0,4.808-.14,5.989-.113.815-.253,1.434-.815,1.546a4.586,4.586,0,0,1-1.012.113c-.309,0-.422.084-.422.225,0,.225.2.281.59.281,1.068,0,2.84-.085,3.571-.085s2.5.085,4.274.085c.422,0,.619-.085.619-.281,0-.141-.113-.225-.478-.225a11.827,11.827,0,0,1-1.406-.113c-.844-.113-1.012-.731-1.1-1.546-.141-1.181-.141-3.29-.141-5.989Z" transform="translate(-0.606 -183.961)" fill="#00365f"/>
    <path id="Path_233" data-name="Path 233" d="M165.72,407.418c-5.4,0-8.632-4.639-8.632-10.488,0-7,3.684-8.8,6.917-8.8,4.611,0,8.238,3.908,8.238,10.206,0,8.126-4.555,9.082-6.523,9.082m-1.181,1.406c7.142,0,11.641-5.089,11.641-11.528s-4.358-10.516-11.359-10.516c-8.435,0-11.612,6.214-11.612,11.022C153.208,402.779,156.469,408.824,164.539,408.824Z" transform="translate(-33.354 -183.641)" fill="#00365f"/>
    <path id="Path_234" data-name="Path 234" d="M228.7,400.179c0,4.077,1.068,6.158,2.5,7.451a9.045,9.045,0,0,0,6.242,1.94,8.391,8.391,0,0,0,5.848-2.024c2.362-2.025,2.671-5.343,2.671-8.464v-3.009c0-4.274,0-5.061.056-5.961.056-.984.281-1.462,1.04-1.6a4.225,4.225,0,0,1,.815-.085c.338,0,.506-.056.506-.253s-.2-.253-.59-.253c-1.1,0-2.868.084-3.206.084-.028,0-1.8-.084-3.233-.084-.394,0-.591.056-.591.253s.169.253.478.253a5.44,5.44,0,0,1,1.012.085c.928.2,1.153.647,1.209,1.6.056.9.056,1.687.056,5.961v3.515c0,2.9-.085,5.427-1.631,6.973a5.507,5.507,0,0,1-3.88,1.518,5.206,5.206,0,0,1-3.515-1.153c-1.378-1.125-2.193-2.84-2.193-6.917v-3.937c0-4.274,0-5.061.056-5.961.056-.984.281-1.462,1.04-1.6a4.225,4.225,0,0,1,.815-.085c.281,0,.45-.056.45-.253s-.2-.253-.619-.253c-1.012,0-2.784.084-3.459.084-.843,0-2.615-.084-4.105-.084-.422,0-.619.056-.619.253s.169.253.478.253a5.78,5.78,0,0,1,1.1.085c.928.2,1.153.647,1.209,1.6.056.9.056,1.687.056,5.961Z" transform="translate(-80.93 -184.388)" fill="#00365f"/>
    <path id="Path_235" data-name="Path 235" d="M302.035,392.881h.085c.506.534,3.627,3.965,6.687,7,2.924,2.9,6.523,6.579,8.29,8.266.309.309.647.619.956.619.253,0,.366-.253.366-.872l.309-17.742c.028-1.574.253-2.165,1.04-2.39a3.052,3.052,0,0,1,.844-.085q.506,0,.506-.253c0-.225-.281-.253-.647-.253-1.378,0-2.446.084-2.755.084-.591,0-1.94-.084-3.4-.084-.422,0-.731.028-.731.253,0,.169.112.253.45.253a4.539,4.539,0,0,1,1.485.169c.675.281.928.815.956,2.531L316.759,403h-.141c-.478-.45-4.269-4.5-6.181-6.411-4.1-4.077-8.374-8.576-8.712-8.941-.483-.506-.736-.872-1.045-.872-.281,0-.366.394-.366.956l-.253,16.561c-.028,2.446-.141,3.262-.872,3.487a4.988,4.988,0,0,1-1.265.141c-.281,0-.45.056-.45.225,0,.253.253.281.619.281,1.462,0,2.784-.085,3.037-.085.539,0,1.664.085,3.491.085.393,0,.647-.056.647-.281,0-.169-.168-.225-.478-.225a4.466,4.466,0,0,1-1.462-.2c-.562-.2-.928-.928-.984-3.121Z" transform="translate(-127.821 -183.641)" fill="#00365f"/>
    <path id="Path_236" data-name="Path 236" d="M382.256,395.624c0-2.221,0-4.667.028-5.623a.509.509,0,0,1,.337-.562,7.507,7.507,0,0,1,1.828-.2,11.145,11.145,0,0,1,7.985,2.812,9.557,9.557,0,0,1,2.7,7.029c0,2.9-.562,5.455-2.362,7-1.687,1.462-3.6,2.025-6.467,2.025-2.221,0-3.318-.591-3.684-1.125a6.143,6.143,0,0,1-.309-2.137c-.028-.534-.056-2.7-.056-5.68Zm-3.515,5.4c0,2.587,0,4.808-.141,5.989-.113.815-.253,1.434-.816,1.546a4.584,4.584,0,0,1-1.012.113c-.337,0-.45.084-.45.225,0,.2.2.281.562.281.562,0,1.293-.056,1.94-.056.675-.028,1.293-.028,1.6-.028.7,0,1.687.085,2.755.169s2.221.169,3.234.169c5.2,0,8.126-2,9.419-3.318a11.167,11.167,0,0,0,3.065-7.845,10.045,10.045,0,0,0-2.727-7.142c-3.065-3.205-7.76-3.205-11.275-3.205-1.687,0-3.458.084-4.33.084-.787,0-2.559-.084-4.049-.084-.422,0-.619.056-.619.253s.169.253.478.253a5.781,5.781,0,0,1,1.1.085c.928.2,1.153.647,1.209,1.6.056.9.056,1.687.056,5.961Z" transform="translate(-179.174 -184.388)" fill="#00365f"/>
    <path id="Path_237" data-name="Path 237" d="M449.895,399.855c-.112,0-.141-.085-.112-.2l2.587-6.889c.028-.113.085-.253.169-.253s.113.14.141.253l2.531,6.917c.028.084,0,.169-.141.169Zm5.708,1.406a.271.271,0,0,1,.281.2l2.249,5.792a.458.458,0,0,1-.253.647c-.281.028-.394.084-.394.253,0,.2.337.2.844.225,2.249.056,4.3.056,5.314.056,1.04,0,1.293-.056,1.293-.281,0-.2-.141-.225-.366-.225a6.18,6.18,0,0,1-1.181-.113c-.591-.141-1.406-.534-2.474-3.065-1.8-4.274-6.3-15.521-6.973-17.067-.281-.646-.45-.9-.7-.9-.281,0-.45.309-.787,1.125L445.4,405.337c-.562,1.406-1.1,2.362-2.39,2.531a8.564,8.564,0,0,1-.872.056c-.225,0-.338.056-.338.225,0,.225.169.281.534.281,1.462,0,3.008-.085,3.318-.085.872,0,2.081.085,2.98.085.309,0,.478-.056.478-.281,0-.169-.085-.225-.422-.225h-.422c-.872,0-1.125-.366-1.125-.872a5.461,5.461,0,0,1,.422-1.715l1.518-3.852c.056-.169.112-.225.253-.225Z" transform="translate(-222.323 -183.641)" fill="#00365f"/>
    <path id="Path_238" data-name="Path 238" d="M507.83,400.276c0,2.587,0,4.808-.141,5.989-.084.815-.253,1.434-.815,1.547a4.584,4.584,0,0,1-1.012.113c-.338,0-.45.084-.45.225,0,.2.2.281.562.281,1.125,0,2.9-.085,3.543-.085.787,0,2.559.085,4.414.085.309,0,.534-.085.534-.281,0-.141-.141-.225-.45-.225a11.839,11.839,0,0,1-1.434-.113c-.843-.113-1.012-.731-1.1-1.518-.14-1.209-.14-3.43-.14-6.017V388.748l3.543.084c2.5.056,3.262.843,3.318,1.574l.028.309c.028.422.085.562.309.562.169,0,.225-.168.253-.45,0-.731.085-2.671.085-3.262,0-.422-.028-.59-.225-.59a6.769,6.769,0,0,0-.759.141,13.473,13.473,0,0,1-1.94.141H504.822c-.928,0-2-.056-2.812-.141a6.521,6.521,0,0,1-1.209-.337c-.169,0-.253.168-.337.534-.056.225-.591,2.784-.591,3.234,0,.309.056.45.253.45.169,0,.253-.113.309-.338a3.333,3.333,0,0,1,.478-.984c.422-.618,1.1-.759,2.727-.815l4.19-.112Z" transform="translate(-260.352 -183.641)" fill="#00365f"/>
    <path id="Path_239" data-name="Path 239" d="M565.229,401.023c0,2.727,0,4.949-.141,6.13-.085.815-.253,1.293-.815,1.406a4.588,4.588,0,0,1-1.013.113c-.337,0-.45.084-.45.225,0,.2.2.281.562.281,1.125,0,2.9-.085,3.543-.085.76,0,2.531.085,4.386.085.309,0,.534-.085.534-.281,0-.141-.141-.225-.45-.225a11.838,11.838,0,0,1-1.434-.113c-.843-.112-1.04-.619-1.125-1.378-.113-1.209-.113-3.431-.113-6.158v-4.949c0-4.274,0-5.061.056-5.961.056-.984.281-1.462,1.04-1.6a4.75,4.75,0,0,1,.844-.085c.281,0,.45-.056.45-.281,0-.169-.225-.225-.591-.225-1.068,0-2.727.084-3.43.084-.815,0-2.587-.084-3.655-.084-.45,0-.675.056-.675.225,0,.225.169.281.45.281a4,4,0,0,1,1.012.113c.619.141.9.619.956,1.574.056.9.056,1.687.056,5.961Z" transform="translate(-301.527 -184.388)" fill="#00365f"/>
    <path id="Path_240" data-name="Path 240" d="M609.559,407.418c-5.4,0-8.632-4.639-8.632-10.488,0-7,3.684-8.8,6.917-8.8,4.611,0,8.238,3.908,8.238,10.206,0,8.126-4.555,9.082-6.523,9.082m-1.181,1.406c7.142,0,11.64-5.089,11.64-11.528s-4.358-10.516-11.359-10.516c-8.435,0-11.612,6.214-11.612,11.022C597.047,402.779,600.309,408.824,608.378,408.824Z" transform="translate(-323.982 -183.641)" fill="#00365f"/>
    <path id="Path_241" data-name="Path 241" d="M675.662,392.881h.084c.506.534,3.627,3.965,6.687,7,2.924,2.9,6.523,6.579,8.29,8.266.309.309.647.619.956.619.253,0,.366-.253.366-.872l.309-17.742c.028-1.574.253-2.165,1.04-2.39a3.054,3.054,0,0,1,.844-.085q.506,0,.506-.253c0-.225-.281-.253-.647-.253-1.378,0-2.446.084-2.756.084-.59,0-1.94-.084-3.4-.084-.422,0-.731.028-.731.253,0,.169.113.253.45.253a4.54,4.54,0,0,1,1.485.169c.675.281.928.815.956,2.531L690.386,403h-.141c-.478-.45-4.27-4.5-6.182-6.411-4.1-4.077-8.374-8.576-8.711-8.941-.483-.506-.736-.872-1.045-.872-.281,0-.365.394-.365.956l-.253,16.561c-.028,2.446-.141,3.262-.872,3.487a4.987,4.987,0,0,1-1.265.141c-.281,0-.45.056-.45.225,0,.253.253.281.619.281,1.462,0,2.784-.085,3.037-.085.539,0,1.663.085,3.491.085.394,0,.647-.056.647-.281,0-.169-.169-.225-.478-.225a4.467,4.467,0,0,1-1.462-.2c-.562-.2-.928-.928-.984-3.121Z" transform="translate(-372.473 -183.641)" fill="#00365f"/>
    <g id="Group_135" data-name="Group 135" transform="translate(102.27 122.325)">
      <g id="Group_134" data-name="Group 134" transform="translate(0 0)" clip-path="url(#clip-path)">
        <rect id="Rectangle_13" data-name="Rectangle 13" width="74.081" height="46.386" transform="translate(-7.453 0)" fill="url(#linear-gradient)"/>
      </g>
    </g>
    <g id="Group_137" data-name="Group 137" transform="translate(109.273 125.15)">
      <g id="Group_136" data-name="Group 136" transform="translate(0 0)" clip-path="url(#clip-path-2)">
        <rect id="Rectangle_14" data-name="Rectangle 14" width="29.077" height="34.45" transform="translate(-2.838 0)" fill="url(#linear-gradient-2)"/>
      </g>
    </g>
    <g id="Group_139" data-name="Group 139" transform="translate(102.997 106.328)">
      <g id="Group_138" data-name="Group 138" transform="translate(0 0)" clip-path="url(#clip-path-3)">
        <rect id="Rectangle_15" data-name="Rectangle 15" width="74.08" height="46.386" transform="translate(-1.484 -0.53)" fill="url(#linear-gradient-3)"/>
      </g>
    </g>
    <g id="Group_141" data-name="Group 141" transform="translate(134.9 116.85)">
      <g id="Group_140" data-name="Group 140" transform="translate(0)" clip-path="url(#clip-path-4)">
        <rect id="Rectangle_16" data-name="Rectangle 16" width="29.077" height="34.45" transform="translate(0 -1.941)" fill="url(#linear-gradient-4)"/>
      </g>
    </g>
  </g>
</svg>
