<svg xmlns="http://www.w3.org/2000/svg" xmlns:xlink="http://www.w3.org/1999/xlink" viewBox="-7.45 -0.53 80.78 62.91">
  <defs>
    <clipPath id="clip-path">
      <path id="Path_242" data-name="Path 242" d="M167.393,198.036c-.029-.715,1.5-17.826-16.841-19.876-10.514-1.383-13.466,0-27.614-8.345.98,12.6,18.151,15.931,18.151,15.931s-21.545,10.285-29.683-3.186c-7.477-15.256,1.205-26.017-7.9-29.89,1.162,6.55-8.694,33.181,13.066,43.084,9.3,3.3,20.821,3.225,29.119,1.978a61.4,61.4,0,0,1,21.7.3" transform="translate(-102.27 -152.671)" fill="none" clip-rule="evenodd"/>
    </clipPath>
    <linearGradient id="linear-gradient" x1="0.101" y1="0.5" x2="0.98" y2="0.5" gradientUnits="objectBoundingBox">
      <stop offset="0" stop-color="#40b459"/>
      <stop offset="0.136" stop-color="#339a59"/>
      <stop offset="0.416" stop-color="#1d6b59"/>
      <stop offset="0.663" stop-color="#0d4859"/>
      <stop offset="0.866" stop-color="#033359"/>
      <stop offset="1" stop-color="#002c5a"/>
    </linearGradient>
    <clipPath id="clip-path-2">
      <path id="Path_243" data-name="Path 243" d="M122.556,160.854c1.274,8.029-2.838,22.972,7.249,30.02,6.7,4.43,17.15,1.76,18.989.946,0,.232-17.414,1.661-20.408-7.091-5.309-12.2,3.865-20.554-5.831-23.874" transform="translate(-122.556 -160.854)" fill="none" clip-rule="evenodd"/>
    </clipPath>
    <linearGradient id="linear-gradient-2" x1="0.098" x2="1" xlink:href="#linear-gradient"/>
    <clipPath id="clip-path-3">
      <path id="Path_244" data-name="Path 244" d="M104.4,106.818c.029.715-1.5,17.827,16.841,19.876,10.514,1.382,13.465,0,27.614,8.345-.98-12.6-18.151-15.931-18.151-15.931s21.545-10.285,29.682,3.186c7.477,15.256-1.2,26.017,7.9,29.89-1.162-6.55,8.694-33.181-13.066-43.084-9.3-3.3-20.821-3.225-29.119-1.978a61.392,61.392,0,0,1-21.7-.3" transform="translate(-104.377 -106.328)" fill="none" clip-rule="evenodd"/>
    </clipPath>
    <linearGradient id="linear-gradient-3" x1="0.899" x2="0.02" xlink:href="#linear-gradient"/>
    <clipPath id="clip-path-4">
      <path id="Path_245" data-name="Path 245" d="M223.034,169.32c-1.274-8.029,2.838-22.972-7.249-30.02-6.7-4.43-17.151-1.76-18.989-.946,0-.232,17.414-1.661,20.408,7.092,5.308,12.2-3.865,20.554,5.831,23.874" transform="translate(-196.796 -136.811)" fill="none" clip-rule="evenodd"/>
    </clipPath>
    <linearGradient id="linear-gradient-4" x1="0.902" x2="0" xlink:href="#linear-gradient"/>
  </defs>
  <g id="Logo" transform="translate(-102.27 -106.328)">
    <g id="Group_135" data-name="Group 135" transform="translate(102.27 122.325)">
      <g id="Group_134" data-name="Group 134" transform="translate(0 0)" clip-path="url(#clip-path)">
        <rect id="Rectangle_13" data-name="Rectangle 13" width="74.081" height="46.386" transform="translate(-7.453 0)" fill="url(#linear-gradient)"/>
      </g>
    </g>
    <g id="Group_137" data-name="Group 137" transform="translate(109.273 125.15)">
      <g id="Group_136" data-name="Group 136" transform="translate(0 0)" clip-path="url(#clip-path-2)">
        <rect id="Rectangle_14" data-name="Rectangle 14" width="29.077" height="34.45" transform="translate(-2.838 0)" fill="url(#linear-gradient-2)"/>
      </g>
    </g>
    <g id="Group_139" data-name="Group 139" transform="translate(102.997 106.328)">
      <g id="Group_138" data-name="Group 138" transform="translate(0 0)" clip-path="url(#clip-path-3)">
        <rect id="Rectangle_15" data-name="Rectangle 15" width="74.08" height="46.386" transform="translate(-1.484 -0.53)" fill="url(#linear-gradient-3)"/>
      </g>
    </g>
    <g id="Group_141" data-name="Group 141" transform="translate(134.9 116.85)">
      <g id="Group_140" data-name="Group 140" transform="translate(0)" clip-path="url(#clip-path-4)">
        <rect id="Rectangle_16" data-name="Rectangle 16" width="29.077" height="34.45" transform="translate(0 -1.941)" fill="url(#linear-gradient-4)"/>
      </g>
    </g>
  </g>
</svg>