<svg xmlns="http://www.w3.org/2000/svg" width="44.842" height="42" viewBox="0 0 44.842 42">
  <g id="members" transform="translate(0 -16.224)">
    <g id="Group_91" data-name="Group 91" transform="translate(0 16.224)">
      <path id="Path_150" data-name="Path 150" d="M44.185,51.754a.657.657,0,0,0-.657.657V56.8a.111.111,0,0,1-.111.111h-2.5v-9.6a.657.657,0,0,0-1.314,0v9.6H34.785l1.305-1.436a1.05,1.05,0,0,0,.254-.843l0-.02-1.467-8.67.27-.406.07.05a1.028,1.028,0,0,0,1.515-.379h0l1.493-2.993,3.411,1.321A3.269,3.269,0,0,1,43.528,46.5v2.847a.657.657,0,1,0,1.314,0V46.5a4.58,4.58,0,0,0-2.71-4.18l-.013,0L36.31,40.064v-1.2a4.8,4.8,0,0,0,1.735-2.979,2.292,2.292,0,0,0,1.22-.537,2.262,2.262,0,0,0,.276-3.145V30.434a6.286,6.286,0,0,0-10.373-4.78,2.258,2.258,0,0,0-.508-1.367V22.515a6.291,6.291,0,1,0-12.581,0v1.819a2.143,2.143,0,0,0-.508,1.315,6.262,6.262,0,0,0-2.478-1.3.657.657,0,0,0-.335,1.271,4.978,4.978,0,0,1,3.706,4.813v.982l-.123-.022a.757.757,0,0,0-.157-.444c-.168-.242-.47-.543-1.441-1.587a1.038,1.038,0,0,0-1.331-.162,9.386,9.386,0,0,1-5.56,1.53A1.05,1.05,0,0,0,6.7,31.4l-.186.037V30.434a5.009,5.009,0,0,1,3.539-4.765.657.657,0,1,0-.379-1.258,6.341,6.341,0,0,0-3.207,2.238A6.234,6.234,0,0,0,5.2,30.434v1.819a2.141,2.141,0,0,0-.51,1.385,2.268,2.268,0,0,0,2.009,2.252,4.852,4.852,0,0,0,1.83,3.056v1.119l-5.8,2.249-.012,0A4.58,4.58,0,0,0,0,46.5V56.8a1.426,1.426,0,0,0,1.425,1.424H21.653A1.415,1.415,0,0,0,22.421,58a1.415,1.415,0,0,0,.768.226H43.417A1.426,1.426,0,0,0,44.842,56.8V52.411A.657.657,0,0,0,44.185,51.754ZM6.63,34.531A.948.948,0,0,1,6,33.637a.97.97,0,0,1,.631-.855Zm30.362,7.205L35.7,44.321l-1.453-1.032,1.612-1.99Zm-3.691.637-1.7-2.1v-.63a5.3,5.3,0,0,0,1.707.279h0A4.856,4.856,0,0,0,35,39.62v.661Zm.771,2.4-.242.364H32.772l-.242-.364.771-.548ZM22.419,34.455l-1.7-2.1v-.63a5.3,5.3,0,0,0,1.707.279h0a4.855,4.855,0,0,0,1.687-.306v.661Zm.771,2.4-.242.364H21.89l-.242-.364.771-.548Zm-5.944-8.948a2.349,2.349,0,0,0,.33.063,4.852,4.852,0,0,0,1.83,3.056v1.119l-1.34.519a2.251,2.251,0,0,0-.29-.458V30.434A6.275,6.275,0,0,0,17.246,27.906Zm8.663-.7a3.542,3.542,0,0,1-7.084,0V24.134a10.757,10.757,0,0,0,5.991-1.628c.592.635.945,1,1.093,1.175C25.91,25.317,25.91,25.948,25.91,27.211Zm1.253.758a2.363,2.363,0,0,0,.328-.063,6.253,6.253,0,0,0-.532,2.528v1.819a2.241,2.241,0,0,0-.26.384l-1.271-.492v-1.2A4.8,4.8,0,0,0,27.163,27.969Zm-7.308,5.412,1.613,1.99-1.1.781h0l-.349.248-1.289-2.584Zm4.076,1.295,1.05-1.3,1.13.437L24.821,36.4l-.35-.248h0l-1.1-.783Zm.331,2.94.07.05a1.028,1.028,0,0,0,1.515-.379h0l1.109-2.222a2.306,2.306,0,0,0,1.5.826,4.775,4.775,0,0,0,1.833,3.054v1.119L24.7,42.229l-.712-4.207ZM30.737,41.3l1.613,1.99-1.45,1.03L29.61,41.737Zm6.054-6.17a3.542,3.542,0,0,1-7.084,0V32.053A10.762,10.762,0,0,0,35.7,30.425c.592.635.945,1,1.093,1.175C36.792,33.236,36.792,33.867,36.792,35.13Zm1.945-1.493a.948.948,0,0,1-.631.894V32.745A.947.947,0,0,1,38.737,33.637Zm-10.464-3.2a4.977,4.977,0,1,1,9.954,0v.982l-.123-.022a.757.757,0,0,0-.157-.444c-.173-.248-.471-.544-1.441-1.587a1.039,1.039,0,0,0-1.331-.162,9.4,9.4,0,0,1-5.609,1.528,1.033,1.033,0,0,0-1.106.675l-.186.037V30.434Zm.121,2.348v1.748a.946.946,0,0,1-.631-.894A.97.97,0,0,1,28.394,32.782Zm-.539-7.064a.945.945,0,0,1-.328.718.972.972,0,0,1-.3.177V24.825A.947.947,0,0,1,27.855,25.718Zm-5.487-8.18a4.983,4.983,0,0,1,4.977,4.977V23.5l-.123-.022a.8.8,0,0,0-.186-.485c-.176-.238-.5-.565-1.412-1.546a1.039,1.039,0,0,0-1.331-.162,9.383,9.383,0,0,1-5.662,1.525,1.044,1.044,0,0,0-1.053.678l-.186.037V22.515h0A4.983,4.983,0,0,1,22.368,17.538Zm-4.856,7.325v1.749a.948.948,0,0,1-.631-.894A.97.97,0,0,1,17.512,24.863Zm-1.17,7.882a.949.949,0,0,1,0,1.786Zm-.061,3.146a2.3,2.3,0,0,0,1.561-.906l1.149,2.3h0a1.028,1.028,0,0,0,1.515.379l.07-.05.27.406-.712,4.205-5.588-2.164v-1.2h0A4.8,4.8,0,0,0,16.281,35.89Zm-4.744,6.484-1.7-2.1v-.63a5.3,5.3,0,0,0,1.707.279h0a4.854,4.854,0,0,0,1.687-.306v.661Zm.771,2.4-.242.364H11.008l-.242-.364.771-.548ZM14.1,41.3l1.13.438-1.289,2.584-.35-.248h0l-1.1-.782ZM7.944,35.13V32.053a10.766,10.766,0,0,0,5.991-1.628c.587.629.945,1,1.093,1.175v3.53a3.542,3.542,0,0,1-7.084,0ZM8.973,41.3l1.613,1.99-1.1.781h0l-.349.248L7.846,41.737ZM5.234,56.91v-9.6a.657.657,0,0,0-1.314,0v9.6h-2.5a.111.111,0,0,1-.111-.111V46.5a3.27,3.27,0,0,1,1.893-2.964l3.409-1.322,1.493,2.993h0a1.028,1.028,0,0,0,1.515.379l.07-.05.27.406L8.5,54.612l0,.02a1.051,1.051,0,0,0,.255.843l1.305,1.436H5.234Zm4.581-2.216,1.4-8.243h.653l1.4,8.243-1.722,1.894Zm11.948,2.1a.111.111,0,0,1-.111.111h-2.5v-9.6a.657.657,0,0,0-1.314,0v9.6H13.021l1.305-1.436a1.05,1.05,0,0,0,.254-.843l0-.02-1.467-8.67.27-.406.07.05a1.028,1.028,0,0,0,1.516-.379h0l1.493-2.993,3.411,1.321A3.262,3.262,0,0,1,21.764,46.5V56.8Zm.657-12.688a4.677,4.677,0,0,0-1.071-1.19l.743-4.389h.653l.743,4.391A4.68,4.68,0,0,0,22.421,44.111ZM27,56.91h0v-9.6a.657.657,0,0,0-1.314,0v9.6h-2.5a.111.111,0,0,1-.111-.111V46.5a3.14,3.14,0,0,1,.767-2.1,3.536,3.536,0,0,1,1.126-.859l3.409-1.322,1.493,2.993h0a1.028,1.028,0,0,0,1.515.379l.07-.05.27.406-1.467,8.67,0,.02a1.051,1.051,0,0,0,.255.843l1.305,1.436H27Zm4.581-2.215,1.4-8.243h.653l1.4,8.243L33.3,56.589Z" transform="translate(0 -16.224)" fill="#3dae59"/>
    </g>
  </g>
</svg>
