<svg width="50" height="45" viewBox="0 0 50 45" fill="none" xmlns="http://www.w3.org/2000/svg">
<path d="M5.13451 25.8078C5.59097 25.8078 5.96143 26.1783 5.96143 26.6347C5.96143 27.0912 5.59097 27.4617 5.13451 27.4617C4.67805 27.4617 4.30759 27.0912 4.30759 26.6347C4.30759 26.1783 4.67805 25.8078 5.13451 25.8078Z" fill="#49928D"/>
<path d="M8.44231 37.9414C8.43952 39.0047 7.60784 39.8651 6.58173 39.8651H1V22.4997H6.58173C7.6097 22.4997 8.44231 23.3633 8.44231 24.4292V37.9414Z" stroke="#BED2D1" stroke-width="2" stroke-miterlimit="10" stroke-linecap="round" stroke-linejoin="round"/>
<path d="M33.0353 34.1374L45.1203 30.1183C46.4097 29.6681 47.937 30.0934 48.5881 31.2591C49.4722 32.8415 48.6982 34.5866 47.1965 35.1679L28.8201 42.9962C27.3174 43.6575 25.6858 44 24.0355 44C21.9407 44 19.8852 43.4491 18.0894 42.4062L12.9458 39.4204C11.7587 38.7314 9.82224 38.3452 8.44241 38.2966" stroke="#BED2D1" stroke-width="2" stroke-miterlimit="10" stroke-linecap="round" stroke-linejoin="round"/>
<path d="M8.44241 24.1537H16.3182C17.3438 24.1537 18.3516 24.4167 19.2449 24.9188L24.5014 27.8679C24.7998 28.0356 25.1351 28.1229 25.4773 28.1229H31.9196C33.5679 28.1229 34.904 29.4556 34.904 31.0999C34.904 32.2112 34.2941 33.1797 33.3889 33.6908C32.9551 33.9369 32.4538 34.0768 31.9196 34.0768H21.8065" stroke="#BED2D1" stroke-width="2" stroke-miterlimit="10" stroke-linecap="round" stroke-linejoin="round"/>
<path d="M16.7116 5.59718C17.495 2.95593 19.723 0.999999 22.6847 0.999999C27.4555 0.999999 28.9626 6.375 28.9626 6.375C28.9626 6.375 30.4696 0.999999 35.2414 0.999999C38.9578 0.999999 41.5193 4.08167 41.5193 7.73179C41.5193 12.5622 36.9091 15.7957 29.0786 22.5C24.3615 18.4612 20.5353 15.6392 18.3641 12.8296" stroke="#BED2D1" stroke-width="2" stroke-miterlimit="10" stroke-linecap="round" stroke-linejoin="round"/>
<path d="M16.298 8.44245C16.9827 8.44245 17.5384 8.99814 17.5384 9.68283C17.5384 10.3675 16.9827 10.9232 16.298 10.9232C15.6133 10.9232 15.0576 10.3675 15.0576 9.68283C15.0576 8.99814 15.6133 8.44245 16.298 8.44245Z" fill="#49928D"/>
</svg>
