<svg width="47" height="47" viewBox="0 0 47 47" fill="none" xmlns="http://www.w3.org/2000/svg">
<path d="M23.5 40.42C17.625 40.42 12.4315 37.412 9.4 32.9C9.4705 28.2 18.8 25.615 23.5 25.615C28.2 25.615 37.5295 28.2 37.6 32.9C36.0464 35.2134 33.9478 37.1092 31.489 38.4206C29.0302 39.7319 26.2866 40.4186 23.5 40.42ZM23.5 7.05C25.3698 7.05 27.163 7.79277 28.4851 9.1149C29.8072 10.437 30.55 12.2302 30.55 14.1C30.55 15.9698 29.8072 17.763 28.4851 19.0851C27.163 20.4072 25.3698 21.15 23.5 21.15C21.6302 21.15 19.837 20.4072 18.5149 19.0851C17.1928 17.763 16.45 15.9698 16.45 14.1C16.45 12.2302 17.1928 10.437 18.5149 9.1149C19.837 7.79277 21.6302 7.05 23.5 7.05ZM23.5 0C20.4139 0 17.3581 0.607846 14.5069 1.78883C11.6558 2.96982 9.06517 4.70081 6.88299 6.88299C2.47589 11.2901 0 17.2674 0 23.5C0 29.7326 2.47589 35.7099 6.88299 40.117C9.06517 42.2992 11.6558 44.0302 14.5069 45.2112C17.3581 46.3922 20.4139 47 23.5 47C29.7326 47 35.7099 44.5241 40.117 40.117C44.5241 35.7099 47 29.7326 47 23.5C47 10.5045 36.425 0 23.5 0Z" fill="#616161"/>
</svg>
