<svg width="22" height="22" viewBox="0 0 22 22" fill="none" xmlns="http://www.w3.org/2000/svg">
<path fill-rule="evenodd" clip-rule="evenodd" d="M0 11C0 8.08262 1.15893 5.28473 3.22183 3.22183C5.28473 1.15893 8.08262 0 11 0C13.9174 0 16.7153 1.15893 18.7782 3.22183C20.8411 5.28473 22 8.08262 22 11C22 13.9174 20.8411 16.7153 18.7782 18.7782C16.7153 20.8411 13.9174 22 11 22C8.08262 22 5.28473 20.8411 3.22183 18.7782C1.15893 16.7153 0 13.9174 0 11V11ZM11 1.57783C9.17372 1.5779 7.38683 2.10871 5.85669 3.10568C4.32655 4.10266 3.11913 5.52284 2.38132 7.19344C1.6435 8.86404 1.40709 10.7131 1.70085 12.5156C1.9946 14.318 2.80586 15.9963 4.03594 17.3462C4.78271 16.1765 5.81227 15.214 7.02948 14.5474C8.24668 13.8809 9.61226 13.532 11 13.5328C12.3878 13.5318 13.7534 13.8807 14.9706 14.5472C16.1879 15.2138 17.2174 16.1764 17.9641 17.3462C19.1941 15.9963 20.0054 14.318 20.2992 12.5156C20.5929 10.7131 20.3565 8.86404 19.6187 7.19344C18.8809 5.52284 17.6734 4.10266 16.1433 3.10568C14.6132 2.10871 12.8263 1.5779 11 1.57783V1.57783ZM16.7832 18.4391C16.1954 17.4261 15.3518 16.5855 14.3368 16.0013C13.3218 15.4171 12.1711 15.11 11 15.1107C9.8289 15.11 8.67819 15.4171 7.66319 16.0013C6.64819 16.5855 5.80455 17.4261 5.21682 18.4391C6.869 19.7274 8.90491 20.4255 11 20.4222C13.1791 20.4222 15.1854 19.6814 16.7832 18.4391ZM7.09694 9.34743C7.09694 8.31227 7.50815 7.31951 8.24012 6.58754C8.97208 5.85558 9.96484 5.44436 11 5.44436C12.0352 5.44436 13.0279 5.85558 13.7599 6.58754C14.4919 7.31951 14.9031 8.31227 14.9031 9.34743C14.9031 10.3826 14.4919 11.3753 13.7599 12.1073C13.0279 12.8393 12.0352 13.2505 11 13.2505C9.96484 13.2505 8.97208 12.8393 8.24012 12.1073C7.50815 11.3753 7.09694 10.3826 7.09694 9.34743V9.34743ZM11 7.0222C10.6946 7.0222 10.3923 7.08234 10.1102 7.19919C9.82806 7.31605 9.57173 7.48732 9.35581 7.70324C9.1399 7.91916 8.96862 8.17549 8.85177 8.4576C8.73491 8.73971 8.67477 9.04207 8.67477 9.34743C8.67477 9.65278 8.73491 9.95514 8.85177 10.2373C8.96862 10.5194 9.1399 10.7757 9.35581 10.9916C9.57173 11.2075 9.82806 11.3788 10.1102 11.4957C10.3923 11.6125 10.6946 11.6727 11 11.6727C11.6167 11.6727 12.2081 11.4277 12.6442 10.9916C13.0803 10.5555 13.3252 9.96412 13.3252 9.34743C13.3252 8.73074 13.0803 8.1393 12.6442 7.70324C12.2081 7.26717 11.6167 7.0222 11 7.0222V7.0222Z" fill="#19406B"/>
</svg>
