<svg width="14" height="16" viewBox="0 0 14 16" fill="none" xmlns="http://www.w3.org/2000/svg">
<path d="M6.62282 9.61192V15.4532H2.56033e-08C-7.78699e-05 14.618 0.177587 13.7923 0.521192 13.031C0.864797 12.2696 1.36647 11.5902 1.99289 11.0377C2.61931 10.4852 3.35613 10.0723 4.1544 9.82647C4.95267 9.58065 5.79411 9.50751 6.62282 9.61192ZM5.88695 8.83043C3.44755 8.83043 1.47174 6.85462 1.47174 4.41521C1.47174 1.97581 3.44755 0 5.88695 0C8.32636 0 10.3022 1.97581 10.3022 4.41521C10.3022 6.85462 8.32636 8.83043 5.88695 8.83043ZM10.1498 13.9182L12.7511 11.3169L13.7924 12.3574L10.1498 16L7.54781 13.398L8.58906 12.3574L10.1491 13.9182H10.1498Z" fill="#3BA32C"/>
</svg>
