<svg xmlns="http://www.w3.org/2000/svg" width="35.612" height="42" viewBox="0 0 35.612 42">
  <g id="resumes" transform="translate(-38.937)">
    <g id="Group_93" data-name="Group 93" transform="translate(38.937)">
      <g id="Group_92" data-name="Group 92">
        <path id="Path_151" data-name="Path 151" d="M65.515,0H41.4a2.464,2.464,0,0,0-2.461,2.461v8.367a.82.82,0,0,0,1.641,0V2.461a.821.821,0,0,1,.82-.82H65.515a.821.821,0,0,1,.82.82V32.977a.821.821,0,0,1-.82.82H41.4a.821.821,0,0,1-.82-.82V17.746a.82.82,0,1,0-1.641,0v15.23A2.464,2.464,0,0,0,41.4,35.438H65.515a2.464,2.464,0,0,0,2.461-2.461V2.461A2.464,2.464,0,0,0,65.515,0Z" transform="translate(-38.937)" fill="#3dae59"/>
      </g>
    </g>
    <g id="Group_95" data-name="Group 95" transform="translate(38.937 13.681)">
      <g id="Group_94" data-name="Group 94">
        <path id="Path_152" data-name="Path 152" d="M40.337,167.02a.821.821,0,1,0,.24.58A.825.825,0,0,0,40.337,167.02Z" transform="translate(-38.937 -166.78)" fill="#3dae59"/>
      </g>
    </g>
    <g id="Group_97" data-name="Group 97" transform="translate(42.223 37.083)">
      <g id="Group_96" data-name="Group 96">
        <path id="Path_153" data-name="Path 153" d="M80.4,452.3a.82.82,0,1,0,.24.58A.825.825,0,0,0,80.4,452.3Z" transform="translate(-78.996 -452.06)" fill="#3dae59"/>
      </g>
    </g>
    <g id="Group_99" data-name="Group 99" transform="translate(45.505 3.286)">
      <g id="Group_98" data-name="Group 98">
        <path id="Path_154" data-name="Path 154" d="M143.938,40.063a.82.82,0,0,0-.82.82V73.04a.821.821,0,0,1-.82.82H119.82a.82.82,0,0,0,0,1.641H142.3a2.464,2.464,0,0,0,2.461-2.461V40.883A.82.82,0,0,0,143.938,40.063Z" transform="translate(-119 -40.063)" fill="#3dae59"/>
      </g>
    </g>
    <g id="Group_101" data-name="Group 101" transform="translate(45.51 6.563)">
      <g id="Group_100" data-name="Group 100">
        <path id="Path_155" data-name="Path 155" d="M147.282,80a.82.82,0,0,0-.82.82v32.156a.821.821,0,0,1-.82.82H119.883a.82.82,0,0,0,0,1.641h25.758a2.464,2.464,0,0,0,2.461-2.461V80.82A.82.82,0,0,0,147.282,80Z" transform="translate(-119.063 -80)" fill="#3dae59"/>
      </g>
    </g>
    <g id="Group_103" data-name="Group 103" transform="translate(43.531 6.07)">
      <g id="Group_102" data-name="Group 102">
        <path id="Path_156" data-name="Path 156" d="M103.632,74H95.757a.82.82,0,0,0-.82.82V82.7a.82.82,0,0,0,.82.82h7.875a.82.82,0,0,0,.82-.82V74.82A.82.82,0,0,0,103.632,74Zm-.82,7.875H96.578V75.641h6.234Z" transform="translate(-94.937 -74)" fill="#3dae59"/>
      </g>
    </g>
    <g id="Group_105" data-name="Group 105" transform="translate(43.831 19.07)">
      <g id="Group_104" data-name="Group 104">
        <path id="Path_157" data-name="Path 157" d="M104.358,232.714a.821.821,0,0,0-1.16,0l-2.181,2.181L100,233.88a.82.82,0,0,0-1.16,1.16l1.594,1.594a.82.82,0,0,0,1.16,0l2.761-2.761A.82.82,0,0,0,104.358,232.714Z" transform="translate(-98.603 -232.474)" fill="#3dae59"/>
      </g>
    </g>
    <g id="Group_107" data-name="Group 107" transform="translate(52.636 20.426)">
      <g id="Group_106" data-name="Group 106">
        <path id="Path_158" data-name="Path 158" d="M216.328,249h-9.57a.82.82,0,0,0,0,1.641h9.57a.82.82,0,0,0,0-1.641Z" transform="translate(-205.937 -249)" fill="#3dae59"/>
      </g>
    </g>
    <g id="Group_109" data-name="Group 109" transform="translate(56 6.07)">
      <g id="Group_108" data-name="Group 108">
        <path id="Path_159" data-name="Path 159" d="M253.5,74h-5.742a.82.82,0,0,0,0,1.641H253.5a.82.82,0,0,0,0-1.641Z" transform="translate(-246.937 -74)" fill="#3dae59"/>
      </g>
    </g>
    <g id="Group_111" data-name="Group 111" transform="translate(56 10.008)">
      <g id="Group_110" data-name="Group 110">
        <path id="Path_160" data-name="Path 160" d="M253.5,122h-5.742a.82.82,0,0,0,0,1.641H253.5a.82.82,0,0,0,0-1.641Z" transform="translate(-246.937 -122)" fill="#3dae59"/>
      </g>
    </g>
    <g id="Group_113" data-name="Group 113" transform="translate(56 13.945)">
      <g id="Group_112" data-name="Group 112">
        <path id="Path_161" data-name="Path 161" d="M253.5,170h-5.742a.82.82,0,0,0,0,1.641H253.5a.82.82,0,0,0,0-1.641Z" transform="translate(-246.937 -170)" fill="#3dae59"/>
      </g>
    </g>
    <g id="Group_115" data-name="Group 115" transform="translate(43.831 25.335)">
      <g id="Group_114" data-name="Group 114">
        <path id="Path_162" data-name="Path 162" d="M104.358,309.081a.82.82,0,0,0-1.16,0l-2.181,2.181L100,310.247a.82.82,0,1,0-1.16,1.16L100.438,313a.82.82,0,0,0,1.16,0l2.761-2.761A.82.82,0,0,0,104.358,309.081Z" transform="translate(-98.603 -308.841)" fill="#3dae59"/>
      </g>
    </g>
    <g id="Group_117" data-name="Group 117" transform="translate(52.636 26.66)">
      <g id="Group_116" data-name="Group 116">
        <path id="Path_163" data-name="Path 163" d="M216.328,325h-9.57a.82.82,0,0,0,0,1.641h9.57a.82.82,0,0,0,0-1.641Z" transform="translate(-205.937 -325)" fill="#3dae59"/>
      </g>
    </g>
  </g>
</svg>
