<svg xmlns="http://www.w3.org/2000/svg" width="12" height="12.001" viewBox="0 0 12 12.001">
  <path id="skills" d="M14.316,14.073l-.57-2.277a.2.2,0,0,0-.052-.094l-3.4-3.4.488-.488a.613.613,0,0,1,.5-.186A2.619,2.619,0,0,0,14.1,4.346a.2.2,0,0,0-.337-.09l-1.4,1.4-1.186-.238-.239-1.186,1.4-1.4a.2.2,0,0,0-.09-.337A2.619,2.619,0,0,0,8.972,5.323a.614.614,0,0,1-.186.495L8.3,6.306,4.728,2.735A1.41,1.41,0,0,0,2.734,4.729L6.305,8.3l-.488.488a.61.61,0,0,1-.5.186,2.619,2.619,0,0,0-2.829,3.279.2.2,0,0,0,.337.09l1.4-1.4,1.186.238.24,1.186-1.4,1.4a.2.2,0,0,0,.09.337,2.619,2.619,0,0,0,3.278-2.829.614.614,0,0,1,.186-.495l.488-.488,3.4,3.4a.2.2,0,0,0,.093.053l2.277.57a.2.2,0,0,0,.244-.244Zm-1.5-.485-.774-.194v-.736l.471.094a.2.2,0,0,0,.237-.237l-.094-.471h.736l.194.774a1.4,1.4,0,0,0-.769.77Zm-.591-1.645.071.356-.356-.071L5.156,5.442l.284-.285ZM9.07,6.1a1.018,1.018,0,0,0,.3-.826,2.217,2.217,0,0,1,2.412-2.46L10.576,4.026a.2.2,0,0,0-.055.182l.286,1.423a.2.2,0,0,0,.158.158l1.423.286a.2.2,0,0,0,.182-.055l1.208-1.208a2.217,2.217,0,0,1-2.459,2.412,1.019,1.019,0,0,0-.826.3l-.488.487-.571-.571s.009,0,.013-.008l.805-.805a.2.2,0,1,0-.285-.285l-.805.805s-.005.009-.008.013l-.571-.571ZM6.01,4.587l7.055,7.055H12.5L5.725,4.872Zm-2.99-.143A1.007,1.007,0,1,1,4.443,3.02l.427.427L3.446,4.871Zm.712.712L5.155,3.732l.569.57L4.3,5.725Zm3.794,5.337a1.018,1.018,0,0,0-.3.826,2.217,2.217,0,0,1-2.412,2.46l1.208-1.208a.2.2,0,0,0,.055-.182l-.286-1.424a.2.2,0,0,0-.158-.158l-1.424-.286a.2.2,0,0,0-.181.055L2.818,11.785A2.217,2.217,0,0,1,5.277,9.372a1.016,1.016,0,0,0,.826-.3l.488-.488.571.571s-.009,0-.013.008l-.805.805a.2.2,0,1,0,.285.285l.805-.805s.005-.009.008-.013l.571.571ZM4.585,6.011l.285-.285L11.641,12.5v.568Zm8.63,7.677a.962.962,0,0,1,.471-.471l.157.628Z" transform="translate(-2.322 -2.323)" fill="#ff9333"/>
</svg>
