<svg width="89" height="48" viewBox="0 0 89 48" fill="none" xmlns="http://www.w3.org/2000/svg">
<path d="M3.34972 33.7156C3.34972 34.7598 3.34972 35.657 3.29309 36.1338C3.25871 36.4629 3.19076 36.7129 2.96346 36.7585C2.82913 36.7887 2.69185 36.8039 2.55415 36.8037C2.41785 36.8037 2.37215 36.8376 2.37215 36.8946C2.37215 36.9753 2.45304 37.008 2.59945 37.008C3.05446 37.008 3.77237 36.9741 4.03244 36.9741C4.35074 36.9741 5.06743 37.008 5.8177 37.008C5.94267 37.008 6.03368 36.9741 6.03368 36.8946C6.03368 36.8376 5.97705 36.8037 5.85167 36.8037C5.6576 36.8004 5.46392 36.7853 5.27168 36.7585C4.93032 36.7129 4.86238 36.4633 4.82678 36.1456C4.77016 35.6574 4.77016 34.7602 4.77016 33.716V29.0603L6.20314 29.0942C7.21428 29.1168 7.52247 29.435 7.54512 29.7302L7.55645 29.855C7.56777 30.025 7.59042 30.0819 7.68142 30.0819C7.74978 30.0819 7.77243 30.0136 7.78375 29.9002C7.78375 29.605 7.81773 28.8213 7.81773 28.583C7.81773 28.4126 7.8064 28.3444 7.72672 28.3444C7.62339 28.3575 7.5209 28.3765 7.41974 28.4013C7.15991 28.4392 6.89768 28.4582 6.6351 28.4583H2.13311C1.75778 28.4583 1.32421 28.4357 0.99579 28.4013C0.82877 28.3719 0.665008 28.3263 0.506804 28.2653C0.438451 28.2653 0.404478 28.3335 0.3701 28.4809C0.34745 28.5717 0.13147 29.605 0.13147 29.7863C0.13147 29.9111 0.154119 29.968 0.233796 29.968C0.302149 29.968 0.336125 29.9228 0.358775 29.832C0.400817 29.6898 0.466142 29.5555 0.552103 29.4346C0.722378 29.1847 0.997002 29.1281 1.65505 29.1055L3.34931 29.0603L3.34972 33.7156Z" fill="#00365F"/>
<path d="M11.4012 32.0355C11.3672 32.0355 11.3328 32.0129 11.3328 31.9547V31.7161C11.3328 29.9903 11.3328 29.6725 11.3555 29.3091C11.3781 28.9118 11.4691 28.7188 11.7761 28.663C11.8849 28.6427 11.9951 28.6314 12.1057 28.6291C12.2424 28.6291 12.3104 28.6065 12.3104 28.527C12.3104 28.4474 12.2295 28.4248 12.0718 28.4248C11.6269 28.4248 10.9118 28.4591 10.6388 28.4591C10.3318 28.4591 9.6151 28.4248 9.00114 28.4248C8.84178 28.4248 8.76251 28.4474 8.76251 28.527C8.76251 28.6065 8.83086 28.6291 8.95584 28.6291C9.10488 28.6262 9.25386 28.6376 9.40074 28.663C9.77607 28.7438 9.86707 28.9243 9.88972 29.3091C9.91237 29.6725 9.91237 29.9903 9.91237 31.7161V33.7144C9.91237 34.759 9.91238 35.6558 9.85535 36.1327C9.81005 36.4618 9.75302 36.7117 9.52572 36.7574C9.39138 36.7875 9.2541 36.8027 9.11641 36.8026C8.98011 36.8026 8.9344 36.8365 8.9344 36.8934C8.9344 36.9742 9.0153 37.0069 9.16171 37.0069C9.61672 37.0069 10.3346 36.973 10.5947 36.973C10.913 36.973 11.6297 37.0069 12.3686 37.0069C12.5049 37.0069 12.5959 36.973 12.5959 36.8934C12.5959 36.8365 12.5389 36.8026 12.4139 36.8026C12.2199 36.7992 12.0262 36.7841 11.8339 36.7574C11.493 36.7117 11.4246 36.4622 11.389 36.1444C11.332 35.6562 11.332 34.759 11.332 33.7148V32.7159C11.3306 32.7066 11.3313 32.6971 11.3343 32.6881C11.3372 32.6792 11.3422 32.6711 11.3488 32.6644C11.3555 32.6578 11.3636 32.6528 11.3726 32.6499C11.3815 32.6469 11.3911 32.6462 11.4004 32.6476H15.7446C15.7537 32.6472 15.7628 32.6487 15.7712 32.652C15.7797 32.6553 15.7874 32.6603 15.7938 32.6667C15.8003 32.6731 15.8053 32.6808 15.8086 32.6893C15.8119 32.6977 15.8134 32.7068 15.813 32.7159V33.7148C15.813 34.7594 15.813 35.6562 15.7559 36.1331C15.7102 36.4622 15.6536 36.7121 15.4263 36.7577C15.292 36.7879 15.1547 36.8031 15.017 36.803C14.8807 36.803 14.835 36.8369 14.835 36.8938C14.835 36.9746 14.9159 37.0073 15.0736 37.0073C15.5185 37.0073 16.2336 36.9734 16.4953 36.9734C16.8136 36.9734 17.5303 37.0073 18.2692 37.0073C18.4055 37.0073 18.4965 36.9734 18.4965 36.8938C18.4965 36.8369 18.4395 36.803 18.3145 36.803C18.1204 36.7996 17.9268 36.7845 17.7345 36.7577C17.3936 36.7121 17.3252 36.4626 17.2896 36.1448C17.233 35.6566 17.233 34.7594 17.233 33.7152V31.7169C17.233 29.9911 17.233 29.6733 17.2557 29.3099C17.2783 28.9126 17.3693 28.7196 17.6763 28.6639C17.7851 28.6436 17.8953 28.6322 18.0059 28.6299C18.1426 28.6299 18.2106 28.6073 18.2106 28.5278C18.2106 28.4482 18.1297 28.4256 17.9715 28.4256C17.5266 28.4256 16.8116 28.4599 16.5386 28.4599C16.2316 28.4599 15.5149 28.4256 14.9009 28.4256C14.742 28.4256 14.6623 28.4482 14.6623 28.5278C14.6623 28.6073 14.7306 28.6299 14.8556 28.6299C15.0047 28.6271 15.1536 28.6384 15.3005 28.6639C15.6759 28.7446 15.7669 28.9251 15.7895 29.3099C15.8122 29.6733 15.8122 29.9911 15.8122 31.7169V31.9547C15.8122 32.0112 15.7778 32.0355 15.7438 32.0355H11.4012Z" fill="#00365F"/>
<path d="M20.9654 33.7156C20.9654 34.7602 20.9653 35.657 20.9083 36.1338C20.8626 36.4629 20.806 36.7129 20.5787 36.7585C20.4444 36.7887 20.3071 36.8038 20.1694 36.8037C20.0327 36.8037 19.9874 36.8376 19.9874 36.8946C19.9874 36.9753 20.0683 37.008 20.2147 37.008C20.442 37.008 20.7376 36.9854 20.9993 36.9854C21.2723 36.9741 21.5223 36.9741 21.6464 36.9741C21.9878 36.9741 22.3401 36.9854 22.8291 37.008C23.3181 37.0193 23.9438 37.0424 24.7967 37.0424C25.2287 37.0424 25.331 37.0424 25.4111 36.7472C25.4902 36.3311 25.5395 35.91 25.5587 35.487C25.5587 35.3735 25.5587 35.2827 25.4677 35.2827C25.3868 35.2827 25.3654 35.3279 25.3428 35.4531C25.2619 35.9186 25.1268 36.1569 24.8307 36.2933C24.4861 36.4053 24.1235 36.4515 23.7618 36.4294C22.6018 36.4294 22.4198 36.259 22.3971 35.4757C22.3858 35.1466 22.3971 34.1028 22.3971 33.716V32.8192C22.3971 32.7509 22.4084 32.7057 22.4655 32.7057C22.7385 32.7057 23.8641 32.717 24.0805 32.74C24.5011 32.7852 24.6605 32.9556 24.7175 33.1842C24.742 33.3192 24.7573 33.4557 24.7632 33.5928C24.7611 33.6067 24.7624 33.6209 24.7668 33.6342C24.7712 33.6475 24.7787 33.6596 24.7886 33.6695C24.7986 33.6795 24.8107 33.6869 24.824 33.6914C24.8374 33.6958 24.8516 33.697 24.8655 33.695C24.9678 33.695 24.9678 33.5702 24.9678 33.4793C24.9678 33.3986 25.0018 32.9459 25.0131 32.7186C25.0588 32.1396 25.1041 31.9579 25.1041 31.8896C25.1041 31.8214 25.0702 31.7988 25.0232 31.7988C24.9666 31.7988 24.9209 31.8557 24.8412 31.9466C24.6868 32.0691 24.4921 32.1299 24.2952 32.117C24.0335 32.1396 22.7259 32.1396 22.4752 32.1396C22.4068 32.1396 22.3943 32.0939 22.3943 32.0148V29.1386C22.3943 29.0579 22.4169 29.0252 22.4752 29.0252C22.7025 29.0252 23.8964 29.0478 24.0902 29.0704C24.6588 29.1386 24.7725 29.2747 24.8522 29.479C24.8981 29.6103 24.9212 29.7486 24.9205 29.8877C24.9205 29.9898 24.9432 30.0463 25.0228 30.0463C25.1025 30.0463 25.1252 29.9785 25.1365 29.9216C25.1591 29.7855 25.1822 29.286 25.1935 29.1722C25.2112 28.9249 25.2416 28.6786 25.2845 28.4344C25.2845 28.3775 25.2732 28.3323 25.2162 28.3323C25.1543 28.3421 25.0934 28.3574 25.0342 28.3779C24.8725 28.4093 24.7093 28.4319 24.5452 28.4457C24.3292 28.457 22.0659 28.457 21.7023 28.457C21.5429 28.457 21.2816 28.4457 20.9856 28.4344C20.7025 28.4344 20.3716 28.4231 20.0646 28.4231C19.8939 28.4231 19.8143 28.4457 19.8143 28.5253C19.8143 28.6048 19.8826 28.6275 20.0076 28.6275C20.1566 28.6246 20.3056 28.6359 20.4525 28.6614C20.8278 28.7421 20.9188 28.9226 20.9415 29.3074C20.9641 29.6708 20.9641 29.9886 20.9641 31.7144L20.9654 33.7156Z" fill="#00365F"/>
<path d="M33.905 37.277C35.7289 37.342 37.5325 36.8777 39.0974 35.9404C40.0543 35.338 40.8395 34.4995 41.3772 33.5058C41.9149 32.5121 42.187 31.3969 42.1672 30.2676C42.1672 27.1702 40.763 24.9207 36.8115 21.9537L35.897 21.2672C33.1871 19.2132 32.4353 18.0721 32.4353 16.5724C32.4353 14.6161 33.905 13.2141 36.3217 13.2141C38.4442 13.2141 39.3915 14.1925 39.8809 14.8119C40.3729 15.4284 40.6687 16.1778 40.7302 16.9637C40.7302 17.3549 40.8281 17.5504 41.0566 17.5504C41.3179 17.5504 41.4158 17.2895 41.4158 16.5724C41.4158 14.0286 41.5464 13.0837 41.5464 12.6601C41.5464 12.432 41.3846 12.3343 41.089 12.2689C39.6739 11.8839 38.2121 11.6975 36.7455 11.7149C32.2063 11.7149 29.2016 14.2906 29.2016 17.8766C29.2016 20.5174 30.4425 22.7996 34.0349 25.6035L35.537 26.7773C38.2469 28.8964 38.7375 30.3965 38.7375 31.9938C38.7375 33.7216 37.3005 35.7087 34.3613 35.7087C32.3366 35.7087 30.4098 34.8284 29.691 32.4158C29.5251 31.8757 29.4264 31.3172 29.397 30.753C29.397 30.4921 29.3642 30.1986 29.0706 30.1986C28.8093 30.1986 28.7114 30.5572 28.6787 31.0465C28.6459 31.5682 28.5169 33.5246 28.5169 35.3174C28.5169 36.0345 28.6148 36.1977 29.1373 36.4258C30.6468 37.0487 32.2734 37.338 33.9055 37.2737" fill="#00365F"/>
<path d="M51.8988 26.8767C51.7682 26.8767 51.737 26.779 51.7682 26.6485L54.7729 18.6608C54.8052 18.5304 54.8708 18.3673 54.9686 18.3673C55.0665 18.3673 55.0993 18.5288 55.1304 18.6608L58.0696 26.6813C58.1023 26.779 58.0696 26.8771 57.9078 26.8771L51.8988 26.8767ZM58.5282 28.5068C58.6007 28.5013 58.6728 28.521 58.7323 28.5626C58.7918 28.6042 58.835 28.6651 58.8546 28.7349L61.467 35.4511C61.5028 35.5187 61.5236 35.5931 61.5279 35.6695C61.5323 35.7458 61.5201 35.8221 61.4922 35.8933C61.4642 35.9645 61.4213 36.0288 61.3662 36.0819C61.3111 36.135 61.2452 36.1756 61.173 36.2009C60.8466 36.2336 60.7155 36.2986 60.7155 36.4945C60.7155 36.7226 61.1074 36.7226 61.6951 36.7553C64.3079 36.8207 66.6917 36.8207 67.8671 36.8207C69.0756 36.8207 69.3692 36.7553 69.3692 36.4949C69.3692 36.2667 69.2075 36.234 68.9446 36.234C68.4843 36.2347 68.025 36.191 67.573 36.1036C66.8855 35.9421 65.9403 35.4842 64.6994 32.5503C62.6092 27.5946 57.384 14.5535 56.6006 12.7603C56.2742 12.0105 56.078 11.7169 55.7844 11.7169C55.4576 11.7169 55.2619 12.0755 54.8699 13.0212L46.6737 33.2339C46.0205 34.864 45.4 35.9724 43.8979 36.1682C43.5622 36.2073 43.2247 36.2291 42.8868 36.2336C42.6255 36.2336 42.4948 36.299 42.4948 36.4945C42.4948 36.7553 42.6906 36.8203 43.1153 36.8203C44.814 36.8203 46.6098 36.7226 46.9689 36.7226C47.98 36.7226 49.3855 36.8203 50.4306 36.8203C50.7898 36.8203 50.986 36.7549 50.986 36.4945C50.986 36.299 50.8881 36.2336 50.4962 36.2336H50.0064C48.9952 36.2336 48.7 35.8097 48.7 35.2242C48.754 34.539 48.9194 33.8672 49.1898 33.2351L50.9532 28.7684C51.0187 28.573 51.0838 28.5076 51.2472 28.5076L58.5282 28.5068Z" fill="#00365F"/>
<path d="M74.1944 31.0498C74.1944 31.5715 74.1944 32.9408 74.0965 34.31C74.0314 35.2557 73.7374 35.9728 73.0854 36.1032C72.7103 36.1884 72.327 36.2321 71.9424 36.2336C71.5832 36.2336 71.4198 36.3314 71.4198 36.4945C71.4198 36.7553 71.6811 36.8203 72.1381 36.8203C73.3466 36.8203 75.4041 36.7226 76.2203 36.7226C77.102 36.7226 79.1595 36.8203 81.2169 36.8203C81.6416 36.8203 81.9045 36.7226 81.9045 36.4945C81.9045 36.333 81.7427 36.2336 81.382 36.2336C80.8356 36.2226 80.2903 36.1791 79.7492 36.1032C78.7696 35.9728 78.4755 35.2553 78.4104 34.31C78.3125 32.9408 78.3125 31.5715 78.3125 31.0498V28.3764C78.2412 27.2672 78.4083 26.1556 78.8024 25.1162C79.39 23.7142 83.9624 16.0524 85.0399 14.7486C85.7582 13.8683 86.1177 13.477 86.8033 13.1512C87.2488 12.9203 87.7386 12.7869 88.2399 12.7599C88.599 12.7599 88.8603 12.6622 88.8603 12.4341C88.8603 12.2382 88.6318 12.1732 88.2722 12.1732C87.6518 12.1732 85.4965 12.2709 84.7782 12.2709C83.8309 12.2709 82.7858 12.1732 81.7084 12.1732C81.3164 12.1732 81.153 12.2382 81.153 12.4668C81.153 12.6622 81.4471 12.7276 81.7407 12.7926C81.9375 12.8158 82.1182 12.913 82.2459 13.0643C82.3736 13.2157 82.4388 13.4098 82.4283 13.6075C82.3959 14.1984 82.2403 14.776 81.9712 15.3034C81.5142 16.3128 77.4009 23.4869 77.0725 24.2674C76.5499 23.3545 71.9764 15.4972 71.5209 14.5192C71.3187 14.179 71.1856 13.8024 71.129 13.4108C71.1262 13.2755 71.17 13.1433 71.2533 13.0365C71.3365 12.9297 71.454 12.8547 71.5861 12.8241C72.0759 12.6937 72.3044 12.6626 72.3044 12.4655C72.3044 12.2685 72.1426 12.172 71.8146 12.172C70.3448 12.172 69.006 12.2697 68.3201 12.2697C67.2422 12.2697 64.7933 12.172 64.2052 12.172C63.8133 12.172 63.5847 12.2697 63.5847 12.4655C63.5847 12.6937 63.8133 12.7591 64.0745 12.7591C64.5572 12.7989 65.0253 12.9436 65.446 13.1831C66.3541 13.8121 67.1213 14.6225 67.6993 15.563C68.8422 17.2589 73.2184 24.431 73.447 24.9526C73.9875 26.0105 74.2462 27.1894 74.198 28.3759L74.1944 31.0498Z" fill="#00365F"/>
<path d="M2.71268 43.6205C2.71268 43.5397 2.73533 43.5183 2.79357 43.5183C2.9869 43.5183 4.19258 43.5183 4.47651 43.5527C4.60186 43.5595 4.72274 43.6015 4.82531 43.6738C4.92789 43.746 5.00801 43.8457 5.0565 43.9613C5.09609 44.0748 5.11911 44.1934 5.12485 44.3134C5.12485 44.3941 5.1475 44.4725 5.21585 44.4725C5.3295 44.4725 5.3295 44.359 5.3295 44.2569C5.3295 44.1761 5.35216 43.6552 5.37481 43.4279C5.40918 43.0758 5.46581 42.7923 5.46581 42.7241C5.46581 42.6558 5.44316 42.6219 5.39745 42.6219C5.32951 42.6219 5.30645 42.6676 5.24983 42.7354C5.18963 42.8048 5.11416 42.8593 5.02933 42.8948C4.9445 42.9302 4.85261 42.9456 4.76084 42.9397C4.60149 42.951 4.44254 42.951 4.24921 42.951L2.79317 42.9623C2.72482 42.9623 2.71228 42.9284 2.71228 42.8602V40.0219C2.71228 39.8972 2.74666 39.8628 2.81461 39.8628L4.5659 39.8968C4.71001 39.8824 4.85536 39.9064 4.98719 39.9663C5.11903 40.0261 5.23266 40.1197 5.31656 40.2376C5.36766 40.3754 5.39089 40.522 5.38491 40.6688C5.39624 40.7936 5.41889 40.8505 5.49857 40.8505C5.57825 40.8505 5.60089 40.7823 5.61222 40.6918C5.63487 40.5553 5.65792 39.8842 5.66884 39.772C5.70322 39.4768 5.75984 39.3408 5.75984 39.2612C5.75984 39.2043 5.72587 39.1591 5.67896 39.1591C5.62233 39.1591 5.5653 39.2047 5.49695 39.2273C5.34359 39.2591 5.18725 39.2744 5.03061 39.2729C4.76893 39.2842 2.46071 39.2842 2.02835 39.2842C1.86899 39.2842 1.60771 39.2729 1.31206 39.2616C1.0164 39.2616 0.686769 39.2503 0.390709 39.2503C0.220029 39.2503 0.129028 39.2729 0.129028 39.3638C0.129028 39.432 0.209918 39.4546 0.322356 39.4546C0.471414 39.4519 0.620393 39.4634 0.767256 39.4889C1.14259 39.5697 1.23359 39.7498 1.25624 40.135C1.27889 40.4984 1.27889 40.8162 1.27889 42.542V44.5419C1.27889 45.6322 1.27889 46.4833 1.22227 46.9602C1.17656 47.2893 1.11994 47.5392 0.892639 47.5845C0.758322 47.6148 0.62104 47.6301 0.48333 47.6301C0.358354 47.6301 0.312649 47.664 0.312649 47.7209C0.312649 47.8118 0.393541 47.8344 0.551278 47.8344C0.983236 47.8344 1.69993 47.8001 1.99559 47.8001C2.29124 47.8001 3.00672 47.8344 3.72423 47.8344C3.89491 47.8344 3.97458 47.8001 3.97458 47.7209C3.97458 47.664 3.92888 47.6301 3.78125 47.6301C3.59096 47.6262 3.40107 47.611 3.21259 47.5845C2.87123 47.5388 2.80328 47.2893 2.76769 46.9602C2.71066 46.4833 2.71066 45.6318 2.71066 44.5419L2.71268 43.6205Z" fill="#00365F"/>
<path d="M12.1745 47.4242C9.99046 47.4242 8.68326 45.551 8.68326 43.1893C8.68326 40.3627 10.1733 39.6359 11.4809 39.6359C13.3458 39.6359 14.8128 41.2139 14.8128 43.757C14.8128 47.0381 12.9705 47.4242 12.1745 47.4242ZM11.6969 47.9919C14.5855 47.9919 16.4051 45.937 16.4051 43.337C16.4051 40.7371 14.6425 39.0908 11.8109 39.0908C8.39933 39.0908 7.11438 41.6 7.11438 43.5414C7.11398 45.551 8.4329 47.9919 11.6969 47.9919Z" fill="#00365F"/>
<path d="M18.4047 44.1995C18.4047 45.8458 18.8367 46.686 19.4159 47.2081C20.1302 47.7743 21.0305 48.0537 21.9405 47.9915C22.8044 48.0299 23.6504 47.7375 24.3057 47.1742C25.261 46.3566 25.386 45.0168 25.386 43.7566V42.5416C25.386 40.8158 25.386 40.498 25.4087 40.1346C25.4313 39.7373 25.5223 39.5443 25.8293 39.4885C25.9378 39.4665 26.0482 39.455 26.1589 39.4542C26.2956 39.4542 26.3636 39.4316 26.3636 39.3521C26.3636 39.2725 26.2827 39.2499 26.1249 39.2499C25.68 39.2499 24.965 39.2838 24.8283 39.2838C24.8169 39.2838 24.1002 39.2499 23.5207 39.2499C23.3613 39.2499 23.2816 39.2725 23.2816 39.3521C23.2816 39.4316 23.35 39.4542 23.475 39.4542C23.6122 39.4529 23.7492 39.4644 23.8843 39.4885C24.2596 39.5693 24.3506 39.7498 24.3733 40.1346C24.3959 40.498 24.3959 40.8158 24.3959 42.5416V43.9609C24.3959 45.1319 24.3615 46.1522 23.7362 46.7765C23.3137 47.1781 22.7503 47.3982 22.167 47.3894C21.652 47.4132 21.1461 47.2476 20.7453 46.9239C20.188 46.4696 19.8583 45.7771 19.8583 44.1309V42.5412C19.8583 40.8154 19.8583 40.4976 19.881 40.1342C19.9036 39.7369 19.9946 39.5439 20.3016 39.4881C20.4101 39.4661 20.5205 39.4546 20.6312 39.4538C20.7449 39.4538 20.8132 39.4312 20.8132 39.3517C20.8132 39.2721 20.7324 39.2495 20.5629 39.2495C20.1536 39.2495 19.4369 39.2834 19.1639 39.2834C18.8229 39.2834 18.1062 39.2495 17.5036 39.2495C17.3329 39.2495 17.2532 39.2721 17.2532 39.3517C17.2532 39.4312 17.3216 39.4538 17.4466 39.4538C17.5956 39.4511 17.7446 39.4626 17.8915 39.4881C18.2668 39.5689 18.3578 39.7494 18.3805 40.1342C18.4031 40.4976 18.4031 40.8154 18.4031 42.5412L18.4047 44.1995Z" fill="#00365F"/>
<path d="M29.1001 41.5544H29.1345C29.3392 41.77 30.6015 43.1554 31.8391 44.3809C33.0217 45.5518 34.4773 47.0374 35.192 47.7186C35.317 47.8433 35.4537 47.9685 35.5787 47.9685C35.681 47.9685 35.7267 47.8663 35.7267 47.6164L35.8517 40.4524C35.863 39.8169 35.954 39.5782 36.2723 39.4874C36.3839 39.4601 36.4988 39.4486 36.6137 39.453C36.7501 39.453 36.8183 39.419 36.8183 39.3509C36.8183 39.26 36.7047 39.2487 36.5566 39.2487C35.9993 39.2487 35.5674 39.2826 35.4424 39.2826C35.2033 39.2826 34.6577 39.2487 34.0672 39.2487C33.8966 39.2487 33.7716 39.26 33.7716 39.3509C33.7716 39.4191 33.8169 39.453 33.9536 39.453C34.1562 39.4425 34.3591 39.4656 34.5542 39.5213C34.8272 39.6348 34.9295 39.8504 34.9409 40.5433L35.0553 45.6403H34.9983C34.805 45.4586 33.2717 43.8232 32.4984 43.0516C30.8401 41.4053 29.1114 39.5887 28.9747 39.4413C28.7794 39.237 28.6771 39.0892 28.5521 39.0892C28.4384 39.0892 28.4041 39.2483 28.4041 39.4753L28.3017 46.1624C28.2904 47.15 28.2447 47.4795 27.949 47.5704C27.7816 47.6111 27.6097 47.6302 27.4374 47.6273C27.3238 47.6273 27.2554 47.6499 27.2554 47.7182C27.2554 47.8203 27.3577 47.8316 27.5058 47.8316C28.0971 47.8316 28.6318 47.7973 28.7341 47.7973C28.9521 47.7973 29.4071 47.8316 30.146 47.8316C30.305 47.8316 30.4077 47.809 30.4077 47.7182C30.4077 47.6499 30.3398 47.6273 30.2144 47.6273C30.0142 47.6333 29.8143 47.606 29.6231 47.5465C29.3958 47.4658 29.2477 47.1718 29.2251 46.2863L29.1001 41.5544Z" fill="#00365F"/>
<path d="M40.7759 42.3602C40.7759 41.4634 40.7759 40.4757 40.7873 40.0897C40.7796 40.0419 40.789 39.993 40.814 39.9514C40.8389 39.9099 40.8777 39.8785 40.9236 39.8628C41.1658 39.8057 41.4141 39.7786 41.6629 39.782C42.8471 39.7217 44.0074 40.1297 44.8925 40.9175C45.2575 41.2921 45.5425 41.7368 45.7303 42.2247C45.918 42.7126 46.0045 43.2334 45.9845 43.7557C45.9845 44.9267 45.7572 45.9583 45.0292 46.5822C44.3469 47.1725 43.5731 47.3999 42.4136 47.3999C41.5153 47.3999 41.0716 47.1612 40.9236 46.9456C40.8312 46.6676 40.7889 46.3755 40.7986 46.0827C40.7873 45.8671 40.7759 44.9925 40.7759 43.7892V42.3602ZM39.3543 44.5407C39.3543 45.5852 39.3543 46.4821 39.2973 46.9589C39.2515 47.288 39.1949 47.538 38.9672 47.5832C38.8329 47.6135 38.6956 47.6288 38.5579 47.6288C38.4216 47.6288 38.3759 47.6627 38.3759 47.7197C38.3759 47.8004 38.4568 47.8331 38.6032 47.8331C38.8305 47.8331 39.1262 47.8105 39.3878 47.8105C39.6609 47.7992 39.9108 47.7992 40.035 47.7992C40.3181 47.7992 40.7173 47.8335 41.1492 47.8675C41.5812 47.9014 42.0475 47.9357 42.4573 47.9357C44.5604 47.9357 45.7439 47.1281 46.2668 46.5959C47.0783 45.742 47.5232 44.6052 47.5065 43.4282C47.5339 42.3594 47.1375 41.323 46.4035 40.5444C45.1639 39.2503 43.2649 39.2502 41.8433 39.2502C41.161 39.2502 40.4447 39.2842 40.092 39.2842C39.7737 39.2842 39.057 39.2502 38.4544 39.2502C38.2837 39.2502 38.204 39.2729 38.204 39.3524C38.204 39.4319 38.2724 39.4546 38.3973 39.4546C38.5464 39.4518 38.6954 39.4633 38.8422 39.4889C39.2176 39.5696 39.3086 39.7501 39.3312 40.1349C39.3539 40.4984 39.3539 40.8161 39.3539 42.5419L39.3543 44.5407Z" fill="#00365F"/>
<path d="M50.681 44.3703C50.6357 44.3703 50.624 44.336 50.6357 44.2896L51.6821 41.5079C51.6934 41.4623 51.7165 41.4057 51.7504 41.4057C51.7844 41.4057 51.7961 41.4623 51.8075 41.5079L52.8311 44.3009C52.8425 44.3348 52.8311 44.3691 52.7741 44.3691L50.681 44.3703ZM52.9897 44.9381C53.0151 44.9363 53.0403 44.9433 53.061 44.9581C53.0818 44.9728 53.0967 44.9943 53.1033 45.0188L54.0129 47.3576C54.0255 47.3811 54.0327 47.407 54.0343 47.4336C54.0358 47.4602 54.0316 47.4868 54.0219 47.5116C54.0121 47.5364 53.9972 47.5589 53.978 47.5774C53.9588 47.5959 53.9358 47.61 53.9106 47.6188C53.797 47.6301 53.7513 47.6527 53.7513 47.721C53.7513 47.8017 53.8876 47.8017 54.0926 47.8118C55.0022 47.8344 55.8318 47.8344 56.2419 47.8344C56.6625 47.8344 56.7649 47.8118 56.7649 47.721C56.7649 47.6402 56.7078 47.6301 56.6168 47.6301C56.4565 47.6302 56.2966 47.615 56.1392 47.5845C55.9001 47.5276 55.5705 47.3689 55.1385 46.3469C54.4105 44.6211 52.5905 40.0797 52.3183 39.4555C52.2046 39.1946 52.1363 39.092 52.0352 39.092C51.9215 39.092 51.8532 39.2168 51.7169 39.5463L48.863 46.5839C48.6357 47.1516 48.4181 47.5377 47.8964 47.6059C47.7793 47.6194 47.6616 47.627 47.5437 47.6285C47.4527 47.6285 47.407 47.6511 47.407 47.7193C47.407 47.8102 47.4753 47.8328 47.623 47.8328C48.2143 47.8328 48.8396 47.7985 48.9649 47.7985C49.3176 47.7985 49.8066 47.8328 50.1702 47.8328C50.2952 47.8328 50.3635 47.8102 50.3635 47.7193C50.3635 47.6511 50.3292 47.6285 50.1929 47.6285H50.0222C49.6695 47.6285 49.5672 47.4807 49.5672 47.2764C49.5861 47.0378 49.6437 46.804 49.7379 46.5839L50.3518 45.0285C50.3745 44.9603 50.3971 44.9377 50.4542 44.9377L52.9897 44.9381Z" fill="#00365F"/>
<path d="M58.7321 44.5402C58.7321 45.5848 58.7321 46.4817 58.675 46.9585C58.6411 47.2876 58.5727 47.5376 58.3454 47.5832C58.2111 47.6135 58.0738 47.6288 57.9361 47.6288C57.7994 47.6288 57.7541 47.6627 57.7541 47.7197C57.7541 47.8004 57.835 47.8331 57.9814 47.8331C58.4364 47.8331 59.1543 47.7988 59.4144 47.7988C59.7327 47.7988 60.4494 47.8331 61.1997 47.8331C61.3246 47.8331 61.4156 47.7988 61.4156 47.7197C61.4156 47.6627 61.3586 47.6288 61.2336 47.6288C61.0396 47.6253 60.8459 47.6101 60.6536 47.5832C60.3127 47.5376 60.2443 47.288 60.2087 46.9702C60.1521 46.4821 60.1521 45.5852 60.1521 44.5407V39.8854L61.5851 39.9193C62.5962 39.9419 62.9044 40.2597 62.9271 40.5549L62.9384 40.6796C62.9497 40.85 62.9728 40.9066 63.0634 40.9066C63.1317 40.9066 63.1544 40.8387 63.1657 40.7249C63.1657 40.4297 63.2001 39.6464 63.2001 39.4077C63.2001 39.2373 63.1888 39.1695 63.1091 39.1695C63.0057 39.1826 62.9033 39.2016 62.8021 39.2264C62.5423 39.2642 62.28 39.2833 62.0175 39.2833H57.5155C57.1401 39.2833 56.7066 39.2607 56.3782 39.2264C56.2112 39.1969 56.0474 39.1513 55.8892 39.0903C55.8208 39.0903 55.7868 39.1582 55.7529 39.306C55.7302 39.3968 55.5138 40.4301 55.5138 40.6118C55.5138 40.7366 55.5365 40.7935 55.6162 40.7935C55.6845 40.7935 55.7185 40.7479 55.7411 40.657C55.7832 40.5149 55.8485 40.3806 55.9345 40.2597C56.1051 40.0102 56.3794 39.9532 57.0374 39.9306L58.7321 39.8854V44.5402Z" fill="#00365F"/>
<path d="M65.294 44.5403C65.294 45.6414 65.294 46.5386 65.237 47.0155C65.2026 47.3446 65.1346 47.5376 64.9073 47.5832C64.7729 47.6135 64.6355 47.6288 64.4976 47.6288C64.3613 47.6288 64.3156 47.6627 64.3156 47.7197C64.3156 47.8004 64.3965 47.8331 64.5429 47.8331C64.9979 47.8331 65.7158 47.7988 65.9759 47.7988C66.2833 47.7988 66.9996 47.8331 67.7498 47.8331C67.8748 47.8331 67.9658 47.7988 67.9658 47.7197C67.9658 47.6627 67.9088 47.6288 67.7838 47.6288C67.5897 47.6254 67.396 47.6101 67.2038 47.5832C66.8628 47.538 66.7832 47.3332 66.7488 47.0268C66.7031 46.5386 66.7031 45.6414 66.7031 44.5403V42.5419C66.7031 40.8161 66.7031 40.4984 66.7257 40.1349C66.7484 39.7376 66.8394 39.5446 67.1464 39.4889C67.2589 39.4673 67.3732 39.4558 67.4877 39.4546C67.6014 39.4546 67.6698 39.432 67.6698 39.3411C67.6698 39.2729 67.5787 39.2502 67.4307 39.2502C66.9988 39.2502 66.3277 39.2842 66.0434 39.2842C65.7138 39.2842 64.9971 39.2502 64.5651 39.2502C64.3831 39.2502 64.2921 39.2729 64.2921 39.3411C64.2921 39.432 64.3605 39.4546 64.4742 39.4546C64.612 39.4523 64.7495 39.4676 64.8834 39.5002C65.1338 39.5571 65.2475 39.7501 65.2701 40.1357C65.2928 40.4992 65.2928 40.8169 65.2928 42.5427L65.294 44.5403Z" fill="#00365F"/>
<path d="M74.1414 47.4242C71.9573 47.4242 70.6501 45.551 70.6501 43.1893C70.6501 40.3627 72.1401 39.6359 73.4477 39.6359C75.3127 39.6359 76.7796 41.2139 76.7796 43.757C76.7796 47.0381 74.9374 47.4242 74.1414 47.4242ZM73.6637 47.9919C76.5523 47.9919 78.3716 45.937 78.3716 43.337C78.3716 40.7371 76.609 39.0908 73.7774 39.0908C70.3658 39.0908 69.0808 41.6 69.0808 43.5414C69.0808 45.551 70.4002 47.9919 73.6637 47.9919Z" fill="#00365F"/>
<path d="M81.2647 41.5544H81.2986C81.5033 41.77 82.7656 43.1554 84.0032 44.3809C85.1858 45.5518 86.6415 47.0374 87.3562 47.7186C87.4811 47.8433 87.6178 47.9685 87.7428 47.9685C87.8451 47.9685 87.8908 47.8663 87.8908 47.6164L88.0158 40.4524C88.0271 39.8169 88.1181 39.5782 88.4364 39.4874C88.5481 39.4601 88.663 39.4486 88.7778 39.453C88.9142 39.453 88.9825 39.419 88.9825 39.3509C88.9825 39.26 88.8688 39.2487 88.7208 39.2487C88.1634 39.2487 87.7315 39.2826 87.6061 39.2826C87.3675 39.2826 86.8215 39.2487 86.231 39.2487C86.0603 39.2487 85.9353 39.26 85.9353 39.3509C85.9353 39.4191 85.981 39.453 86.1173 39.453C86.3199 39.4425 86.5229 39.4656 86.7179 39.5213C86.9909 39.6348 87.0933 39.8504 87.1046 40.5433L87.2199 45.6403H87.1628C86.9695 45.4586 85.4358 43.8232 84.6625 43.0516C83.0042 41.4053 81.2756 39.5887 81.1393 39.4413C80.9439 39.237 80.8416 39.0892 80.7166 39.0892C80.603 39.0892 80.569 39.2483 80.569 39.4753L80.4667 46.1624C80.4554 47.15 80.4097 47.4795 80.114 47.5704C79.9466 47.6111 79.7746 47.6302 79.6024 47.6273C79.4887 47.6273 79.4203 47.6499 79.4203 47.7182C79.4203 47.8203 79.5227 47.8316 79.6707 47.8316C80.262 47.8316 80.7967 47.7973 80.899 47.7973C81.117 47.7973 81.5717 47.8316 82.311 47.8316C82.4704 47.8316 82.5727 47.809 82.5727 47.7182C82.5727 47.6499 82.5043 47.6273 82.3794 47.6273C82.1791 47.6333 81.9793 47.606 81.788 47.5465C81.5607 47.4658 81.4127 47.1718 81.39 46.2863L81.2647 41.5544Z" fill="#00365F"/>
<mask id="mask0_435_9" style="mask-type:luminance" maskUnits="userSpaceOnUse" x="0" y="6" width="27" height="19">
<path fill-rule="evenodd" clip-rule="evenodd" d="M26.3413 24.7769C26.3296 24.4882 26.948 17.579 19.5299 16.7513C15.2775 16.1928 14.0835 16.7513 8.36131 13.3817C8.75767 18.4694 15.7026 19.8144 15.7026 19.8144C15.7026 19.8144 6.98859 23.9673 3.69713 18.5279C0.673027 12.3678 4.1845 8.02261 0.501942 6.45874C0.971919 9.10354 -3.01439 19.8568 5.78655 23.8555C9.54798 25.188 14.2077 25.1577 17.5639 24.6542C20.4734 24.174 23.4454 24.215 26.3405 24.7753" fill="white"/>
</mask>
<g mask="url(#mask0_435_9)">
<path d="M26.9501 6.45911H-3.01233V25.1892H26.9501V6.45911Z" fill="url(#paint0_linear_435_9)"/>
</g>
<mask id="mask1_435_9" style="mask-type:luminance" maskUnits="userSpaceOnUse" x="2" y="7" width="12" height="14">
<path fill-rule="evenodd" clip-rule="evenodd" d="M2.83442 7.59985C3.34969 10.8419 1.68657 16.8756 5.76631 19.7215C8.47615 21.5103 12.7027 20.4322 13.4465 20.1035C13.4465 20.1972 6.40333 20.7742 5.19239 17.2403C3.04514 12.3141 6.75561 8.94083 2.83401 7.60025" fill="white"/>
</mask>
<g mask="url(#mask1_435_9)">
<path d="M13.4469 7.59985H1.68658V21.5103H13.4469V7.59985Z" fill="url(#paint1_linear_435_9)"/>
</g>
<mask id="mask2_435_9" style="mask-type:luminance" maskUnits="userSpaceOnUse" x="0" y="0" width="27" height="19">
<path fill-rule="evenodd" clip-rule="evenodd" d="M0.305377 0.197665C0.317106 0.486373 -0.301306 7.39597 7.1168 8.22333C11.3692 8.78136 12.5628 8.22333 18.2854 11.5929C17.889 6.50522 10.9441 5.1602 10.9441 5.1602C10.9441 5.1602 19.6581 1.00726 22.9492 6.44667C25.9733 12.6068 22.4638 16.952 26.1444 18.5159C25.6744 15.871 29.6607 5.1178 20.8598 1.11911C17.0983 -0.213391 12.4386 -0.183105 9.08245 0.320417C6.1729 0.800692 3.20092 0.759672 0.305781 0.199279" fill="white"/>
</mask>
<g mask="url(#mask2_435_9)">
<path d="M29.6578 -0.214233H-0.304199V18.5158H29.6578V-0.214233Z" fill="url(#paint2_linear_435_9)"/>
</g>
<mask id="mask3_435_9" style="mask-type:luminance" maskUnits="userSpaceOnUse" x="13" y="4" width="11" height="14">
<path fill-rule="evenodd" clip-rule="evenodd" d="M23.8115 17.3752C23.2962 14.1331 24.9593 8.09936 20.8796 5.25347C18.1697 3.4647 13.9428 4.54281 13.1994 4.87149C13.1994 4.77781 20.2426 4.2008 21.4535 7.73515C23.6004 12.6613 19.8903 16.0346 23.8119 17.3752" fill="white"/>
</mask>
<g mask="url(#mask3_435_9)">
<path d="M24.9597 3.46472H13.1994V17.3752H24.9597V3.46472Z" fill="url(#paint3_linear_435_9)"/>
</g>
<defs>
<linearGradient id="paint0_linear_435_9" x1="0.0138739" y1="15.8241" x2="26.3508" y2="15.8241" gradientUnits="userSpaceOnUse">
<stop stop-color="#40B459"/>
<stop offset="0.136" stop-color="#339A59"/>
<stop offset="0.416" stop-color="#1D6B59"/>
<stop offset="0.663" stop-color="#0D4859"/>
<stop offset="0.866" stop-color="#033359"/>
<stop offset="1" stop-color="#002C5A"/>
</linearGradient>
<linearGradient id="paint1_linear_435_9" x1="2.8391" y1="7.59985" x2="13.4469" y2="7.59985" gradientUnits="userSpaceOnUse">
<stop stop-color="#40B459"/>
<stop offset="0.136" stop-color="#339A59"/>
<stop offset="0.416" stop-color="#1D6B59"/>
<stop offset="0.663" stop-color="#0D4859"/>
<stop offset="0.866" stop-color="#033359"/>
<stop offset="1" stop-color="#002C5A"/>
</linearGradient>
<linearGradient id="paint2_linear_435_9" x1="26.6316" y1="-0.214233" x2="0.295041" y2="-0.214233" gradientUnits="userSpaceOnUse">
<stop stop-color="#40B459"/>
<stop offset="0.136" stop-color="#339A59"/>
<stop offset="0.416" stop-color="#1D6B59"/>
<stop offset="0.663" stop-color="#0D4859"/>
<stop offset="0.866" stop-color="#033359"/>
<stop offset="1" stop-color="#002C5A"/>
</linearGradient>
<linearGradient id="paint3_linear_435_9" x1="23.8072" y1="3.46472" x2="13.1994" y2="3.46472" gradientUnits="userSpaceOnUse">
<stop stop-color="#40B459"/>
<stop offset="0.136" stop-color="#339A59"/>
<stop offset="0.416" stop-color="#1D6B59"/>
<stop offset="0.663" stop-color="#0D4859"/>
<stop offset="0.866" stop-color="#033359"/>
<stop offset="1" stop-color="#002C5A"/>
</linearGradient>
</defs>
</svg>
