<svg id="translation" xmlns="http://www.w3.org/2000/svg" width="22.454" height="22.454" viewBox="0 0 22.454 22.454">
  <path id="Path_255" data-name="Path 255" d="M79.9,61.413a.658.658,0,0,0-1.222,0l-2.631,6.578a.658.658,0,0,0,1.221.489l.624-1.56h2.793l.624,1.56a.658.658,0,1,0,1.222-.489ZM78.415,65.6l.87-2.176.87,2.176Z" transform="translate(-72.663 -58.325)" fill="#3dae59"/>
  <path id="Path_256" data-name="Path 256" d="M21.8,9.253H13.2V.658A.658.658,0,0,0,12.542,0H.658A.658.658,0,0,0,0,.658V12.5a.658.658,0,0,0,.658.658H7.982V21.8a.658.658,0,0,0,.658.658H21.8a.658.658,0,0,0,.658-.658V9.911A.658.658,0,0,0,21.8,9.253ZM1.316,1.316H11.885V11.841H1.316ZM21.138,21.138H9.3V13.156h3.245A.658.658,0,0,0,13.2,12.5v-1.93h7.938Z" fill="#3dae59"/>
  <path id="Path_257" data-name="Path 257" d="M21.263,334.948h-.95a1.682,1.682,0,0,1-1.681-1.7l.193.193a.658.658,0,0,0,.93-.93l-1.316-1.316a.658.658,0,0,0-.93,0l-1.316,1.316a.658.658,0,1,0,.93.93l.193-.193a3,3,0,0,0,3,3.017h.95a.658.658,0,0,0,0-1.316Z" transform="translate(-15.299 -316.485)" fill="#3dae59"/>
  <path id="Path_258" data-name="Path 258" d="M331.658,62.316h.95a1.682,1.682,0,0,1,1.681,1.7l-.193-.193a.658.658,0,0,0-.93.93l1.316,1.316a.658.658,0,0,0,.93,0l1.316-1.316a.658.658,0,0,0-.93-.93l-.193.193a3,3,0,0,0-3-3.017h-.95a.658.658,0,1,0,0,1.316Z" transform="translate(-316.484 -58.325)" fill="#3dae59"/>
  <path id="Path_259" data-name="Path 259" d="M245.6,287.316a1.317,1.317,0,0,1,1.316,1.316h-5.263a.658.658,0,0,0-.658.68,3.618,3.618,0,0,0,7.18.636h.714v2.324a.658.658,0,1,0,1.316,0v-5.613a.658.658,0,0,0-1.316,0v1.973h-.658A2.634,2.634,0,0,0,245.6,286a.658.658,0,1,0,0,1.316Zm-.987,4.3a2.307,2.307,0,0,1-2.213-1.667h4.426A2.307,2.307,0,0,1,244.618,291.613Z" transform="translate(-230.431 -273.458)" fill="#3dae59"/>
</svg>
