<svg xmlns="http://www.w3.org/2000/svg" width="14" height="11.377" viewBox="0 0 14 11.377">
  <path id="twitter" d="M16.571,6.164a5.743,5.743,0,0,1-1.65.452,2.881,2.881,0,0,0,1.263-1.589,5.75,5.75,0,0,1-1.824.7,2.875,2.875,0,0,0-4.894,2.62,8.154,8.154,0,0,1-5.92-3,2.875,2.875,0,0,0,.889,3.835,2.861,2.861,0,0,1-1.3-.359c0,.012,0,.024,0,.036a2.874,2.874,0,0,0,2.3,2.816,2.877,2.877,0,0,1-1.3.049,2.875,2.875,0,0,0,2.683,1.995,5.763,5.763,0,0,1-3.567,1.23,5.825,5.825,0,0,1-.685-.04A8.168,8.168,0,0,0,15.146,8.023q0-.187-.008-.372a5.835,5.835,0,0,0,1.433-1.487Z" transform="translate(-2.571 -4.817)" fill="#fff"/>
</svg>
