<svg xmlns="http://www.w3.org/2000/svg" width="14" height="9.923" viewBox="0 0 14 9.923">
  <path id="youtube" d="M14.757,6.053A1.766,1.766,0,0,0,13.52,4.8a41.242,41.242,0,0,0-5.47-.3,41.243,41.243,0,0,0-5.47.3A1.766,1.766,0,0,0,1.343,6.053,18.749,18.749,0,0,0,1.05,9.472a18.749,18.749,0,0,0,.293,3.419A1.74,1.74,0,0,0,2.58,14.126a41.243,41.243,0,0,0,5.47.3,41.243,41.243,0,0,0,5.47-.3,1.74,1.74,0,0,0,1.238-1.236,18.749,18.749,0,0,0,.293-3.419,18.749,18.749,0,0,0-.293-3.419ZM6.618,11.57v-4.2l3.659,2.1-3.659,2.1Z" transform="translate(-1.05 -4.5)" fill="#fff"/>
</svg>
